<svg width="23" height="23" viewBox="0 0 23 23" fill="none" preserveAspectRatio="none" xmlns="http://www.w3.org/2000/svg">
<path fill-rule="evenodd" clip-rule="evenodd" d="M21.6679 0.635353C22.3132 1.28067 22.3132 2.32693 21.6679 2.97224L2.97275 21.6674C2.32743 22.3127 1.28117 22.3127 0.635856 21.6674C-0.00945887 21.0221 -0.00945832 19.9758 0.635855 19.3305L19.331 0.635353C19.9763 -0.00996149 21.0226 -0.00996143 21.6679 0.635353Z" fill="#F9F9F9"/>
<path fill-rule="evenodd" clip-rule="evenodd" d="M0.635841 0.635396C1.28116 -0.00991882 2.32742 -0.00991888 2.97273 0.635396L21.6679 19.3305C22.3132 19.9758 22.3132 21.0221 21.6679 21.6674C21.0225 22.3127 19.9763 22.3127 19.331 21.6674L0.635841 2.97229C-0.00947316 2.32697 -0.00947312 1.28071 0.635841 0.635396Z" fill="#F9F9F9"/>
</svg>
