<svg width="15" height="17" viewBox="0 0 15 17" fill="none" preserveAspectRatio="none" xmlns="http://www.w3.org/2000/svg">
<path d="M13.9257 9.88993C13.8488 9.9689 13.5583 10.3065 13.2878 10.5843C11.7014 12.3311 7.56325 15.1902 5.39733 16.0629C5.06839 16.2032 4.23677 16.5 3.79245 16.519C3.36669 16.519 2.96083 16.421 2.57354 16.2222C2.09075 15.9445 1.70345 15.5075 1.49124 14.9914C1.35463 14.6334 1.14241 13.5619 1.14241 13.5428C0.930195 12.3706 0.813477 10.4658 0.813477 8.36097C0.813477 6.35549 0.930195 4.52837 1.10395 3.33842C1.12384 3.31936 1.33606 1.98782 1.56817 1.53172C1.99392 0.698483 2.82554 0.181116 3.71552 0.181116L3.79245 0.181116C4.37206 0.201538 5.59097 0.718906 5.59097 0.737968C7.64018 1.61205 11.6829 4.33095 13.3077 6.13765C13.3077 6.13765 13.7652 6.60192 13.9642 6.89192C14.2746 7.30854 14.4284 7.82454 14.4284 8.34055C14.4284 8.91646 14.2547 9.45289 13.9257 9.88993Z" fill="#00D1FF"/>
</svg>
