<svg aria-hidden="true" width="0" height="0" style="position:absolute"><symbol fill="none" viewBox="0 0 16 16" id="1bc49b18a358ae9a30eee6a64d81c1bd" xmlns="http://www.w3.org/2000/svg"><path d="M4 6l4 4 4-4" stroke="currentColor" stroke-width="2" stroke-linecap="round" stroke-linejoin="round"/></symbol><symbol fill="none" viewBox="0 0 17 17" id="2df0dc75ed30e9a685db353a73c3f2b9" xmlns="http://www.w3.org/2000/svg"><path d="M12.866 16.988a.844.844 0 00.622-.245.81.81 0 00.245-.596.817.817 0 00-.245-.59.788.788 0 00-.584-.25h-5.34l-5.051.162 2.161-1.97L16.75 1.444A.821.821 0 0016.88.427a.867.867 0 00-.314-.314.825.825 0 00-.421-.113.79.79 0 00-.59.263L3.467 12.308l-1.96 2.158.163-5.634v-4.73a.828.828 0 00-.239-.59.768.768 0 00-.578-.25.83.83 0 00-.59.238.825.825 0 00-.251.628L0 16.084c0 .276.084.498.251.665.168.167.381.251.641.251l11.974-.012z" fill="currentColor"/></symbol><symbol fill="none" viewBox="0 0 32 32" id="69bde6418fcbe541d3cd0536df1ff835" xmlns="http://www.w3.org/2000/svg"><path d="M16.363 27.364c6.477 0 11.728-5.25 11.728-11.728 0-6.476-5.25-11.727-11.728-11.727-6.476 0-11.727 5.25-11.727 11.727s5.25 11.728 11.727 11.728zM19.127 12.872L13.6 18.401M13.6 12.872l5.527 5.529" stroke="currentColor" stroke-width="2" stroke-linecap="round"/></symbol><symbol fill="none" viewBox="0 0 24 24" id="7778a9a6bce55914517fec614695b8b5" xmlns="http://www.w3.org/2000/svg"><path d="M20 9h-9a2 2 0 00-2 2v9a2 2 0 002 2h9a2 2 0 002-2v-9a2 2 0 00-2-2z" stroke="currentColor" stroke-width="1.5" stroke-linecap="round" stroke-linejoin="round"/><path d="M5 15H4a2 2 0 01-2-2V4a2 2 0 012-2h9a2 2 0 012 2v1" stroke="currentColor" stroke-width="1.5" stroke-linecap="round" stroke-linejoin="round"/></symbol></svg>