<svg aria-hidden="true" width="0" height="0" style="position:absolute"><symbol fill="none" viewBox="0 0 32 32" id="69bde6418fcbe541d3cd0536df1ff835" xmlns="http://www.w3.org/2000/svg"><path d="M16.363 27.364c6.477 0 11.728-5.25 11.728-11.728 0-6.476-5.25-11.727-11.728-11.727-6.476 0-11.727 5.25-11.727 11.727s5.25 11.728 11.727 11.728zM19.127 12.872L13.6 18.401M13.6 12.872l5.527 5.529" stroke="currentColor" stroke-width="2" stroke-linecap="round"/></symbol><symbol fill="none" viewBox="0 0 24 24" id="7778a9a6bce55914517fec614695b8b5" xmlns="http://www.w3.org/2000/svg"><path d="M20 9h-9a2 2 0 00-2 2v9a2 2 0 002 2h9a2 2 0 002-2v-9a2 2 0 00-2-2z" stroke="currentColor" stroke-width="1.5" stroke-linecap="round" stroke-linejoin="round"/><path d="M5 15H4a2 2 0 01-2-2V4a2 2 0 012-2h9a2 2 0 012 2v1" stroke="currentColor" stroke-width="1.5" stroke-linecap="round" stroke-linejoin="round"/></symbol><symbol fill="none" viewBox="0 0 16 16" id="f16633279440eb32668e40981215bdcc" xmlns="http://www.w3.org/2000/svg"><path d="M4 6l4 4 4-4" stroke="currentColor" stroke-width="2" stroke-linecap="round" stroke-linejoin="round" opacity=".4"/></symbol></svg>