<svg width="16" height="16" viewBox="0 0 16 16" fill="none" preserveAspectRatio="none" xmlns="http://www.w3.org/2000/svg">
<rect x="0.5" y="0.5" width="15" height="15" rx="3.5" fill="black" stroke="#464646"/>
<path d="M3 5.01362H4.25558C4.3703 5.01362 4.46803 5.04313 4.54876 5.10214C4.62949 5.16115 4.6826 5.23606 4.70809 5.32685L5.645 9.05837C5.69174 9.26265 5.7321 9.46239 5.76609 9.65759C5.80008 9.85279 5.83195 10.0457 5.86169 10.2364C5.90843 10.0457 5.9573 9.85279 6.00829 9.65759C6.06352 9.46239 6.12088 9.26265 6.18037 9.05837L7.26386 5.31323C7.28936 5.22244 7.33822 5.14754 7.41045 5.08852C7.48693 5.02951 7.57829 5 7.68451 5H8.37922C8.4897 5 8.58317 5.02951 8.65965 5.08852C8.74039 5.14754 8.7935 5.22244 8.81899 5.31323L9.87062 9.05837C9.92585 9.26719 9.97684 9.4692 10.0236 9.6644C10.0746 9.8596 10.1213 10.0548 10.1638 10.25C10.1978 10.0548 10.2339 9.8596 10.2721 9.6644C10.3104 9.4692 10.355 9.26719 10.406 9.05837L11.3684 5.32685C11.3981 5.23606 11.4512 5.16115 11.5277 5.10214C11.6042 5.04313 11.6956 5.01362 11.8018 5.01362H13L10.9222 12H9.66029C9.51583 12 9.41598 11.9001 9.36074 11.7004L8.18802 7.66245C8.10729 7.38554 8.04568 7.1177 8.00319 6.85895C7.9522 7.13132 7.88846 7.4037 7.81198 7.67607L6.62014 11.7004C6.56915 11.9001 6.45655 12 6.28235 12H5.07138L3 5.01362Z" fill="#58FFF5"/>
</svg>
