<svg width="80" height="18" viewBox="0 0 80 18" fill="none" preserveAspectRatio="none" xmlns="http://www.w3.org/2000/svg">
<path d="M55.063 0.283717V9.71099C55.063 9.81626 55.146 9.90159 55.2484 9.90159H79.1275C79.2798 9.90159 79.4033 9.77468 79.4033 9.61814V0.283717C79.4033 0.12717 79.2798 0.00026375 79.1275 0.00026375H55.3507C55.2755 -0.00307 55.2022 0.0253155 55.1479 0.078839C55.0936 0.132362 55.0629 0.206375 55.063 0.283717ZM76.9186 7.53866H57.5476C57.4461 7.53867 57.3635 7.45482 57.3622 7.35051V2.55135C57.3622 2.50102 57.3818 2.45279 57.4167 2.41743C57.4515 2.38207 57.4987 2.36254 57.5476 2.36319H76.9186C76.9676 2.36254 77.0148 2.38207 77.0496 2.41743C77.0845 2.45279 77.1041 2.50102 77.1041 2.55135V7.35051C77.1028 7.45482 77.0201 7.53867 76.9186 7.53866Z" fill="white"/>
<path d="M57.1796 15.4189H55.2455C55.1447 15.4189 55.063 15.5032 55.063 15.6071V17.5937C55.063 17.6976 55.1447 17.7819 55.2455 17.7819H57.1796C57.2805 17.7819 57.3622 17.6976 57.3622 17.5937V15.6071C57.3622 15.5032 57.2805 15.4189 57.1796 15.4189Z" fill="white"/>
<path fill-rule="evenodd" clip-rule="evenodd" d="M27.7563 0.283454V2.17233C27.7563 2.27759 27.8393 2.36293 27.9418 2.36293H49.757C49.8581 2.36293 49.9401 2.44717 49.9401 2.55108V7.35024C49.9388 7.45361 49.8576 7.53708 49.757 7.5384H27.9418C27.8403 7.53839 27.7576 7.62224 27.7563 7.72655V9.71317C27.7563 9.81709 27.8383 9.90133 27.9394 9.90133H51.9659C52.1182 9.90133 52.2417 9.77442 52.2417 9.61787V0.283454C52.2417 0.126906 52.1182 0 51.9659 0H28.0321C27.8798 0 27.7563 0.126906 27.7563 0.283454Z" fill="white"/>
<path d="M0.777618 0.47234V9.71146C0.77761 9.81577 0.859203 9.90072 0.9607 9.90205H24.6567C24.7788 9.90206 24.8959 9.85203 24.982 9.76306C25.0681 9.67409 25.1162 9.5535 25.1156 9.428V0.47234C25.1156 0.211878 24.9101 0.000732422 24.6567 0.000732422H1.23651C0.983612 0.00206873 0.778919 0.212434 0.777618 0.47234ZM22.6333 7.53913H3.25992C3.1588 7.53913 3.07684 7.45489 3.07684 7.35097V2.55181C3.07619 2.50171 3.09527 2.45347 3.12975 2.41804C3.16422 2.38261 3.21117 2.36299 3.25992 2.36366H22.6333C22.682 2.36299 22.729 2.38261 22.7634 2.41804C22.7979 2.45347 22.817 2.50171 22.8163 2.55181V7.35097C22.8163 7.45489 22.7344 7.53913 22.6333 7.53913Z" fill="white"/>
<path d="M2.89427 15.4192H0.960186C0.859357 15.4192 0.777618 15.5034 0.777618 15.6073V17.594C0.777618 17.6979 0.859357 17.7821 0.960186 17.7821H2.89427C2.9951 17.7821 3.07684 17.6979 3.07684 17.594V15.6073C3.07684 15.5034 2.9951 15.4192 2.89427 15.4192Z" fill="white"/>
<path fill-rule="evenodd" clip-rule="evenodd" d="M52.2433 15.7058V17.4969C52.242 17.6525 52.1189 17.778 51.9675 17.778H27.9529C27.8527 17.778 27.7711 17.6952 27.7698 17.5922V15.6105C27.7711 15.5062 27.8538 15.4224 27.9553 15.4224H51.9699C52.1213 15.4237 52.2433 15.5502 52.2433 15.7058Z" fill="white"/>
</svg>
