<svg width="30" height="30" viewBox="0 0 30 30" fill="none" xmlns="http://www.w3.org/2000/svg">
<g clip-path="url(#clip0)">
<path d="M14.999 15V15.0158" stroke="#84CBFF" stroke-width="2" stroke-linecap="round" stroke-linejoin="round"/>
<path d="M25.7132 4.28547C24.5766 3.14889 22.3578 3.18763 19.545 4.39315C16.7321 5.59867 13.5555 7.87224 10.7141 10.7137C7.87261 13.5551 5.59904 16.7317 4.39352 19.5446C3.188 22.3575 3.14926 24.5763 4.28584 25.7128C5.42242 26.8494 7.64121 26.8107 10.4541 25.6052C13.267 24.3996 16.4436 22.1261 19.285 19.2846C20.6919 17.8777 21.9743 16.3737 23.0587 14.8585C24.1432 13.3433 25.0086 11.8465 25.6055 10.4537C26.2024 9.06092 26.5192 7.79933 26.5377 6.74098C26.5561 5.68263 26.276 4.84825 25.7132 4.28547" stroke="#84CBFF" stroke-width="2" stroke-linecap="round" stroke-linejoin="round"/>
<path d="M4.28352 4.28484C3.14694 5.42142 3.18567 7.6402 4.3912 10.4531C5.59672 13.266 7.87028 16.4426 10.7117 19.284C13.5532 22.1254 16.7297 24.399 19.5426 25.6045C22.3555 26.8101 24.5743 26.8488 25.7109 25.7122C26.8475 24.5756 26.8087 22.3568 25.6032 19.544C24.3977 16.7311 22.1241 13.5545 19.2827 10.713C17.8757 9.30611 16.3717 8.02379 14.8565 6.93931C13.3413 5.85483 11.8446 4.98943 10.4518 4.39252C9.05897 3.7956 7.79738 3.47887 6.73903 3.46039C5.68068 3.44191 4.8463 3.72206 4.28352 4.28484" stroke="#84CBFF" stroke-width="2" stroke-linecap="round" stroke-linejoin="round"/>
</g>
<defs>
<clipPath id="clip0">
<rect width="30" height="30" fill="white" transform="translate(-0.000976562)"/>
</clipPath>
</defs>
</svg>
