<svg width="16" height="16" viewBox="0 0 16 16" fill="none" xmlns="http://www.w3.org/2000/svg">
<path d="M6.82621 13C7.12718 13 7.36044 12.8733 7.52598 12.62L12.8307 4.19746C12.8872 4.10535 12.9295 4.01804 12.9577 3.93552C12.9859 3.853 13 3.76952 13 3.68509C13 3.48551 12.9361 3.32143 12.8081 3.19286C12.6802 3.06429 12.5166 3 12.3172 3C12.1742 3 12.0557 3.02879 11.9616 3.08636C11.8676 3.14393 11.7792 3.23988 11.6964 3.37421L6.80361 11.2901L4.29233 8.00286C4.13055 7.79177 3.93303 7.68622 3.69977 7.68622C3.49661 7.68622 3.32919 7.75243 3.19752 7.88484C3.06584 8.01726 3 8.18325 3 8.38283C3 8.47494 3.01599 8.56418 3.04797 8.65053C3.07995 8.73689 3.13356 8.8242 3.2088 8.91248L6.13205 12.6315C6.32393 12.8772 6.5553 13 6.82619 13L6.82621 13Z" fill="white" stroke="white"/>
</svg>
