<svg width="80" height="18" fill="none" preserveAspectRatio="none" xmlns="http://www.w3.org/2000/svg"><path d="M55.063.284V9.71c0 .105.083.19.185.19h23.88a.28.28 0 0 0 .275-.283V.284A.28.28 0 0 0 79.127 0H55.352a.272.272 0 0 0-.203.079.287.287 0 0 0-.085.205Zm21.856 7.255H57.548a.188.188 0 0 1-.186-.188v-4.8c0-.05.02-.098.055-.134a.18.18 0 0 1 .13-.054H76.92a.18.18 0 0 1 .13.054.19.19 0 0 1 .055.134v4.8a.188.188 0 0 1-.185.188Zm-19.739 7.88h-1.934a.185.185 0 0 0-.183.188v1.987c0 .104.082.188.182.188h1.935c.1 0 .182-.084.182-.188v-1.987a.185.185 0 0 0-.182-.188Z" fill="#fff"/><path fill-rule="evenodd" clip-rule="evenodd" d="M27.756.283v1.89c0 .105.083.19.186.19h21.815c.101 0 .183.084.183.188v4.8a.188.188 0 0 1-.183.187H27.942a.188.188 0 0 0-.186.189v1.986c0 .104.082.188.183.188h24.027a.28.28 0 0 0 .276-.283V.283A.28.28 0 0 0 51.966 0H28.032a.28.28 0 0 0-.276.283Z" fill="#fff"/><path d="M.778.472v9.24c0 .104.081.189.183.19h23.696c.122 0 .239-.05.325-.139a.479.479 0 0 0 .134-.335V.472a.465.465 0 0 0-.46-.471H1.237a.468.468 0 0 0-.458.471ZM22.633 7.54H3.26a.186.186 0 0 1-.183-.188v-4.8c0-.05.018-.098.053-.133a.178.178 0 0 1 .13-.054h19.373a.177.177 0 0 1 .13.054.188.188 0 0 1 .053.134V7.35a.186.186 0 0 1-.183.188ZM2.894 15.42H.96c-.1 0-.182.083-.182.187v1.987c0 .104.081.188.182.188h1.934a.185.185 0 0 0 .183-.188v-1.987a.185.185 0 0 0-.183-.188Z" fill="#fff"/><path fill-rule="evenodd" clip-rule="evenodd" d="M52.243 15.706v1.79a.28.28 0 0 1-.276.282H27.954a.186.186 0 0 1-.183-.186v-1.981a.188.188 0 0 1 .185-.189H51.97a.28.28 0 0 1 .273.284Z" fill="#fff"/></svg>