<svg width="30" height="30" fill="none" xmlns="http://www.w3.org/2000/svg"><g clip-path="url(#a)" stroke="#84CBFF" stroke-width="2" stroke-linecap="round" stroke-linejoin="round"><path d="M14.999 15v.016M25.713 4.285c-1.136-1.136-3.355-1.097-6.168.108-2.813 1.206-5.99 3.48-8.83 6.32-2.842 2.842-5.116 6.019-6.321 8.832-1.206 2.813-1.245 5.031-.108 6.168 1.136 1.136 3.355 1.098 6.168-.108 2.813-1.205 5.99-3.479 8.831-6.32a35.773 35.773 0 0 0 3.774-4.427c1.084-1.515 1.95-3.011 2.546-4.404.597-1.393.914-2.655.933-3.713.018-1.058-.262-1.893-.825-2.456"/><path d="M4.284 4.285C3.147 5.42 3.186 7.64 4.39 10.453c1.206 2.813 3.48 5.99 6.32 8.831 2.842 2.841 6.019 5.115 8.832 6.32 2.813 1.206 5.031 1.245 6.168.108 1.137-1.136 1.098-3.355-.108-6.168-1.205-2.813-3.479-5.99-6.32-8.831a35.79 35.79 0 0 0-4.427-3.774c-1.515-1.084-3.011-1.95-4.404-2.546-1.393-.597-2.655-.914-3.713-.933-1.058-.018-1.893.262-2.455.825"/></g><defs><clipPath id="a"><path fill="#fff" transform="translate(-.001)" d="M0 0h30v30H0z"/></clipPath></defs></svg>