<svg width="422" height="99" fill="none" xmlns="http://www.w3.org/2000/svg"><g opacity=".1"><path d="M418.221 49.291c-.407 9.758-5.33 17.078-14.593 22.605-9.297 5.547-22.946 9.27-40.718 11.758-35.537 4.973-87.305 4.974-153.075 4.974-65.77 0-117.538 0-152.66-4.974-17.565-2.487-30.904-6.211-39.738-11.758C8.635 66.37 4.322 59.049 4.729 49.29c.407-9.743 5.645-17.065 15.326-22.599 9.712-5.551 23.859-9.275 41.961-11.762 36.197-4.974 87.967-4.975 151.1-4.975 63.133 0 114.902 0 150.685 4.975 17.895 2.487 31.731 6.211 40.979 11.762 9.22 5.534 13.848 12.856 13.441 22.6Z" stroke="url(#a)"/><path d="M418.165 54.09c-.634 9.747-5.726 16.95-15.114 22.26-9.424 5.33-23.155 8.736-40.981 10.81-35.643 4.147-87.397 2.946-153.149 1.419-65.752-1.527-117.506-2.73-152.504-8.518-17.502-2.895-30.75-6.927-39.454-12.678C8.293 61.654 4.151 54.236 4.784 44.49c.633-9.731 6.04-16.93 15.847-22.237 9.838-5.324 24.067-8.72 42.222-10.786 36.303-4.131 88.059-2.93 151.175-1.465 63.116 1.466 114.871 2.67 150.529 8.472 17.832 2.903 31.578 6.947 40.695 12.711 9.089 5.747 13.545 13.175 12.913 22.906Z" stroke="url(#b)"/><path d="M418 58.84c-.858 9.73-6.114 16.814-15.622 21.907-9.543 5.112-23.35 8.2-41.218 9.864-35.729 3.327-87.442.937-153.142-2.101-65.699-3.038-117.412-5.431-152.267-12.022-17.431-3.296-30.584-7.631-39.152-13.58C8.062 56.98 4.092 49.468 4.949 39.74c.856-9.714 6.427-16.787 16.353-21.867 9.958-5.097 24.262-8.163 42.46-9.812 36.388-3.296 88.102-.906 151.168 2.01 63.066 2.917 114.78 5.31 150.294 11.93 17.761 3.312 31.411 7.671 40.393 13.644 8.954 5.953 13.239 13.482 12.383 23.196Z" stroke="url(#c)"/></g><defs><linearGradient id="a" x1="213.137" y1="9.455" x2="213.137" y2="89.128" gradientUnits="userSpaceOnUse"><stop stop-color="#FF7438"/><stop offset="1" stop-color="#7636FF"/></linearGradient><linearGradient id="b" x1="214.06" y1="9.503" x2="212.21" y2="89.155" gradientUnits="userSpaceOnUse"><stop stop-color="#FF7438"/><stop offset="1" stop-color="#7636FF"/></linearGradient><linearGradient id="c" x1="214.974" y1="9.573" x2="211.294" y2="89.161" gradientUnits="userSpaceOnUse"><stop stop-color="#FF7438"/><stop offset="1" stop-color="#7636FF"/></linearGradient></defs></svg>