<svg version="1.0" xmlns="http://www.w3.org/2000/svg" width="933.333" height="933.333" viewBox="0 0 700 700"><path d="M43.7 95.6c-.1.1-2.1.4-4.4.8-5.3.7-13.5 4.1-18.8 7.7-5.6 3.8-9.8 8.4-13.9 15.2C-.3 130.8 0 125.9.1 255.7c.1 127-.2 121.8 5.7 132.7 3.7 7.1 13.6 16.7 20.2 19.8 12.4 5.8-10.3 5.5 326 5.3l309.5-.1 5.8-2.1c15.9-5.9 26.9-17.9 31.1-33.9 1.4-5.2 1.6-20 1.6-121.4 0-71.2-.4-117.8-1-121.5-2.7-16.5-15.1-30.6-32.1-36.6l-6.4-2.3-308.3-.1c-169.6 0-308.4 0-308.5.1zM587.6 223c.7 0 1 9.7.9 30.7-.1 17-.3 31.2-.3 31.8-.1.7-76.9.9-228.5.8-125.5 0-229.2-.2-230.3-.2-2.1-.1-2.1-.2-2.2-30.4 0-16.6.1-30.9.4-31.7.3-1.3 26.6-1.5 229.6-1.3 126.1.1 229.8.3 230.4.3zM20.5 479.5c-5.8 2.4-8.2 4.1-12.3 8.5-3.2 3.6-3.5 4-5.7 9-1.9 4.2-2 6.7-2 44v39.5l2.6 5.5c3.4 7.1 8.6 12.2 15.7 15.7l5.7 2.7 37.6.1c41.2.1 43.4-.1 51.8-6 4.9-3.4 10.6-11.5 12.2-17.5.8-3.1 1.1-15.9 1.1-41-.1-33.8-.2-37-2-41.7-3-7.9-8.4-13.8-16-17.5l-6.7-3.3-38.1-.2c-37.8-.1-38.2-.1-43.9 2.2z"/></svg>