<svg width="128" height="130" fill="none" xmlns="http://www.w3.org/2000/svg"><path d="M7.43 84.364c.342-.14.56-.334.655-.582.093-.252.076-.572-.05-.958a1.78 1.78 0 0 0-.209-.45 1.049 1.049 0 0 0-.26-.257.59.59 0 0 0-.293-.089.806.806 0 0 0-.312.04.648.648 0 0 0-.359.302c-.096.154-.125.389-.086.704l.106.781c.042.308.058.587.045.837a1.97 1.97 0 0 1-.141.67 1.45 1.45 0 0 1-.39.504c-.17.143-.39.258-.66.347a1.63 1.63 0 0 1-.767.074 1.596 1.596 0 0 1-.664-.284 2.218 2.218 0 0 1-.539-.596 3.519 3.519 0 0 1-.402-.852c-.135-.413-.2-.772-.194-1.078.005-.306.06-.57.163-.79a1.47 1.47 0 0 1 .418-.55c.18-.151.376-.277.59-.376l.509 1.072c-.294.16-.482.347-.564.561-.084.209-.07.482.04.82.066.202.139.362.22.482a.927.927 0 0 0 .236.266.47.47 0 0 0 .245.104.612.612 0 0 0 .246-.028c.212-.069.352-.179.42-.33.066-.156.081-.386.046-.69l-.103-.827c-.08-.653-.028-1.167.154-1.543.177-.373.522-.644 1.036-.811.25-.081.495-.109.738-.083.236.023.464.1.684.234.212.13.406.318.58.565.18.246.331.553.453.924.252.772.282 1.417.088 1.937-.2.516-.629.898-1.286 1.148l-.392-1.198Z" fill="url(#a)"/><path d="M6.84 73.475c.067.44.056.844-.034 1.212-.09.369-.251.694-.484.978a2.87 2.87 0 0 1-.89.71 4.12 4.12 0 0 1-1.26.387 4.108 4.108 0 0 1-1.318.007 2.87 2.87 0 0 1-1.061-.411 2.506 2.506 0 0 1-.757-.796 3.076 3.076 0 0 1-.395-1.138 3.097 3.097 0 0 1 .034-1.212c.09-.368.252-.692.485-.97.233-.282.53-.516.89-.7a4.078 4.078 0 0 1 1.26-.388c.48-.073.92-.076 1.32-.008.398.063.75.195 1.058.395.306.196.558.455.754.78.197.324.33.709.398 1.154Zm-1.057.17c-.08-.516-.315-.874-.706-1.073-.392-.199-.915-.248-1.571-.148-.65.1-1.132.303-1.446.61-.32.307-.439.72-.36 1.236.08.517.318.874.715 1.073.392.198.912.248 1.563.149.655-.1 1.14-.304 1.454-.611.313-.307.43-.719.351-1.236Z" fill="url(#b)"/><path d="m0 66.037.007-1.243 4.9.03.017-2.82 1.069.14-.023 3.929L0 66.037Z" fill="url(#c)"/><path d="m.672 55.252.188-1.17 6.249-1.266-.212 1.318-1.437.252-.33 2.06 1.287.687-.204 1.268-5.54-3.149Zm3.72-.707-2.228.38 2 1.045.229-1.425Z" fill="url(#d)"/><path d="m2.477 46.708.355-1.06 4.49-1.09-3.711-1.237.384-1.147 5.662 1.886-.352 1.053-4.461 1.108 3.68 1.226-.384 1.148-5.663-1.887Z" fill="url(#e)"/><path d="m6.997 35.438.554-1.048 6.325.804-.624 1.18-1.443-.222-.976 1.845.998 1.063-.602 1.136-4.232-4.758Zm3.75.523-2.232-.355 1.557 1.631.675-1.276Z" fill="url(#f)"/><path d="m14.506 23.786.96-1.022 3.684 2.13-2.333-3.52.904-.961 3.698 2.064-2.408-3.487.915-.974 3.246 5.254-.829.883-3.981-2.203 2.483 3.797-.806.859-5.533-2.82Z" fill="url(#g)"/><path d="M29.573 18.05c-.36.263-.724.44-1.093.53-.369.09-.733.098-1.092.023a2.868 2.868 0 0 1-1.042-.46 4.109 4.109 0 0 1-.926-.936 4.101 4.101 0 0 1-.615-1.163 2.852 2.852 0 0 1-.125-1.13 2.5 2.5 0 0 1 .358-1.036 3.08 3.08 0 0 1 .829-.876c.36-.263.724-.44 1.093-.53.369-.09.73-.096 1.085-.018.36.075.704.23 1.035.464.331.234.64.546.926.936.287.39.492.778.616 1.164.128.381.175.755.138 1.12a2.347 2.347 0 0 1-.344 1.026 3.13 3.13 0 0 1-.843.886Zm-.639-.857c.423-.309.632-.683.628-1.121-.004-.438-.202-.924-.594-1.458-.389-.53-.792-.862-1.21-.998-.42-.14-.843-.056-1.265.253-.423.309-.63.685-.623 1.127.004.439.2.923.589 1.452.392.534.797.869 1.215 1.005.417.136.837.05 1.26-.26Z" fill="url(#h)"/><path d="m33.044 8.537 1.887-.953c.418-.212.786-.335 1.105-.372.321-.044.6-.025.834.056.232.076.427.195.585.359.156.158.28.329.373.513.174.342.258.661.252.957-.006.296-.116.598-.328.905l2.226 1.708-1.201.607-1.908-1.542-1.044.528 1.012 1.994-1.096.554-2.697-5.314Zm3.178 1.405c.174-.088.31-.178.406-.27a.78.78 0 0 0 .19-.292.598.598 0 0 0 .016-.318 1.376 1.376 0 0 0-.121-.331.896.896 0 0 0-.18-.245.582.582 0 0 0-.275-.152.734.734 0 0 0-.377-.005 1.794 1.794 0 0 0-.508.181l-.768.389.752 1.48.865-.437Z" fill="url(#i)"/><path d="m41.991 4.423 1.43-.44 2.738 3.81.146-4.7 1.39-.429 1.762 5.691-1.094.338-1.175-3.794-.127 4.196-.927.285-2.482-3.382 1.172 3.786-1.07.33-1.763-5.69Z" fill="url(#j)"/><path d="m53.408 1.444 1.236-.155.289 2.285 2.347-.295-.288-2.285L58.228.84l.746 5.91-1.236.155-.313-2.483-2.348.295.313 2.483-1.236.156-.746-5.91Z" fill="url(#k)"/><path d="M66.25 6.77a3.117 3.117 0 0 1-1.184-.268 2.43 2.43 0 0 1-.866-.665 2.856 2.856 0 0 1-.525-1.008 4.093 4.093 0 0 1-.135-1.309c.021-.483.104-.914.25-1.291.15-.378.353-.698.61-.96a2.51 2.51 0 0 1 .93-.585 3.096 3.096 0 0 1 1.195-.165c.446.02.84.11 1.185.27.345.16.63.38.858.663.233.283.406.62.517 1.008.111.39.156.825.135 1.309a4.097 4.097 0 0 1-.25 1.292 2.657 2.657 0 0 1-.594.959 2.356 2.356 0 0 1-.913.586 3.14 3.14 0 0 1-1.212.165Zm.04-1.067c.523.023.92-.138 1.192-.482.272-.344.422-.847.451-1.509.03-.655-.077-1.166-.317-1.533-.24-.373-.622-.57-1.146-.593-.523-.023-.921.14-1.193.49-.272.345-.422.845-.45 1.5-.03.662.076 1.176.317 1.543.24.367.622.561 1.145.584Z" fill="url(#l)"/><path d="m74.895 1.524 1.22.25-.983 4.79 2.769.565-.346 1.02-3.858-.789 1.198-5.836Z" fill="url(#m)"/><path d="m83.697 3.694 3.834 1.369-.358.997-2.66-.95-.44 1.226 2.503.894-.36 1.005-2.504-.894-.496 1.382 2.826 1.01-.476.955-3.88-1.386 2.011-5.608Z" fill="url(#n)"/><path d="m97.067 9.755 1.04.685-1.272 1.921 1.975 1.302 1.271-1.922 1.04.685-3.29 4.97-1.04-.684 1.383-2.089-1.975-1.3-1.382 2.088-1.04-.685 3.29-4.971Z" fill="url(#o)"/><path d="m106.811 17.023.871.805-2.414 5.89-.981-.907.588-1.333-1.533-1.418-1.288.687-.944-.873 5.701-2.85Zm-1.476 3.48.921-2.06-1.982 1.08 1.061.98Z" fill="url(#p)"/><path d="M112.972 29.674a2.728 2.728 0 0 1-.838.364 2.142 2.142 0 0 1-.857.041 2.194 2.194 0 0 1-.835-.325 3.018 3.018 0 0 1-.778-.728 2.96 2.96 0 0 1-.555-1.08 2.395 2.395 0 0 1-.026-1.068c.076-.347.23-.685.462-1.012a4.46 4.46 0 0 1 .909-.927 4.12 4.12 0 0 1 1.148-.646c.383-.134.755-.19 1.118-.168a2.39 2.39 0 0 1 1.029.301c.323.18.616.439.879.777.232.299.396.587.492.865.1.282.137.552.112.81a2.01 2.01 0 0 1-.221.763 3.396 3.396 0 0 1-.508.721l-.884-.878c.239-.263.384-.526.433-.79.053-.259-.037-.537-.27-.836-.294-.378-.66-.555-1.1-.531-.433.025-.909.238-1.428.64-.524.407-.847.822-.968 1.247-.118.429-.04.819.233 1.17.236.304.486.466.749.487.272.022.566-.061.884-.251l.82 1.054Z" fill="url(#q)"/><path d="m118.975 31.751.603 1.097-2.096 1.148 3.154.776.656 1.192-2.918-.658-2.211 3.714-.668-1.214 1.75-2.871-.98-.273-1.92 1.052-.604-1.097 5.234-2.866Z" fill="url(#r)"/><path d="m123.92 42.109.4 1.115-4.865 4.113-.451-1.257 1.138-.912-.704-1.963-1.46.016-.434-1.21 6.376.098Zm-2.919 2.407 1.77-1.403-2.258.044.488 1.36Z" fill="url(#s)"/><path d="m125.632 51.967-.332-1.763 1.06-.199.895 4.756-1.06.199-.332-1.763-4.807.9-.231-1.23 4.807-.9Z" fill="url(#t)"/><path d="m127.867 60.11.034 1.242-2.307.063.065 2.36 2.307-.063.034 1.242-5.967.164-.035-1.243 2.508-.068-.065-2.36-2.507.068-.035-1.243 5.968-.163Z" fill="url(#u)"/><path d="M121.301 72.342c.063-.44.191-.824.384-1.15.193-.327.442-.592.747-.796a2.863 2.863 0 0 1 1.057-.423 4.12 4.12 0 0 1 1.318-.006c.48.068.902.193 1.264.374.362.186.661.42.897.7.235.287.399.613.493.98.094.368.11.77.048 1.204-.063.44-.191.824-.384 1.15a2.356 2.356 0 0 1-.746.788 2.767 2.767 0 0 1-1.056.414 4.122 4.122 0 0 1-1.318.007 4.115 4.115 0 0 1-1.264-.374 2.663 2.663 0 0 1-.899-.684 2.345 2.345 0 0 1-.496-.964 3.113 3.113 0 0 1-.045-1.22Zm1.061.142c-.074.518.047.929.364 1.232.317.304.804.502 1.46.596.652.092 1.172.037 1.561-.166.395-.202.629-.562.703-1.08.074-.517-.05-.928-.372-1.233-.317-.303-.801-.501-1.453-.594-.656-.093-1.179-.039-1.569.164-.389.203-.621.564-.694 1.081Z" fill="url(#v)"/><path d="m125.696 81.498-.342 1.064-4.477 1.142 3.725 1.193-.37 1.152-5.684-1.82.34-1.057 4.448-1.16-3.694-1.183.37-1.152 5.684 1.82Z" fill="url(#w)"/><path d="M101.885 111.988c.152.103.272.223.362.358.091.144.148.291.173.442.029.155.026.312-.009.47a1.39 1.39 0 0 1-.212.472c-.101.146-.22.264-.355.354a1.163 1.163 0 0 1-.912.175 1.304 1.304 0 0 1-.465-.207 1.404 1.404 0 0 1-.376-.368 1.152 1.152 0 0 1-.164-.912c.034-.158.102-.311.203-.458.104-.151.225-.274.364-.368.136-.089.281-.148.436-.177.155-.029.314-.028.476.002.163.037.323.11.479.217Z" fill="url(#x)"/><path d="m96.049 120.953-1.257.625-2.711-3.275.96 4.109-1.182.588-2.749-3.219 1.043 4.105-1.198.596-1.212-6.053 1.085-.54 2.965 3.447-1.004-4.422 1.055-.525 4.205 4.564Z" fill="url(#y)"/><path d="m84.318 126.129-1.185.385-1.85-5.663 1.184-.385 1.85 5.663Z" fill="url(#z)"/><path d="m78.13 127.925-1.102.205-3.134-3.388.718 3.838-1.192.222-1.095-5.856 1.093-.204 3.136 3.355-.711-3.806 1.192-.222 1.094 5.856Z" fill="url(#A)"/><path d="m67.773 129.416-1.12.023-2.539-3.852.082 3.903-1.212.026-.124-5.956 1.111-.023 2.547 3.819-.08-3.87 1.211-.025.124 5.955Z" fill="url(#B)"/><path d="m57.37 129.187-4.036-.534.14-1.05 2.801.37.172-1.29-2.636-.349.141-1.058 2.636.349.193-1.456-2.975-.394.264-1.034 4.086.541-.785 5.905Z" fill="url(#C)"/><path d="m48.408 127.641-2.033-.581c-.45-.129-.805-.288-1.063-.478-.266-.186-.457-.388-.574-.606a1.405 1.405 0 0 1-.184-.661c-.006-.221.02-.431.076-.629.106-.369.262-.66.468-.873.206-.213.492-.359.857-.44l-.467-2.763 1.294.37.347 2.425 1.125.322.617-2.15 1.182.338-1.645 5.726Zm-1.372-3.186a1.696 1.696 0 0 0-.482-.078.784.784 0 0 0-.338.086.595.595 0 0 0-.229.221 1.374 1.374 0 0 0-.137.325.901.901 0 0 0-.034.303.583.583 0 0 0 .097.297.731.731 0 0 0 .273.26c.122.081.287.152.496.211l.828.237.459-1.596-.933-.266Z" fill="url(#D)"/><path d="M40.016 120.564c.129-.345.134-.637.017-.874-.123-.24-.369-.445-.738-.615a1.751 1.751 0 0 0-.473-.153 1.034 1.034 0 0 0-.366.015.591.591 0 0 0-.264.154.807.807 0 0 0-.183.256.645.645 0 0 0-.022.467c.048.176.2.356.459.542l.646.454c.255.178.47.357.646.535.175.179.307.365.395.559.082.196.117.405.106.627a1.94 1.94 0 0 1-.194.719 1.628 1.628 0 0 1-.466.613 1.603 1.603 0 0 1-.66.293 2.232 2.232 0 0 1-.805-.012 3.536 3.536 0 0 1-.9-.285c-.395-.181-.703-.378-.924-.59a1.934 1.934 0 0 1-.47-.657 1.465 1.465 0 0 1-.119-.679c.01-.235.052-.464.124-.687l1.134.356c-.082.323-.072.588.029.794.096.203.306.379.63.528.193.089.36.145.503.167a.936.936 0 0 0 .356.008c.1-.016.18-.052.243-.109a.61.61 0 0 0 .147-.199c.094-.202.108-.379.043-.531-.07-.155-.228-.323-.476-.504l-.678-.486c-.533-.386-.876-.773-1.028-1.162-.154-.383-.119-.82.108-1.31a1.75 1.75 0 0 1 .44-.596 1.6 1.6 0 0 1 .637-.341c.24-.068.51-.081.81-.041.304.035.632.134.987.297.739.34 1.233.757 1.483 1.252.243.497.233 1.071-.03 1.722l-1.147-.527Z" fill="url(#E)"/><path d="M27.83 114.863a1.184 1.184 0 0 1-.83.489 1.19 1.19 0 0 1-.47-.034 1.395 1.395 0 0 1-.46-.238 1.286 1.286 0 0 1-.335-.372 1.157 1.157 0 0 1-.127-.918c.043-.156.121-.307.233-.453a1.4 1.4 0 0 1 .39-.354 1.168 1.168 0 0 1 .92-.114c.157.043.306.119.447.227.146.112.262.24.349.383.082.14.133.288.153.444.02.156.011.314-.027.474a1.41 1.41 0 0 1-.243.466Z" fill="url(#F)"/><path d="M31.117 72.868c.374-.435.746-.85 1.116-1.244.369-.403.74-.823 1.114-1.258.366-.424.682-.805.948-1.144.276-.341.5-.664.67-.97.17-.306.286-.6.348-.881a2.48 2.48 0 0 0 .039-.929c-.058-.426-.23-.756-.514-.99-.276-.244-.622-.338-1.038-.28-.496.067-.871.235-1.127.502-.248.256-.398.706-.451 1.35l-2.054.039c.031-.438.105-.857.221-1.257.116-.41.297-.778.545-1.104a3.127 3.127 0 0 1 1.019-.852c.423-.23.96-.39 1.615-.479 1.149-.158 2.06.005 2.732.488.671.483 1.074 1.21 1.207 2.181a4.128 4.128 0 0 1-.324 2.27 6.52 6.52 0 0 1-.661 1.136c-.271.38-.602.8-.994 1.257-.21.23-.426.462-.646.694-.21.23-.437.494-.68.79l4.221-.58.026 1.844-7.118.977-.214-1.56Zm8.151-7.433 2.021-.278.147 1.07c.245-.498.56-.88.948-1.144a3.008 3.008 0 0 1 1.28-.494c.882-.121 1.568.022 2.058.43.488.396.8 1.09.937 2.081l.703 5.127-2.08.286-.665-4.845c-.075-.545-.23-.902-.465-1.072-.236-.17-.526-.23-.873-.183a1.894 1.894 0 0 0-.682.215c-.178.105-.34.244-.488.415-.12.158-.216.343-.288.555-.063.2-.079.414-.048.642l.641 4.666-2.08.286-1.066-7.757Zm15.099 4.786c-.48.923-1.224 1.454-2.234 1.593-1.09.15-1.953-.105-2.588-.765-.636-.66-1.043-1.638-1.221-2.936a5.78 5.78 0 0 1-.004-1.68c.09-.527.253-.989.491-1.385.237-.406.55-.737.94-.992a3.275 3.275 0 0 1 1.37-.49 3.317 3.317 0 0 1 1.173.05c.405.086.804.304 1.195.654l-.498-3.626 2.08-.286 1.458 10.61-2.022.278-.14-1.025Zm-.449-2.937c-.068-.495-.167-.885-.297-1.17a1.597 1.597 0 0 0-.501-.673 1.228 1.228 0 0 0-.642-.26 2.282 2.282 0 0 0-.636-.004 1.66 1.66 0 0 0-.635.224c-.186.116-.346.28-.478.49a2.183 2.183 0 0 0-.255.791 4.03 4.03 0 0 0 .017 1.118c.064.466.158.852.28 1.158.132.295.285.531.461.709.175.168.367.282.578.344.209.053.427.063.655.032.495-.068.882-.268 1.16-.599.17-.225.281-.483.332-.772.06-.301.059-.674-.002-1.12l-.037-.268Zm6.455-7.654 3.79-.52c.812-.112 1.494-.11 2.044.007.56.105 1.014.29 1.364.554.358.254.624.576.798.966.184.378.305.785.365 1.221.064.466.06.92-.01 1.364-.06.443-.226.85-.498 1.22-.264.359-.645.669-1.145.929-.489.259-1.13.443-1.922.552l-1.665.228.52 3.79-2.184.3-1.457-10.61Zm4.458 4.46c.387-.053.698-.136.935-.25.247-.114.435-.25.564-.41.13-.16.206-.341.228-.546.031-.216.03-.443-.002-.681a2.196 2.196 0 0 0-.18-.642A1.036 1.036 0 0 0 66 61.13a1.538 1.538 0 0 0-.65-.214c-.257-.035-.579-.026-.965.027l-1.575.216.432 3.15 1.59-.218Zm4.9-5.745 2.08-.285 1.456 10.61-2.08.286-1.457-10.61Zm9.86 8.457a4.07 4.07 0 0 1-.923.99c-.347.27-.822.446-1.427.53a3.696 3.696 0 0 1-1.014.002 2.385 2.385 0 0 1-.874-.304 2.108 2.108 0 0 1-.648-.637c-.18-.279-.297-.62-.353-1.027-.073-.535-.014-.987.177-1.357.192-.37.468-.674.828-.916.36-.241.773-.434 1.238-.579.475-.145.958-.262 1.45-.35l.99-.182-.053-.386c-.065-.475-.244-.784-.536-.926a1.593 1.593 0 0 0-.958-.14c-.822.112-1.25.489-1.283 1.13l-1.927.082c.028-.831.304-1.465.83-1.9.524-.446 1.271-.735 2.242-.868.595-.082 1.11-.077 1.547.014.435.082.795.24 1.08.473a2.3 2.3 0 0 1 .684.905c.17.36.288.778.353 1.254l.674 4.904-1.962.27-.135-.982Zm-.385-2.475-.915.171a5.35 5.35 0 0 0-1.037.279c-.258.106-.454.223-.587.353a.753.753 0 0 0-.234.395c-.03.146-.034.303-.01.471.035.258.152.449.35.573.2.124.457.164.774.12.535-.073.954-.257 1.257-.55.17-.165.299-.36.39-.584.088-.234.11-.51.067-.827l-.055-.401Zm10.827-.82c.049.942-.17 1.729-.66 2.361-.48.621-1.28 1.009-2.399 1.162-.654.09-1.232.069-1.735-.064a3.114 3.114 0 0 1-1.288-.671 3.594 3.594 0 0 1-.846-1.201 5.996 5.996 0 0 1-.454-1.649 5.336 5.336 0 0 1 .023-1.714c.107-.54.3-1.01.578-1.412a3.305 3.305 0 0 1 1.087-1.012c.449-.264.98-.437 1.594-.522.525-.072.99-.065 1.396.02.414.075.77.213 1.071.414.3.2.548.46.742.776.194.306.343.655.447 1.044l-2.057.57c-.104-.39-.261-.69-.472-.904-.213-.223-.537-.305-.973-.245-.317.043-.57.149-.759.316a1.47 1.47 0 0 0-.431.604 2.65 2.65 0 0 0-.145.823 5.748 5.748 0 0 0 .253 1.843c.09.29.21.54.36.752.151.212.34.373.567.483.225.1.497.128.814.085.416-.057.722-.22.917-.49.195-.268.282-.629.26-1.08l2.11-.29Zm8.648-.794c-.02.89-.28 1.603-.782 2.136-.493.522-1.275.856-2.345 1.003-1.288.177-2.308-.046-3.06-.67-.742-.625-1.202-1.59-1.382-2.899-.09-.654-.075-1.246.044-1.777.117-.541.32-1.013.608-1.416a3.357 3.357 0 0 1 1.123-.972c.45-.253.962-.42 1.537-.498 1.188-.164 2.127.056 2.815.658.698.6 1.127 1.48 1.286 2.64l.114.831-5.38.74c.106.62.332 1.09.678 1.405.345.306.815.418 1.41.336.822-.112 1.26-.526 1.313-1.24l2.02-.277Zm-2.235-2.055c-.074-.535-.265-.933-.573-1.194-.299-.261-.725-.354-1.28-.278a1.855 1.855 0 0 0-.71.234 1.588 1.588 0 0 0-.484.445 1.63 1.63 0 0 0-.253.58 1.99 1.99 0 0 0-.044.672l3.344-.46Z" fill="#fff"/><defs><linearGradient id="a" x1="55.606" y1="1.685" x2="73.646" y2="133.34" gradientUnits="userSpaceOnUse"><stop stop-color="#fff" stop-opacity=".6"/><stop offset="1" stop-color="#fff" stop-opacity=".3"/></linearGradient><linearGradient id="b" x1="55.606" y1="1.685" x2="73.646" y2="133.34" gradientUnits="userSpaceOnUse"><stop stop-color="#fff" stop-opacity=".6"/><stop offset="1" stop-color="#fff" stop-opacity=".3"/></linearGradient><linearGradient id="c" x1="55.606" y1="1.685" x2="73.646" y2="133.34" gradientUnits="userSpaceOnUse"><stop stop-color="#fff" stop-opacity=".6"/><stop offset="1" stop-color="#fff" stop-opacity=".3"/></linearGradient><linearGradient id="d" x1="55.606" y1="1.685" x2="73.646" y2="133.34" gradientUnits="userSpaceOnUse"><stop stop-color="#fff" stop-opacity=".6"/><stop offset="1" stop-color="#fff" stop-opacity=".3"/></linearGradient><linearGradient id="e" x1="55.606" y1="1.685" x2="73.646" y2="133.34" gradientUnits="userSpaceOnUse"><stop stop-color="#fff" stop-opacity=".6"/><stop offset="1" stop-color="#fff" stop-opacity=".3"/></linearGradient><linearGradient id="f" x1="55.606" y1="1.685" x2="73.646" y2="133.34" gradientUnits="userSpaceOnUse"><stop stop-color="#fff" stop-opacity=".6"/><stop offset="1" stop-color="#fff" stop-opacity=".3"/></linearGradient><linearGradient id="g" x1="55.606" y1="1.685" x2="73.646" y2="133.34" gradientUnits="userSpaceOnUse"><stop stop-color="#fff" stop-opacity=".6"/><stop offset="1" stop-color="#fff" stop-opacity=".3"/></linearGradient><linearGradient id="h" x1="55.606" y1="1.685" x2="73.646" y2="133.34" gradientUnits="userSpaceOnUse"><stop stop-color="#fff" stop-opacity=".6"/><stop offset="1" stop-color="#fff" stop-opacity=".3"/></linearGradient><linearGradient id="i" x1="55.606" y1="1.685" x2="73.646" y2="133.34" gradientUnits="userSpaceOnUse"><stop stop-color="#fff" stop-opacity=".6"/><stop offset="1" stop-color="#fff" stop-opacity=".3"/></linearGradient><linearGradient id="j" x1="55.606" y1="1.685" x2="73.646" y2="133.34" gradientUnits="userSpaceOnUse"><stop stop-color="#fff" stop-opacity=".6"/><stop offset="1" stop-color="#fff" stop-opacity=".3"/></linearGradient><linearGradient id="k" x1="55.606" y1="1.685" x2="73.646" y2="133.34" gradientUnits="userSpaceOnUse"><stop stop-color="#fff" stop-opacity=".6"/><stop offset="1" stop-color="#fff" stop-opacity=".3"/></linearGradient><linearGradient id="l" x1="55.606" y1="1.685" x2="73.646" y2="133.34" gradientUnits="userSpaceOnUse"><stop stop-color="#fff" stop-opacity=".6"/><stop offset="1" stop-color="#fff" stop-opacity=".3"/></linearGradient><linearGradient id="m" x1="55.606" y1="1.685" x2="73.646" y2="133.34" gradientUnits="userSpaceOnUse"><stop stop-color="#fff" stop-opacity=".6"/><stop offset="1" stop-color="#fff" stop-opacity=".3"/></linearGradient><linearGradient id="n" x1="55.606" y1="1.685" x2="73.646" y2="133.34" gradientUnits="userSpaceOnUse"><stop stop-color="#fff" stop-opacity=".6"/><stop offset="1" stop-color="#fff" stop-opacity=".3"/></linearGradient><linearGradient id="o" x1="55.606" y1="1.685" x2="73.646" y2="133.34" gradientUnits="userSpaceOnUse"><stop stop-color="#fff" stop-opacity=".6"/><stop offset="1" stop-color="#fff" stop-opacity=".3"/></linearGradient><linearGradient id="p" x1="55.606" y1="1.685" x2="73.646" y2="133.34" gradientUnits="userSpaceOnUse"><stop stop-color="#fff" stop-opacity=".6"/><stop offset="1" stop-color="#fff" stop-opacity=".3"/></linearGradient><linearGradient id="q" x1="55.606" y1="1.685" x2="73.646" y2="133.34" gradientUnits="userSpaceOnUse"><stop stop-color="#fff" stop-opacity=".6"/><stop offset="1" stop-color="#fff" stop-opacity=".3"/></linearGradient><linearGradient id="r" x1="55.606" y1="1.685" x2="73.646" y2="133.34" gradientUnits="userSpaceOnUse"><stop stop-color="#fff" stop-opacity=".6"/><stop offset="1" stop-color="#fff" stop-opacity=".3"/></linearGradient><linearGradient id="s" x1="55.606" y1="1.685" x2="73.646" y2="133.34" gradientUnits="userSpaceOnUse"><stop stop-color="#fff" stop-opacity=".6"/><stop offset="1" stop-color="#fff" stop-opacity=".3"/></linearGradient><linearGradient id="t" x1="55.606" y1="1.685" x2="73.646" y2="133.34" gradientUnits="userSpaceOnUse"><stop stop-color="#fff" stop-opacity=".6"/><stop offset="1" stop-color="#fff" stop-opacity=".3"/></linearGradient><linearGradient id="u" x1="55.606" y1="1.685" x2="73.646" y2="133.34" gradientUnits="userSpaceOnUse"><stop stop-color="#fff" stop-opacity=".6"/><stop offset="1" stop-color="#fff" stop-opacity=".3"/></linearGradient><linearGradient id="v" x1="55.606" y1="1.685" x2="73.646" y2="133.34" gradientUnits="userSpaceOnUse"><stop stop-color="#fff" stop-opacity=".6"/><stop offset="1" stop-color="#fff" stop-opacity=".3"/></linearGradient><linearGradient id="w" x1="55.606" y1="1.685" x2="73.646" y2="133.34" gradientUnits="userSpaceOnUse"><stop stop-color="#fff" stop-opacity=".6"/><stop offset="1" stop-color="#fff" stop-opacity=".3"/></linearGradient><linearGradient id="x" x1="55.606" y1="1.685" x2="73.646" y2="133.34" gradientUnits="userSpaceOnUse"><stop stop-color="#fff" stop-opacity=".6"/><stop offset="1" stop-color="#fff" stop-opacity=".3"/></linearGradient><linearGradient id="y" x1="55.606" y1="1.685" x2="73.646" y2="133.34" gradientUnits="userSpaceOnUse"><stop stop-color="#fff" stop-opacity=".6"/><stop offset="1" stop-color="#fff" stop-opacity=".3"/></linearGradient><linearGradient id="z" x1="55.606" y1="1.685" x2="73.646" y2="133.34" gradientUnits="userSpaceOnUse"><stop stop-color="#fff" stop-opacity=".6"/><stop offset="1" stop-color="#fff" stop-opacity=".3"/></linearGradient><linearGradient id="A" x1="55.606" y1="1.685" x2="73.646" y2="133.34" gradientUnits="userSpaceOnUse"><stop stop-color="#fff" stop-opacity=".6"/><stop offset="1" stop-color="#fff" stop-opacity=".3"/></linearGradient><linearGradient id="B" x1="55.606" y1="1.685" x2="73.646" y2="133.34" gradientUnits="userSpaceOnUse"><stop stop-color="#fff" stop-opacity=".6"/><stop offset="1" stop-color="#fff" stop-opacity=".3"/></linearGradient><linearGradient id="C" x1="55.606" y1="1.685" x2="73.646" y2="133.34" gradientUnits="userSpaceOnUse"><stop stop-color="#fff" stop-opacity=".6"/><stop offset="1" stop-color="#fff" stop-opacity=".3"/></linearGradient><linearGradient id="D" x1="55.606" y1="1.685" x2="73.646" y2="133.34" gradientUnits="userSpaceOnUse"><stop stop-color="#fff" stop-opacity=".6"/><stop offset="1" stop-color="#fff" stop-opacity=".3"/></linearGradient><linearGradient id="E" x1="55.606" y1="1.685" x2="73.646" y2="133.34" gradientUnits="userSpaceOnUse"><stop stop-color="#fff" stop-opacity=".6"/><stop offset="1" stop-color="#fff" stop-opacity=".3"/></linearGradient><linearGradient id="F" x1="55.606" y1="1.685" x2="73.646" y2="133.34" gradientUnits="userSpaceOnUse"><stop stop-color="#fff" stop-opacity=".6"/><stop offset="1" stop-color="#fff" stop-opacity=".3"/></linearGradient></defs></svg>