<svg width="15" height="17" fill="none" preserveAspectRatio="none" xmlns="http://www.w3.org/2000/svg"><path d="M13.926 9.89c-.077.079-.368.416-.638.694-1.587 1.747-5.725 4.606-7.89 5.479-.33.14-1.161.437-1.606.456-.425 0-.831-.098-1.218-.297a2.55 2.55 0 0 1-1.083-1.23c-.136-.359-.349-1.43-.349-1.45-.212-1.17-.329-3.075-.329-5.18 0-2.006.117-3.833.291-5.023.02-.019.232-1.35.464-1.806C1.994.698 2.826.182 3.716.182h.076c.58.02 1.799.537 1.799.556 2.05.874 6.092 3.593 7.717 5.4 0 0 .457.464.656.754.31.417.464.933.464 1.449 0 .575-.173 1.112-.502 1.549Z" fill="#00D1FF"/></svg>