<svg width="593" height="212" fill="none" preserveAspectRatio="none" xmlns="http://www.w3.org/2000/svg"><path opacity=".15" d="M5.28 124.05c-.697-15.421 5.35-27.383 17.71-36.873 12.395-9.514 31.145-16.545 55.831-22.004 49.368-10.918 122.216-15.5 214.746-21.317 92.53-5.817 165.379-10.395 215.452-5.73 25.039 2.333 44.316 6.974 57.499 14.88 13.147 7.886 20.238 19.022 20.936 34.443.697 15.408-5.8 27.399-18.745 36.932-12.976 9.556-32.425 16.631-57.575 22.12-50.296 10.976-123.146 15.558-211.967 21.142-88.82 5.584-161.67 10.162-212.672 5.555-25.503-2.304-45.48-6.901-59.244-14.776-13.731-7.855-21.273-18.964-21.97-34.372Z" stroke="url(#a)"/><path opacity=".15" d="M6.001 136.027c-1.154-15.382 4.534-27.586 16.607-37.579 12.105-10.02 30.635-17.818 55.144-24.29 49.015-12.945 121.683-20.523 213.984-30.148s164.97-17.2 215.15-14.6c25.093 1.3 44.497 5.144 57.905 12.503 13.374 7.34 20.79 18.176 21.944 33.559 1.154 15.369-4.984 27.621-17.639 37.681-12.685 10.084-31.912 17.957-56.885 24.478-49.94 13.041-122.61 20.62-211.21 29.858C212.4 176.728 139.73 184.304 88.623 181.8c-25.556-1.252-45.657-5.024-59.646-12.327C15.02 162.188 7.154 151.396 6 136.027Z" stroke="url(#b)"/><path opacity=".15" d="M7.234 149.45c-1.666-15.316 3.61-27.773 15.342-38.318 11.762-10.572 30.018-19.223 54.293-26.826 48.545-15.204 120.905-26.142 212.814-40.033C381.592 30.38 453.952 19.446 504.181 19.72c25.117.137 44.634 3.079 58.278 9.811 13.608 6.715 21.379 17.2 23.045 32.517 1.664 15.303-4.06 27.829-16.37 38.468-12.339 10.664-31.289 19.42-56.026 27.093-49.467 15.344-121.829 26.282-210.053 39.617-88.225 13.334-160.586 24.27-211.737 24.134-25.578-.068-45.79-2.906-60.012-9.555-14.188-6.634-22.408-17.053-24.072-32.356Z" stroke="url(#c)"/><defs><linearGradient id="a" x1="299.19" y1="168.142" x2="291.353" y2="43.495" gradientUnits="userSpaceOnUse"><stop stop-color="#1F39FF"/><stop offset=".505" stop-color="#40DDB7" stop-opacity=".7"/><stop offset="1" stop-color="#61FF17"/></linearGradient><linearGradient id="b" x1="301.038" y1="167.988" x2="288.097" y2="43.887" gradientUnits="userSpaceOnUse"><stop stop-color="#1F39FF"/><stop offset=".505" stop-color="#40DDB7" stop-opacity=".7"/><stop offset="1" stop-color="#61FF17"/></linearGradient><linearGradient id="c" x1="303.109" y1="167.724" x2="284.492" y2="44.552" gradientUnits="userSpaceOnUse"><stop stop-color="#1F39FF"/><stop offset=".505" stop-color="#40DDB7" stop-opacity=".7"/><stop offset="1" stop-color="#61FF17"/></linearGradient></defs></svg>