<svg width="2759" height="1418" viewBox="0 0 2759 1418" fill="none" preserveAspectRatio="none" xmlns="http://www.w3.org/2000/svg">
<path opacity="0.1" d="M2757.5 639C2757.5 769.7 2727.99 874.792 2671 958.949C2614.02 1043.11 2529.47 1106.46 2419.19 1153.52C2198.55 1247.67 1875.21 1276.5 1464.5 1276.5C1053.79 1276.5 730.446 1248.38 509.808 1154.58C399.528 1107.7 314.983 1044.44 257.998 960.15C201.014 875.861 171.5 770.413 171.5 639C171.5 507.607 203.062 402.166 262.61 317.875C322.165 233.575 409.799 170.308 522.146 123.42C746.908 29.6182 1070.26 1.5 1464.5 1.5C1858.74 1.5 2182.09 30.3294 2406.85 124.487C2519.2 171.552 2606.84 234.909 2666.39 319.077C2725.94 403.235 2757.5 508.321 2757.5 639Z" stroke="url(#paint0_linear)" stroke-width="3"/>
<path opacity="0.1" d="M2707.5 679C2707.5 809.7 2677.99 914.792 2621 998.949C2564.02 1083.11 2479.47 1146.46 2369.19 1193.52C2148.55 1287.67 1825.21 1316.5 1414.5 1316.5C1003.79 1316.5 680.446 1288.38 459.808 1194.58C349.528 1147.7 264.983 1084.44 207.998 1000.15C151.014 915.861 121.5 810.413 121.5 679C121.5 547.607 153.062 442.166 212.61 357.875C272.165 273.575 359.799 210.308 472.146 163.42C696.908 69.6182 1020.26 41.5 1414.5 41.5C1808.74 41.5 2132.09 70.3294 2356.85 164.487C2469.2 211.552 2556.84 274.909 2616.39 359.077C2675.94 443.235 2707.5 548.321 2707.5 679Z" stroke="url(#paint1_linear)" stroke-width="3"/>
<path opacity="0.1" d="M2647.5 729C2647.5 859.7 2617.99 964.792 2561 1048.95C2504.02 1133.11 2419.47 1196.46 2309.19 1243.52C2088.55 1337.67 1765.21 1366.5 1354.5 1366.5C943.79 1366.5 620.446 1338.38 399.808 1244.58C289.528 1197.7 204.983 1134.44 147.998 1050.15C91.0138 965.861 61.5 860.413 61.5 729C61.5 597.607 93.0618 492.166 152.61 407.875C212.165 323.575 299.799 260.308 412.146 213.42C636.908 119.618 960.262 91.5 1354.5 91.5C1748.74 91.5 2072.09 120.329 2296.85 214.487C2409.2 261.552 2496.84 324.909 2556.39 409.077C2615.94 493.235 2647.5 598.321 2647.5 729Z" stroke="url(#paint2_linear)" stroke-width="3"/>
<path opacity="0.1" d="M2587.5 779C2587.5 909.7 2557.99 1014.79 2501 1098.95C2444.02 1183.11 2359.47 1246.46 2249.19 1293.52C2028.55 1387.67 1705.21 1416.5 1294.5 1416.5C883.79 1416.5 560.446 1388.38 339.808 1294.58C229.528 1247.7 144.983 1184.44 87.9976 1100.15C31.0138 1015.86 1.5 910.413 1.5 779C1.5 647.607 33.0618 542.166 92.6102 457.875C152.165 373.575 239.799 310.308 352.146 263.42C576.908 169.618 900.262 141.5 1294.5 141.5C1688.74 141.5 2012.09 170.329 2236.85 264.487C2349.2 311.552 2436.84 374.909 2496.39 459.077C2555.94 543.235 2587.5 648.321 2587.5 779Z" stroke="url(#paint3_linear)" stroke-width="3"/>
<defs>
<linearGradient id="paint0_linear" x1="1464.5" y1="0" x2="1464.5" y2="1278" gradientUnits="userSpaceOnUse">
<stop stop-color="#1F39FF"/>
<stop offset="0.505208" stop-color="#40DDB7" stop-opacity="0.7"/>
<stop offset="1" stop-color="#FFF617"/>
</linearGradient>
<linearGradient id="paint1_linear" x1="1414.5" y1="40" x2="1414.5" y2="1318" gradientUnits="userSpaceOnUse">
<stop stop-color="#1F39FF"/>
<stop offset="0.505208" stop-color="#40DDB7" stop-opacity="0.7"/>
<stop offset="1" stop-color="#FFF617"/>
</linearGradient>
<linearGradient id="paint2_linear" x1="1354.5" y1="90" x2="1354.5" y2="1368" gradientUnits="userSpaceOnUse">
<stop stop-color="#1F39FF"/>
<stop offset="0.505208" stop-color="#40DDB7" stop-opacity="0.7"/>
<stop offset="1" stop-color="#FFF617"/>
</linearGradient>
<linearGradient id="paint3_linear" x1="1294.5" y1="140" x2="1294.5" y2="1418" gradientUnits="userSpaceOnUse">
<stop stop-color="#1F39FF"/>
<stop offset="0.505208" stop-color="#40DDB7" stop-opacity="0.7"/>
<stop offset="1" stop-color="#FFF617"/>
</linearGradient>
</defs>
</svg>
