<svg width="128" height="130" viewBox="0 0 128 130" fill="none" xmlns="http://www.w3.org/2000/svg">
<path d="M7.43086 84.3641C7.77189 84.2236 7.98986 84.0297 8.08476 83.7823C8.17793 83.5296 8.16133 83.2102 8.03496 82.8243C7.97438 82.6393 7.90477 82.4893 7.82613 82.3745C7.7422 82.2615 7.65547 82.1756 7.56592 82.1171C7.47108 82.0602 7.37343 82.0306 7.27297 82.0283C7.17078 82.0206 7.06671 82.0341 6.96074 82.0686C6.81239 82.117 6.69281 82.2174 6.602 82.3699C6.5059 82.5241 6.47717 82.7587 6.51583 83.0738L6.62221 83.8554C6.66443 84.1634 6.67951 84.4423 6.66744 84.692C6.65537 84.9417 6.60821 85.1647 6.52595 85.3613C6.43667 85.5542 6.30699 85.7223 6.13692 85.8655C5.96685 86.0087 5.74671 86.1244 5.47649 86.2125C5.20628 86.3005 4.95055 86.3254 4.7093 86.287C4.46631 86.2434 4.24478 86.1488 4.04471 86.0034C3.84291 85.8527 3.66343 85.6538 3.50626 85.4066C3.34381 85.1612 3.20978 84.8772 3.10419 84.5547C2.96916 84.1423 2.90433 83.7831 2.90969 83.4771C2.91504 83.1711 2.9695 82.9076 3.07305 82.6866C3.17131 82.4673 3.31077 82.2843 3.49143 82.1377C3.67037 81.9857 3.86678 81.8602 4.08065 81.7613L4.58982 82.8328C4.29626 82.9929 4.1083 83.1799 4.02594 83.394C3.94185 83.6028 3.95519 83.8764 4.06598 84.2148C4.13176 84.4157 4.20483 84.5762 4.2852 84.6963C4.35853 84.8128 4.43732 84.9012 4.52157 84.9615C4.60052 85.0235 4.68227 85.0583 4.76683 85.0659C4.85139 85.0734 4.93341 85.0642 5.01289 85.0383C5.22482 84.9692 5.36472 84.8592 5.43261 84.7084C5.49876 84.5522 5.51424 84.3219 5.47904 84.0174L5.37558 83.191C5.29664 82.538 5.34818 82.0238 5.53022 81.6485C5.70695 81.2749 6.05229 81.0044 6.56622 80.8368C6.81524 80.7556 7.06129 80.7281 7.30438 80.7542C7.54044 80.7767 7.76824 80.8545 7.98778 80.9878C8.20028 81.1174 8.39393 81.3059 8.56871 81.5532C8.7488 81.7987 8.89943 82.1065 9.0206 82.4766C9.27333 83.2485 9.30296 83.8942 9.10949 84.4137C8.90899 84.9296 8.48014 85.3122 7.82295 85.5616L7.43086 84.3641Z" fill="url(#paint0_linear)"/>
<path d="M6.83953 73.4753C6.90713 73.9151 6.89593 74.3191 6.80592 74.6874C6.71592 75.0557 6.55452 75.3814 6.32174 75.6646C6.08896 75.9479 5.79263 76.1845 5.43276 76.3747C5.07204 76.5593 4.65203 76.6883 4.1727 76.7616C3.69338 76.835 3.25392 76.8375 2.85434 76.7693C2.4539 76.6955 2.10011 76.5584 1.79297 76.3578C1.48498 76.1517 1.23274 75.8865 1.03626 75.562C0.839773 75.2376 0.708152 74.8582 0.641393 74.4239C0.57379 73.9841 0.584992 73.5801 0.675 73.2118C0.765008 72.8435 0.926825 72.5205 1.16045 72.2428C1.39323 71.9596 1.68998 71.7257 2.0507 71.5411C2.41141 71.3564 2.83143 71.2274 3.31076 71.1541C3.79008 71.0807 4.22953 71.0782 4.62912 71.1464C5.02787 71.2092 5.38081 71.3409 5.68796 71.5414C5.99426 71.7365 6.24565 71.9963 6.44213 72.3207C6.63862 72.6451 6.77108 73.03 6.83953 73.4753ZM5.78298 73.6454C5.70355 73.1287 5.46809 72.7708 5.07662 72.5719C4.68514 72.373 4.16159 72.3237 3.50596 72.424C2.85585 72.5235 2.37392 72.7267 2.06019 73.0336C1.74095 73.3413 1.62104 73.7535 1.70048 74.2703C1.77991 74.787 2.01812 75.1445 2.41511 75.3426C2.80658 75.5415 3.32738 75.5912 3.9775 75.4917C4.63312 75.3913 5.1178 75.1877 5.43153 74.8809C5.74527 74.574 5.86242 74.1622 5.78298 73.6454Z" fill="url(#paint1_linear)"/>
<path d="M-3.40048e-07 66.0372L0.00740298 64.7942L4.90676 64.8232L4.92356 62.0034L5.99293 62.1432L5.96952 66.0726L-3.40048e-07 66.0372Z" fill="url(#paint2_linear)"/>
<path d="M0.672474 55.2525L0.860013 54.0826L7.10864 52.8158L6.89733 54.1339L5.45984 54.386L5.12966 56.4455L6.4166 57.1326L6.21321 58.4012L0.672474 55.2525ZM4.39286 54.5452L2.16446 54.9245L4.16438 55.9704L4.39286 54.5452Z" fill="url(#paint3_linear)"/>
<path d="M2.47748 46.7084L2.83227 45.648L7.32216 44.5579L3.61067 43.3214L3.99458 42.174L9.65699 44.0603L9.30485 45.1128L4.84403 46.2214L8.5238 47.4473L8.13989 48.5948L2.47748 46.7084Z" fill="url(#paint4_linear)"/>
<path d="M6.9966 35.4376L7.55095 34.3899L13.8761 35.1941L13.2515 36.3745L11.8091 36.1523L10.8331 37.9967L11.8305 39.06L11.2293 40.1961L6.9966 35.4376ZM10.7474 35.9609L8.51505 35.6055L10.072 37.2372L10.7474 35.9609Z" fill="url(#paint5_linear)"/>
<path d="M14.5057 23.7863L15.4663 22.7637L19.1496 24.8934L16.8171 21.3742L17.7205 20.4125L21.4194 22.4767L19.0111 18.9896L19.9259 18.0156L23.1723 23.27L22.3433 24.1527L18.3619 21.9499L20.8453 25.7475L20.0392 26.6058L14.5057 23.7863Z" fill="url(#paint6_linear)"/>
<path d="M29.5733 18.0496C29.2136 18.3126 28.8493 18.4893 28.4804 18.5798C28.1115 18.6702 27.7474 18.6779 27.3881 18.6027C27.0289 18.5275 26.6816 18.3746 26.3464 18.1439C26.0157 17.91 25.707 17.5978 25.4204 17.2075C25.1338 16.8172 24.9285 16.4295 24.8046 16.0443C24.6851 15.6559 24.6436 15.2794 24.68 14.9149C24.7209 14.5471 24.8401 14.2014 25.0377 13.8776C25.2353 13.5539 25.5117 13.2621 25.8669 13.0024C26.2266 12.7394 26.5909 12.5627 26.9598 12.4722C27.3287 12.3818 27.6905 12.3758 28.0453 12.4542C28.4045 12.5294 28.7495 12.684 29.0803 12.9179C29.411 13.1519 29.7197 13.464 30.0063 13.8543C30.2929 14.2446 30.4982 14.6323 30.6221 15.0175C30.7505 15.3994 30.7965 15.7726 30.7602 16.1371C30.7283 16.4983 30.6135 16.8407 30.4159 17.1645C30.2183 17.4882 29.9375 17.7833 29.5733 18.0496ZM28.934 17.1931C29.3566 16.8841 29.5659 16.5104 29.5619 16.072C29.5578 15.6337 29.3598 15.1476 28.9677 14.6137C28.579 14.0843 28.1758 13.7517 27.7581 13.6158C27.3371 13.4754 26.9153 13.5597 26.4927 13.8687C26.0701 14.1777 25.8624 14.5537 25.8698 14.9965C25.8738 15.4349 26.0702 15.9187 26.459 16.4481C26.851 16.982 27.2559 17.3169 27.6735 17.4528C28.0912 17.5887 28.5114 17.5021 28.934 17.1931Z" fill="url(#paint7_linear)"/>
<path d="M33.0439 8.53719L34.931 7.58352C35.3487 7.37244 35.717 7.24866 36.0359 7.2122C36.3572 7.16826 36.6352 7.18673 36.87 7.26761C37.1022 7.34353 37.2972 7.46316 37.4551 7.62652C37.6105 7.78492 37.7348 7.95591 37.8279 8.1395C38.0017 8.48187 38.0856 8.80106 38.0797 9.0971C38.0737 9.39313 37.9643 9.69466 37.7515 10.0017L39.9777 11.7103L38.7768 12.3172L36.8694 10.7748L35.8251 11.3026L36.8375 13.2972L35.7411 13.8513L33.0439 8.53719ZM36.2219 9.94241C36.396 9.85445 36.5314 9.76421 36.6281 9.67168C36.7223 9.57419 36.7854 9.47686 36.8173 9.37968C36.8517 9.27504 36.8573 9.16929 36.8344 9.06245C36.8114 8.95561 36.7709 8.84513 36.713 8.73101C36.6651 8.63673 36.6049 8.55496 36.5322 8.48568C36.4571 8.41145 36.3658 8.36093 36.2585 8.33412C36.1536 8.29983 36.0277 8.29799 35.8808 8.32859C35.7364 8.35172 35.5672 8.41229 35.3732 8.51029L34.605 8.89854L35.3567 10.3797L36.2219 9.94241Z" fill="url(#paint8_linear)"/>
<path d="M41.9911 4.42326L43.421 3.98229L46.1587 7.79225L46.3047 3.09296L47.6946 2.6643L49.4573 8.3555L48.3629 8.693L47.1878 4.89887L47.0609 9.09455L46.1343 9.38032L43.6516 5.99818L44.8243 9.78434L43.7539 10.1144L41.9911 4.42326Z" fill="url(#paint9_linear)"/>
<path d="M53.4085 1.44449L54.6445 1.28919L54.9328 3.57378L57.2804 3.27882L56.9921 0.994229L58.2281 0.838931L58.9739 6.74907L57.7379 6.90437L57.4245 4.42112L55.077 4.71608L55.3903 7.19933L54.1543 7.35463L53.4085 1.44449Z" fill="url(#paint10_linear)"/>
<path d="M66.2509 6.77052C65.8055 6.75104 65.4105 6.6614 65.066 6.50159C64.7215 6.34178 64.4327 6.12038 64.1997 5.8374C63.9666 5.55441 63.7917 5.2183 63.6749 4.82905C63.5636 4.44005 63.5186 4.00383 63.5399 3.52041C63.5611 3.03699 63.6442 2.60637 63.7891 2.22857C63.9395 1.85101 64.1433 1.53145 64.4002 1.26989C64.6628 1.00857 64.9726 0.813347 65.3298 0.684214C65.687 0.555081 66.0855 0.500132 66.5254 0.519365C66.9709 0.538843 67.3659 0.628486 67.7104 0.788295C68.0548 0.948105 68.3408 1.16938 68.5683 1.45212C68.8014 1.73511 68.9735 2.0711 69.0848 2.4601C69.196 2.84911 69.241 3.28532 69.2198 3.76874C69.1986 4.25217 69.1155 4.68278 68.9706 5.06059C68.8312 5.43863 68.6331 5.75844 68.3761 6.02C68.1247 6.2818 67.8204 6.47727 67.4632 6.6064C67.1061 6.73553 66.702 6.79024 66.2509 6.77052ZM66.2894 5.70329C66.8129 5.72618 67.2105 5.56541 67.4822 5.22099C67.754 4.87657 67.9044 4.37374 67.9334 3.7125C67.9622 3.05683 67.8564 2.54558 67.6158 2.17876C67.3755 1.80638 66.9937 1.60875 66.4702 1.58586C65.9468 1.56298 65.549 1.72652 65.277 2.0765C65.0053 2.42093 64.855 2.92097 64.8262 3.57665C64.7972 4.23788 64.9029 4.75191 65.1435 5.11873C65.384 5.48555 65.766 5.68041 66.2894 5.70329Z" fill="url(#paint11_linear)"/>
<path d="M74.8946 1.52422L76.115 1.77353L75.1324 6.56312L77.901 7.12867L77.5553 8.14809L73.6973 7.36001L74.8946 1.52422Z" fill="url(#paint12_linear)"/>
<path d="M83.697 3.69369L87.5306 5.06282L87.1728 6.0604L84.5121 5.11016L84.0726 6.33553L86.5758 7.22954L86.2152 8.23497L83.7119 7.34096L83.2161 8.72343L86.0421 9.7327L85.5662 10.6881L81.6854 9.30211L83.697 3.69369Z" fill="url(#paint13_linear)"/>
<path d="M97.0671 9.75502L98.1067 10.44L96.8351 12.3615L98.8095 13.6626L100.081 11.7411L101.121 12.4261L97.831 17.3969L96.7915 16.7119L98.1737 14.6233L96.1992 13.3222L94.817 15.4108L93.7775 14.7258L97.0671 9.75502Z" fill="url(#paint14_linear)"/>
<path d="M106.811 17.0234L107.682 17.8285L105.268 23.7178L104.287 22.8106L104.875 21.4776L103.342 20.0602L102.054 20.7468L101.11 19.8736L106.811 17.0234ZM105.335 20.5037L106.256 18.4437L104.274 19.5229L105.335 20.5037Z" fill="url(#paint15_linear)"/>
<path d="M112.972 29.6742C112.704 29.8466 112.425 29.968 112.134 30.0384C111.851 30.1098 111.565 30.1234 111.277 30.0792C110.996 30.036 110.718 29.9276 110.442 29.7542C110.169 29.5851 109.91 29.3424 109.664 29.026C109.387 28.6701 109.202 28.3099 109.109 27.9454C109.02 27.5853 109.011 27.2294 109.083 26.8778C109.159 26.5306 109.313 26.1932 109.545 25.8656C109.781 25.5346 110.084 25.2259 110.454 24.9395C110.837 24.6428 111.22 24.4274 111.602 24.2931C111.985 24.1589 112.357 24.1027 112.72 24.1246C113.083 24.1464 113.426 24.247 113.749 24.4264C114.072 24.6058 114.365 24.8646 114.628 25.2029C114.86 25.5017 115.024 25.79 115.12 26.0676C115.22 26.3497 115.257 26.62 115.232 26.8785C115.211 27.1414 115.137 27.3957 115.011 27.6414C114.885 27.8872 114.715 28.1275 114.503 28.3624L113.619 27.4841C113.858 27.2209 114.003 26.9577 114.052 26.6943C114.105 26.4353 114.015 26.1565 113.782 25.8577C113.488 25.4798 113.122 25.3028 112.682 25.3267C112.249 25.3516 111.773 25.5653 111.254 25.9677C110.73 26.3735 110.407 26.7887 110.286 27.2135C110.168 27.6426 110.246 28.033 110.519 28.3845C110.755 28.6877 111.005 28.8499 111.268 28.8711C111.54 28.8934 111.834 28.8095 112.152 28.6196L112.972 29.6742Z" fill="url(#paint16_linear)"/>
<path d="M118.975 31.7513L119.578 32.8484L117.482 33.9962L120.636 34.772L121.292 35.9642L118.374 35.3063L116.163 39.0199L115.495 37.8057L117.245 34.935L116.265 34.6624L114.345 35.7139L113.741 34.6167L118.975 31.7513Z" fill="url(#paint17_linear)"/>
<path d="M123.92 42.1088L124.32 43.2242L119.455 47.3366L119.004 46.0798L120.142 45.1682L119.438 43.2045L117.978 43.2206L117.544 42.011L123.92 42.1088ZM121.001 44.5161L122.771 43.113L120.513 43.1572L121.001 44.5161Z" fill="url(#paint18_linear)"/>
<path d="M125.632 51.9668L125.3 50.2039L126.36 50.0053L127.255 54.7611L126.195 54.9597L125.863 53.1968L121.056 54.0973L120.825 52.8673L125.632 51.9668Z" fill="url(#paint19_linear)"/>
<path d="M127.867 60.1091L127.901 61.3517L125.594 61.4148L125.659 63.775L127.966 63.7118L128 64.9545L122.033 65.1178L121.998 63.8752L124.506 63.8066L124.441 61.4464L121.934 61.5151L121.899 60.2724L127.867 60.1091Z" fill="url(#paint20_linear)"/>
<path d="M121.301 72.342C121.364 71.9015 121.492 71.518 121.685 71.1915C121.878 70.865 122.127 70.5999 122.432 70.3961C122.737 70.1922 123.089 70.0513 123.489 69.9734C123.888 69.9009 124.327 69.8988 124.807 69.9671C125.287 70.0354 125.709 70.1599 126.071 70.3408C126.433 70.5271 126.732 70.7606 126.968 71.0413C127.203 71.3276 127.367 71.6544 127.461 72.0217C127.555 72.389 127.571 72.7901 127.509 73.2251C127.446 73.6656 127.318 74.0491 127.125 74.3756C126.932 74.7021 126.683 74.9644 126.379 75.1628C126.074 75.3666 125.722 75.5047 125.323 75.5772C124.924 75.6497 124.485 75.6517 124.005 75.5835C123.525 75.5152 123.103 75.3906 122.741 75.2098C122.377 75.0345 122.078 74.8065 121.842 74.5257C121.605 74.2505 121.44 73.9292 121.346 73.5619C121.252 73.1946 121.237 72.788 121.301 72.342ZM122.362 72.4844C122.288 73.002 122.409 73.4126 122.726 73.7161C123.043 74.0196 123.53 74.2181 124.186 74.3115C124.838 74.4041 125.358 74.3489 125.747 74.1459C126.142 73.9436 126.376 73.5837 126.45 73.0661C126.524 72.5485 126.4 72.1376 126.078 71.8333C125.761 71.5297 125.277 71.3317 124.625 71.239C123.969 71.1456 123.446 71.2004 123.056 71.4035C122.667 71.6065 122.435 71.9668 122.362 72.4844Z" fill="url(#paint21_linear)"/>
<path d="M125.696 81.4976L125.354 82.5621L120.877 83.7039L124.602 84.8974L124.232 86.0493L118.548 84.2283L118.888 83.1718L123.336 82.0118L119.642 80.8285L120.012 79.6767L125.696 81.4976Z" fill="url(#paint22_linear)"/>
<path d="M101.885 111.988C102.037 112.091 102.157 112.211 102.247 112.346C102.338 112.49 102.395 112.637 102.42 112.788C102.449 112.943 102.446 113.1 102.411 113.258C102.373 113.421 102.303 113.578 102.199 113.73C102.098 113.876 101.979 113.994 101.844 114.084C101.705 114.178 101.558 114.239 101.403 114.268C101.253 114.3 101.096 114.297 100.932 114.259C100.774 114.225 100.618 114.156 100.467 114.052C100.31 113.945 100.185 113.822 100.091 113.684C100.002 113.548 99.9425 113.403 99.9136 113.248C99.8847 113.094 99.8892 112.935 99.9269 112.772C99.9614 112.614 100.029 112.461 100.13 112.314C100.234 112.163 100.355 112.04 100.494 111.946C100.63 111.857 100.775 111.798 100.93 111.769C101.085 111.74 101.244 111.741 101.406 111.771C101.569 111.808 101.729 111.881 101.885 111.988Z" fill="url(#paint23_linear)"/>
<path d="M96.0487 120.953L94.7916 121.578L92.0809 118.303L93.0408 122.412L91.8585 123L89.1103 119.781L90.1525 123.886L88.9553 124.482L87.7434 118.429L88.8283 117.889L91.7932 121.336L90.7887 116.914L91.8438 116.389L96.0487 120.953Z" fill="url(#paint24_linear)"/>
<path d="M84.3176 126.129L83.1332 126.514L81.2823 120.851L82.4666 120.466L84.3176 126.129Z" fill="url(#paint25_linear)"/>
<path d="M78.1292 127.925L77.0279 128.13L73.8941 124.742L74.6115 128.58L73.4197 128.802L72.3252 122.946L73.4183 122.742L76.5543 126.097L75.843 122.291L77.0348 122.069L78.1292 127.925Z" fill="url(#paint26_linear)"/>
<path d="M67.7734 129.416L66.6533 129.439L64.1144 125.587L64.1958 129.49L62.9837 129.516L62.8596 123.56L63.9713 123.537L66.5179 127.356L66.4372 123.486L67.6493 123.461L67.7734 129.416Z" fill="url(#paint27_linear)"/>
<path d="M57.3707 129.187L53.3343 128.653L53.4739 127.603L56.2753 127.973L56.4469 126.683L53.8112 126.334L53.952 125.276L56.5876 125.625L56.7811 124.169L53.8057 123.775L54.0696 122.741L58.1557 123.282L57.3707 129.187Z" fill="url(#paint28_linear)"/>
<path d="M48.4083 127.641L46.3748 127.06C45.9248 126.931 45.5704 126.772 45.3118 126.582C45.0462 126.396 44.855 126.194 44.738 125.976C44.6195 125.762 44.5581 125.542 44.5537 125.315C44.5477 125.094 44.5732 124.884 44.63 124.686C44.736 124.317 44.892 124.026 45.0981 123.813C45.3043 123.6 45.59 123.454 45.9552 123.373L45.4878 120.61L46.7818 120.98L47.1289 123.405L48.2542 123.727L48.8715 121.577L50.053 121.915L48.4083 127.641ZM47.0362 124.455C46.8487 124.401 46.6879 124.375 46.5539 124.377C46.4184 124.385 46.3058 124.413 46.2162 124.463C46.1197 124.516 46.0434 124.59 45.9875 124.684C45.9315 124.778 45.8859 124.886 45.8505 125.009C45.8214 125.111 45.8098 125.212 45.8158 125.312C45.8203 125.417 45.8528 125.516 45.9132 125.609C45.9667 125.705 46.0578 125.792 46.1863 125.869C46.308 125.95 46.4733 126.021 46.6823 126.08L47.5101 126.317L47.9685 124.721L47.0362 124.455Z" fill="url(#paint29_linear)"/>
<path d="M40.0159 120.564C40.1445 120.219 40.1502 119.927 40.0329 119.69C39.9105 119.45 39.6645 119.245 39.295 119.075C39.1178 118.993 38.9603 118.942 38.8225 118.922C38.6823 118.906 38.5603 118.911 38.4563 118.937C38.3501 118.968 38.2619 119.019 38.1919 119.091C38.1168 119.161 38.0559 119.246 38.0093 119.347C37.944 119.488 37.9365 119.644 37.9868 119.814C38.0348 119.99 38.1877 120.17 38.4455 120.356L39.0922 120.81C39.3473 120.988 39.5625 121.167 39.7378 121.345C39.9131 121.524 40.045 121.71 40.1335 121.904C40.2146 122.1 40.2499 122.309 40.2395 122.531C40.2292 122.753 40.1645 122.993 40.0455 123.25C39.9265 123.508 39.771 123.712 39.5787 123.863C39.3814 124.011 39.1614 124.108 38.9185 124.156C38.6705 124.201 38.4023 124.197 38.1138 124.144C37.8229 124.096 37.5231 124.001 37.2143 123.859C36.8195 123.678 36.5114 123.481 36.2902 123.269C36.0689 123.057 35.9123 122.838 35.8203 122.612C35.7259 122.391 35.6863 122.165 35.7013 121.933C35.7113 121.698 35.7526 121.469 35.8253 121.246L36.959 121.602C36.877 121.925 36.8867 122.19 36.988 122.396C37.0843 122.599 37.2945 122.775 37.6184 122.924C37.8108 123.013 37.9784 123.069 38.1213 123.091C38.2568 123.117 38.3754 123.119 38.4769 123.099C38.5762 123.083 38.6574 123.047 38.7204 122.99C38.7834 122.933 38.8324 122.867 38.8674 122.791C38.9607 122.589 38.975 122.412 38.9103 122.26C38.8405 122.105 38.6818 121.937 38.4341 121.756L37.7564 121.27C37.2229 120.884 36.88 120.497 36.728 120.108C36.5736 119.725 36.6095 119.288 36.8358 118.798C36.9454 118.561 37.0925 118.362 37.2769 118.202C37.4539 118.044 37.666 117.931 37.9132 117.861C38.153 117.793 38.4231 117.78 38.7237 117.82C39.0266 117.855 39.3552 117.954 39.7096 118.117C40.4487 118.457 40.9433 118.874 41.1935 119.369C41.4364 119.866 41.426 120.44 41.1625 121.091L40.0159 120.564Z" fill="url(#paint30_linear)"/>
<path d="M27.8298 114.863C27.7177 115.008 27.5915 115.122 27.4512 115.204C27.303 115.286 27.1525 115.336 26.9996 115.352C26.8432 115.372 26.6867 115.361 26.53 115.318C26.3689 115.271 26.2155 115.192 26.0696 115.08C25.9282 114.972 25.8166 114.848 25.7346 114.708C25.6482 114.564 25.5948 114.415 25.5744 114.259C25.5506 114.107 25.5619 113.951 25.6084 113.79C25.6515 113.634 25.7291 113.483 25.8412 113.337C25.9567 113.187 26.0863 113.069 26.2301 112.983C26.3704 112.901 26.5187 112.85 26.6751 112.83C26.8314 112.809 26.9901 112.822 27.1512 112.869C27.3079 112.912 27.4569 112.988 27.5983 113.096C27.7442 113.208 27.8603 113.336 27.9466 113.479C28.0286 113.619 28.0798 113.767 28.1002 113.923C28.1206 114.079 28.1115 114.237 28.0728 114.397C28.0263 114.557 27.9453 114.713 27.8298 114.863Z" fill="url(#paint31_linear)"/>
<path d="M31.1168 72.8678C31.4911 72.4329 31.8632 72.0184 32.233 71.6244C32.6015 71.2206 32.9729 70.8011 33.3472 70.3662C33.713 69.9425 34.029 69.5609 34.2953 69.2216C34.5715 68.8808 34.7946 68.5575 34.9646 68.2515C35.1345 67.9455 35.2507 67.652 35.313 67.3709C35.3839 67.0786 35.3969 66.7689 35.352 66.442C35.2935 66.016 35.1221 65.6862 34.8377 65.4528C34.5618 65.208 34.2158 65.1142 33.7997 65.1713C33.3044 65.2393 32.9287 65.407 32.6727 65.6743C32.4252 65.9304 32.275 66.38 32.222 67.0232L30.1683 67.0629C30.199 66.6246 30.2727 66.2057 30.3894 65.8061C30.5048 65.3966 30.6864 65.0285 30.9342 64.7018C31.1906 64.3637 31.5302 64.0799 31.9529 63.8503C32.3756 63.6206 32.9139 63.4609 33.5677 63.3712C34.7169 63.2134 35.6275 63.376 36.2995 63.8591C36.9714 64.3422 37.3741 65.0692 37.5074 66.0401C37.5645 66.4562 37.5631 66.85 37.5031 67.2216C37.4516 67.582 37.345 67.9449 37.1832 68.3103C37.0214 68.6757 36.8008 69.0542 36.5215 69.4458C36.2507 69.8262 35.9196 70.2451 35.5282 70.7026C35.3177 70.9334 35.1022 71.1649 34.8817 71.397C34.6711 71.6278 34.4448 71.891 34.2028 72.1867L38.4232 71.6072L38.4492 73.4508L31.331 74.4282L31.1168 72.8678ZM39.2684 65.4349L41.2894 65.1574L41.4363 66.2273C41.6809 65.7295 41.9969 65.3479 42.3844 65.0827C42.7819 64.8162 43.2085 64.6516 43.6642 64.5891C44.5459 64.468 45.2317 64.611 45.7217 65.0182C46.2103 65.4154 46.5226 66.1094 46.6586 67.1001L47.3625 72.227L45.2821 72.5126L44.6169 67.6681C44.5421 67.1232 44.387 66.766 44.1518 66.5964C43.9165 66.4268 43.6255 66.3658 43.2788 66.4134C43.0113 66.4502 42.7839 66.5218 42.5967 66.6282C42.4193 66.7333 42.2566 66.8718 42.1086 67.0435C41.9889 67.2012 41.8932 67.386 41.8213 67.5977C41.758 67.7982 41.742 68.0124 41.7733 68.2402L42.414 72.9064L40.3335 73.1921L39.2684 65.4349ZM54.3667 70.2206C53.8879 71.1443 53.1432 71.6755 52.1327 71.8143C51.0429 71.9639 50.1802 71.7089 49.5446 71.0492C48.9089 70.3895 48.502 69.4108 48.3238 68.113C48.2408 67.5086 48.2396 66.9486 48.3202 66.4328C48.4094 65.9058 48.5731 65.4443 48.8114 65.0482C49.0484 64.6421 49.3613 64.3115 49.7502 64.0562C50.1391 63.801 50.5961 63.6373 51.1212 63.5652C51.5076 63.5121 51.8985 63.5291 52.294 63.6161C52.6994 63.7018 53.0978 63.9196 53.489 64.2696L52.9911 60.6437L55.0716 60.358L56.5285 70.9684L54.5075 71.2459L54.3667 70.2206ZM53.9181 67.2843C53.8501 66.7889 53.7511 66.3988 53.6211 66.1138C53.501 65.8275 53.334 65.6031 53.1199 65.4407C52.9171 65.2869 52.7033 65.2002 52.4785 65.1806C52.2623 65.1497 52.0502 65.1485 51.8421 65.1771C51.6143 65.2084 51.4025 65.2829 51.2066 65.4006C51.0207 65.517 50.8615 65.6802 50.7288 65.8902C50.606 66.0988 50.5212 66.3628 50.4742 66.6822C50.4272 67.0015 50.4329 67.3742 50.4914 67.8002C50.5553 68.2658 50.6487 68.6517 50.7715 68.9579C50.9028 69.2527 51.0564 69.4891 51.2322 69.6668C51.4067 69.8346 51.5991 69.9495 51.8095 70.0115C52.0185 70.0635 52.2369 70.0739 52.4648 70.0426C52.9601 69.9746 53.3466 69.7752 53.6242 69.4443C53.7951 69.219 53.9061 68.9615 53.9572 68.6719C54.0168 68.371 54.016 67.9976 53.9548 67.5518L53.9181 67.2843ZM60.3731 59.6301L64.1626 59.1098C64.975 58.9982 65.6566 59.0005 66.2075 59.1166C66.767 59.2215 67.2214 59.4064 67.5707 59.6714C67.9285 59.9251 68.1947 60.2468 68.3694 60.6367C68.5526 61.0153 68.6741 61.4225 68.734 61.8585C68.7979 62.3241 68.7947 62.7787 68.7244 63.2224C68.664 63.6648 68.4978 64.0712 68.2256 64.4416C67.962 64.8008 67.5806 65.1106 67.0814 65.3709C66.5921 65.6299 65.9511 65.8138 65.1586 65.9226L63.4942 66.1511L64.0145 69.9406L61.83 70.2405L60.3731 59.6301ZM64.8313 64.0901C65.2176 64.037 65.5292 63.9539 65.766 63.8406C66.0127 63.726 66.2009 63.5891 66.3304 63.43C66.46 63.2709 66.5359 63.0889 66.5583 62.884C66.5891 62.6677 66.5882 62.4408 66.5556 62.203C66.5216 61.9553 66.4619 61.7414 66.3767 61.5614C66.2914 61.3813 66.1656 61.2371 65.9993 61.1287C65.833 61.0203 65.6163 60.9491 65.3492 60.9151C65.092 60.8798 64.7702 60.8886 64.3838 60.9417L62.8086 61.158L63.2412 64.3084L64.8313 64.0901ZM69.7301 58.3453L71.8106 58.0596L73.2674 68.6701L71.1869 68.9558L69.7301 58.3453ZM79.5915 66.8025C79.332 67.1914 79.024 67.5213 78.6676 67.7924C78.3211 68.062 77.8456 68.2383 77.2413 68.3213C76.8945 68.3689 76.5565 68.3699 76.2273 68.3243C75.9079 68.2773 75.6164 68.176 75.3528 68.0204C75.0991 67.8634 74.8832 67.6508 74.705 67.3826C74.5255 67.1044 74.4079 66.7622 74.3521 66.356C74.2786 65.8211 74.3377 65.3688 74.5292 64.9993C74.7207 64.6298 74.9967 64.3245 75.3573 64.0832C75.7178 63.8419 76.1304 63.649 76.595 63.5044C77.0696 63.3585 77.5532 63.2416 78.0458 63.1538L79.0354 62.9725L78.9823 62.5861C78.917 62.1106 78.7384 61.802 78.4464 61.6604C78.1644 61.5175 77.845 61.4705 77.4883 61.5195C76.6661 61.6324 76.2383 62.009 76.2051 62.6495L74.2785 62.7324C74.3056 61.9009 74.582 61.2675 75.1077 60.8319C75.632 60.3864 76.3795 60.0971 77.3504 59.9638C77.9449 59.8821 78.4603 59.8871 78.8968 59.9785C79.332 60.0601 79.6917 60.2176 79.9761 60.4511C80.2704 60.6832 80.4986 60.985 80.6606 61.3564C80.8312 61.7166 80.9492 62.1344 81.0145 62.6099L81.6878 67.5139L79.7262 67.7833L79.5915 66.8025ZM79.2062 64.3269L78.291 64.498C77.8578 64.5776 77.5122 64.6705 77.2542 64.7766C76.9963 64.8827 76.8005 65.0004 76.6668 65.1298C76.5417 65.2479 76.4639 65.3797 76.4334 65.5252C76.4029 65.6707 76.3993 65.8276 76.4224 65.9961C76.4577 66.2537 76.5748 66.4445 76.7735 66.5686C76.9723 66.6927 77.2301 66.733 77.5472 66.6895C78.0821 66.6161 78.5011 66.4324 78.8039 66.1384C78.9731 65.9739 79.1028 65.7794 79.1931 65.5551C79.2821 65.3208 79.3048 65.0451 79.2613 64.7281L79.2062 64.3269ZM90.0334 63.5064C90.082 64.4486 89.8621 65.2358 89.3736 65.8681C88.8936 66.4892 88.0938 66.8766 86.9744 67.0303C86.3205 67.1201 85.7422 67.0986 85.2394 66.9657C84.7367 66.8329 84.3073 66.6092 83.9512 66.2947C83.605 65.9789 83.3229 65.5785 83.1049 65.0937C82.887 64.6088 82.7358 64.0593 82.6515 63.445C82.5671 62.8308 82.5745 62.2595 82.6735 61.7311C82.7811 61.1914 82.9739 60.7208 83.2519 60.3193C83.5285 59.9078 83.8909 59.5704 84.3393 59.307C84.7876 59.0435 85.3189 58.8696 85.9331 58.7853C86.4582 58.7132 86.9234 58.72 87.3289 58.8056C87.7428 58.88 88.0999 59.0177 88.4 59.2188C88.7001 59.4198 88.9476 59.6785 89.1425 59.995C89.336 60.3015 89.4847 60.6495 89.5887 61.039L87.5321 61.609C87.4281 61.2196 87.2707 60.9182 87.0597 60.7049C86.8474 60.4817 86.5232 60.4 86.0873 60.4599C85.7703 60.5034 85.5173 60.6088 85.3283 60.7761C85.1379 60.9334 84.994 61.1349 84.8965 61.3804C84.8089 61.6246 84.7607 61.8987 84.752 62.2027C84.7419 62.4968 84.7586 62.8024 84.8022 63.1194C84.8471 63.4464 84.9147 63.755 85.005 64.0454C85.0954 64.3359 85.2156 64.5868 85.3658 64.7984C85.516 65.0099 85.7046 65.1707 85.9317 65.2809C86.1574 65.3811 86.4288 65.4095 86.7458 65.3659C87.1619 65.3088 87.4676 65.1457 87.6628 64.8766C87.858 64.6076 87.9448 64.2474 87.9232 63.7962L90.0334 63.5064ZM98.6809 62.7127C98.6619 63.6036 98.4013 64.3157 97.8992 64.8489C97.4056 65.3709 96.6239 65.7054 95.5539 65.8523C94.266 66.0291 93.2461 65.8058 92.4943 65.1823C91.7524 64.5574 91.2917 63.5911 91.1121 62.2833C91.0223 61.6295 91.0369 61.037 91.1557 60.5059C91.2732 59.9649 91.4759 59.4929 91.7638 59.09C92.0616 58.6857 92.436 58.3618 92.887 58.1182C93.3367 57.8646 93.8489 57.6984 94.4235 57.6195C95.6123 57.4563 96.5509 57.6757 97.2392 58.2776C97.9374 58.8782 98.366 59.7581 98.5252 60.9172L98.6395 61.7494L93.2599 62.4881C93.3655 63.1095 93.5913 63.5781 93.9375 63.894C94.2823 64.1999 94.7519 64.3121 95.3463 64.2304C96.1686 64.1175 96.6065 63.7041 96.6599 62.9902L98.6809 62.7127ZM96.4456 60.6577C96.3721 60.1227 96.1812 59.725 95.8729 59.4645C95.5745 59.2027 95.148 59.1098 94.5932 59.186C94.3158 59.2241 94.0792 59.302 93.8834 59.4197C93.6875 59.5375 93.5262 59.6858 93.3994 59.8647C93.2811 60.0324 93.1966 60.2256 93.1459 60.4446C93.0939 60.6536 93.0792 60.8777 93.1019 61.1168L96.4456 60.6577Z" fill="white"/>
<defs>
<linearGradient id="paint0_linear" x1="55.6057" y1="1.68508" x2="73.6456" y2="133.34" gradientUnits="userSpaceOnUse">
<stop stop-color="white" stop-opacity="0.6"/>
<stop offset="1" stop-color="white" stop-opacity="0.3"/>
</linearGradient>
<linearGradient id="paint1_linear" x1="55.6057" y1="1.68508" x2="73.6456" y2="133.34" gradientUnits="userSpaceOnUse">
<stop stop-color="white" stop-opacity="0.6"/>
<stop offset="1" stop-color="white" stop-opacity="0.3"/>
</linearGradient>
<linearGradient id="paint2_linear" x1="55.6057" y1="1.68508" x2="73.6456" y2="133.34" gradientUnits="userSpaceOnUse">
<stop stop-color="white" stop-opacity="0.6"/>
<stop offset="1" stop-color="white" stop-opacity="0.3"/>
</linearGradient>
<linearGradient id="paint3_linear" x1="55.6057" y1="1.68508" x2="73.6456" y2="133.34" gradientUnits="userSpaceOnUse">
<stop stop-color="white" stop-opacity="0.6"/>
<stop offset="1" stop-color="white" stop-opacity="0.3"/>
</linearGradient>
<linearGradient id="paint4_linear" x1="55.6057" y1="1.68508" x2="73.6456" y2="133.34" gradientUnits="userSpaceOnUse">
<stop stop-color="white" stop-opacity="0.6"/>
<stop offset="1" stop-color="white" stop-opacity="0.3"/>
</linearGradient>
<linearGradient id="paint5_linear" x1="55.6057" y1="1.68508" x2="73.6456" y2="133.34" gradientUnits="userSpaceOnUse">
<stop stop-color="white" stop-opacity="0.6"/>
<stop offset="1" stop-color="white" stop-opacity="0.3"/>
</linearGradient>
<linearGradient id="paint6_linear" x1="55.6057" y1="1.68508" x2="73.6456" y2="133.34" gradientUnits="userSpaceOnUse">
<stop stop-color="white" stop-opacity="0.6"/>
<stop offset="1" stop-color="white" stop-opacity="0.3"/>
</linearGradient>
<linearGradient id="paint7_linear" x1="55.6057" y1="1.68508" x2="73.6456" y2="133.34" gradientUnits="userSpaceOnUse">
<stop stop-color="white" stop-opacity="0.6"/>
<stop offset="1" stop-color="white" stop-opacity="0.3"/>
</linearGradient>
<linearGradient id="paint8_linear" x1="55.6057" y1="1.68508" x2="73.6456" y2="133.34" gradientUnits="userSpaceOnUse">
<stop stop-color="white" stop-opacity="0.6"/>
<stop offset="1" stop-color="white" stop-opacity="0.3"/>
</linearGradient>
<linearGradient id="paint9_linear" x1="55.6057" y1="1.68508" x2="73.6456" y2="133.34" gradientUnits="userSpaceOnUse">
<stop stop-color="white" stop-opacity="0.6"/>
<stop offset="1" stop-color="white" stop-opacity="0.3"/>
</linearGradient>
<linearGradient id="paint10_linear" x1="55.6057" y1="1.68508" x2="73.6456" y2="133.34" gradientUnits="userSpaceOnUse">
<stop stop-color="white" stop-opacity="0.6"/>
<stop offset="1" stop-color="white" stop-opacity="0.3"/>
</linearGradient>
<linearGradient id="paint11_linear" x1="55.6057" y1="1.68508" x2="73.6456" y2="133.34" gradientUnits="userSpaceOnUse">
<stop stop-color="white" stop-opacity="0.6"/>
<stop offset="1" stop-color="white" stop-opacity="0.3"/>
</linearGradient>
<linearGradient id="paint12_linear" x1="55.6057" y1="1.68508" x2="73.6456" y2="133.34" gradientUnits="userSpaceOnUse">
<stop stop-color="white" stop-opacity="0.6"/>
<stop offset="1" stop-color="white" stop-opacity="0.3"/>
</linearGradient>
<linearGradient id="paint13_linear" x1="55.6057" y1="1.68508" x2="73.6456" y2="133.34" gradientUnits="userSpaceOnUse">
<stop stop-color="white" stop-opacity="0.6"/>
<stop offset="1" stop-color="white" stop-opacity="0.3"/>
</linearGradient>
<linearGradient id="paint14_linear" x1="55.6057" y1="1.68508" x2="73.6456" y2="133.34" gradientUnits="userSpaceOnUse">
<stop stop-color="white" stop-opacity="0.6"/>
<stop offset="1" stop-color="white" stop-opacity="0.3"/>
</linearGradient>
<linearGradient id="paint15_linear" x1="55.6057" y1="1.68508" x2="73.6456" y2="133.34" gradientUnits="userSpaceOnUse">
<stop stop-color="white" stop-opacity="0.6"/>
<stop offset="1" stop-color="white" stop-opacity="0.3"/>
</linearGradient>
<linearGradient id="paint16_linear" x1="55.6057" y1="1.68508" x2="73.6456" y2="133.34" gradientUnits="userSpaceOnUse">
<stop stop-color="white" stop-opacity="0.6"/>
<stop offset="1" stop-color="white" stop-opacity="0.3"/>
</linearGradient>
<linearGradient id="paint17_linear" x1="55.6057" y1="1.68508" x2="73.6456" y2="133.34" gradientUnits="userSpaceOnUse">
<stop stop-color="white" stop-opacity="0.6"/>
<stop offset="1" stop-color="white" stop-opacity="0.3"/>
</linearGradient>
<linearGradient id="paint18_linear" x1="55.6057" y1="1.68508" x2="73.6456" y2="133.34" gradientUnits="userSpaceOnUse">
<stop stop-color="white" stop-opacity="0.6"/>
<stop offset="1" stop-color="white" stop-opacity="0.3"/>
</linearGradient>
<linearGradient id="paint19_linear" x1="55.6057" y1="1.68508" x2="73.6456" y2="133.34" gradientUnits="userSpaceOnUse">
<stop stop-color="white" stop-opacity="0.6"/>
<stop offset="1" stop-color="white" stop-opacity="0.3"/>
</linearGradient>
<linearGradient id="paint20_linear" x1="55.6057" y1="1.68508" x2="73.6456" y2="133.34" gradientUnits="userSpaceOnUse">
<stop stop-color="white" stop-opacity="0.6"/>
<stop offset="1" stop-color="white" stop-opacity="0.3"/>
</linearGradient>
<linearGradient id="paint21_linear" x1="55.6057" y1="1.68508" x2="73.6456" y2="133.34" gradientUnits="userSpaceOnUse">
<stop stop-color="white" stop-opacity="0.6"/>
<stop offset="1" stop-color="white" stop-opacity="0.3"/>
</linearGradient>
<linearGradient id="paint22_linear" x1="55.6057" y1="1.68508" x2="73.6456" y2="133.34" gradientUnits="userSpaceOnUse">
<stop stop-color="white" stop-opacity="0.6"/>
<stop offset="1" stop-color="white" stop-opacity="0.3"/>
</linearGradient>
<linearGradient id="paint23_linear" x1="55.6057" y1="1.68508" x2="73.6456" y2="133.34" gradientUnits="userSpaceOnUse">
<stop stop-color="white" stop-opacity="0.6"/>
<stop offset="1" stop-color="white" stop-opacity="0.3"/>
</linearGradient>
<linearGradient id="paint24_linear" x1="55.6057" y1="1.68508" x2="73.6456" y2="133.34" gradientUnits="userSpaceOnUse">
<stop stop-color="white" stop-opacity="0.6"/>
<stop offset="1" stop-color="white" stop-opacity="0.3"/>
</linearGradient>
<linearGradient id="paint25_linear" x1="55.6057" y1="1.68508" x2="73.6456" y2="133.34" gradientUnits="userSpaceOnUse">
<stop stop-color="white" stop-opacity="0.6"/>
<stop offset="1" stop-color="white" stop-opacity="0.3"/>
</linearGradient>
<linearGradient id="paint26_linear" x1="55.6057" y1="1.68508" x2="73.6456" y2="133.34" gradientUnits="userSpaceOnUse">
<stop stop-color="white" stop-opacity="0.6"/>
<stop offset="1" stop-color="white" stop-opacity="0.3"/>
</linearGradient>
<linearGradient id="paint27_linear" x1="55.6057" y1="1.68508" x2="73.6456" y2="133.34" gradientUnits="userSpaceOnUse">
<stop stop-color="white" stop-opacity="0.6"/>
<stop offset="1" stop-color="white" stop-opacity="0.3"/>
</linearGradient>
<linearGradient id="paint28_linear" x1="55.6057" y1="1.68508" x2="73.6456" y2="133.34" gradientUnits="userSpaceOnUse">
<stop stop-color="white" stop-opacity="0.6"/>
<stop offset="1" stop-color="white" stop-opacity="0.3"/>
</linearGradient>
<linearGradient id="paint29_linear" x1="55.6057" y1="1.68508" x2="73.6456" y2="133.34" gradientUnits="userSpaceOnUse">
<stop stop-color="white" stop-opacity="0.6"/>
<stop offset="1" stop-color="white" stop-opacity="0.3"/>
</linearGradient>
<linearGradient id="paint30_linear" x1="55.6057" y1="1.68508" x2="73.6456" y2="133.34" gradientUnits="userSpaceOnUse">
<stop stop-color="white" stop-opacity="0.6"/>
<stop offset="1" stop-color="white" stop-opacity="0.3"/>
</linearGradient>
<linearGradient id="paint31_linear" x1="55.6057" y1="1.68508" x2="73.6456" y2="133.34" gradientUnits="userSpaceOnUse">
<stop stop-color="white" stop-opacity="0.6"/>
<stop offset="1" stop-color="white" stop-opacity="0.3"/>
</linearGradient>
</defs>
</svg>
