<svg width="129" height="129" viewBox="0 0 129 129" fill="none" xmlns="http://www.w3.org/2000/svg">
<path d="M35.4317 71.7752C35.6482 72.3901 35.9253 72.7869 36.2631 72.9655C36.6008 73.1442 37.0305 73.1637 37.5521 73.0239C38.0157 72.8997 38.364 72.6925 38.5968 72.4023C38.8367 72.0999 38.8894 71.6976 38.7548 71.1953C38.6228 70.7027 38.4028 70.3838 38.0947 70.2386C37.7937 70.0811 37.3582 70.0787 36.7883 70.2314L35.7741 70.5032L35.2966 68.7211L36.4267 68.4182C37.2864 68.1879 37.6011 67.6429 37.3707 66.7832C37.3267 66.619 37.2612 66.4709 37.174 66.339C37.0843 66.1974 36.9721 66.0877 36.8374 66.0099C36.7001 65.9224 36.5367 65.873 36.3473 65.8617C36.1553 65.8406 35.929 65.8651 35.6682 65.935C35.2045 66.0592 34.8611 66.2651 34.6379 66.5526C34.4147 66.8402 34.3128 67.2713 34.3322 67.8458L32.3208 68.1053C32.2965 67.6666 32.3185 67.2466 32.3869 66.8452C32.465 66.4412 32.614 66.07 32.8339 65.7316C33.0635 65.3905 33.3714 65.0906 33.7576 64.8319C34.1437 64.5731 34.6314 64.3648 35.2207 64.2069C35.7905 64.0542 36.3074 63.9933 36.7712 64.0244C37.2325 64.0457 37.6355 64.1396 37.9803 64.306C38.3348 64.4698 38.625 64.7027 38.8508 65.0045C39.0837 65.2941 39.2506 65.6273 39.3515 66.004C39.4835 66.4966 39.4902 66.9659 39.3716 67.4118C39.26 67.8454 39.0061 68.2499 38.6097 68.6253C39.254 68.7115 39.7489 68.936 40.0946 69.2989C40.4474 69.6496 40.6898 70.0712 40.8218 70.5638C40.9486 71.0371 40.9975 71.4899 40.9684 71.9222C40.9392 72.3544 40.8125 72.7507 40.5881 73.1111C40.3734 73.4689 40.0598 73.7858 39.6472 74.062C39.2372 74.3479 38.7134 74.5762 38.0759 74.747C37.3515 74.9412 36.7206 75.0015 36.1833 74.9281C35.6531 74.8424 35.199 74.6741 34.8213 74.4234C34.4435 74.1726 34.1375 73.8612 33.9032 73.4892C33.6663 73.1075 33.4852 72.7212 33.3597 72.3303L35.4317 71.7752ZM41.1346 65.5417L43.1051 65.0137L43.3885 66.0714C43.5335 65.6081 43.7588 65.232 44.0645 64.943C44.3675 64.6444 44.7171 64.4421 45.1131 64.3359C45.3063 64.2842 45.4682 64.2511 45.599 64.2368C45.7271 64.2128 45.8421 64.1975 45.9439 64.191L46.1906 66.0971C45.9433 66.1012 45.6505 66.1486 45.3125 66.2392C45.0903 66.2987 44.8856 66.3846 44.6983 66.4969C44.5084 66.5996 44.3507 66.7454 44.2253 66.9342C44.0929 67.1354 44.0091 67.3442 43.9739 67.5607C43.9484 67.7746 43.9628 67.9829 44.0171 68.1858L45.1896 72.5614L43.1612 73.1049L41.1346 65.5417ZM53.8404 69.1719C53.4809 70.1482 52.8085 70.7684 51.8232 71.0324C50.7607 71.3171 49.8729 71.1719 49.1598 70.5969C48.4466 70.0219 47.9205 69.1017 47.5815 67.8363C47.4236 67.2471 47.3524 66.6916 47.3679 66.1698C47.3904 65.6358 47.4952 65.1574 47.6821 64.7346C47.8665 64.3022 48.1356 63.935 48.4895 63.6331C48.8435 63.3312 49.2764 63.1117 49.7883 62.9745C50.1651 62.8736 50.5551 62.8415 50.9583 62.8784C51.3713 62.9127 51.7937 63.079 52.2257 63.3774L51.2784 59.8421L53.3068 59.2986L56.0788 69.6437L54.1083 70.1717L53.8404 69.1719ZM53.0283 66.3148C52.8989 65.8318 52.7519 65.4571 52.5873 65.1906C52.4324 64.9215 52.2386 64.7198 52.0058 64.5855C51.7854 64.4582 51.5624 64.3989 51.337 64.4075C51.1186 64.4039 50.908 64.4293 50.7052 64.4836C50.483 64.5432 50.2822 64.6436 50.1026 64.7849C49.9327 64.9236 49.7951 65.1054 49.6897 65.3303C49.594 65.5527 49.5428 65.8252 49.5361 66.1479C49.5294 66.4707 49.5817 66.8397 49.693 67.255C49.8146 67.709 49.9555 68.0802 50.1156 68.3686C50.2828 68.6447 50.4647 68.86 50.6613 69.0144C50.8554 69.1591 51.0607 69.249 51.2771 69.2842C51.491 69.3097 51.7091 69.2927 51.9312 69.2331C52.4142 69.1037 52.7727 68.8576 53.0067 68.4946C53.1481 68.2497 53.2261 67.9803 53.2405 67.6866C53.2621 67.3806 53.2146 67.0102 53.0981 66.5756L53.0283 66.3148ZM58.4757 57.9136L62.1704 56.9236C62.9625 56.7114 63.6391 56.6284 64.2002 56.6748C64.7684 56.7089 65.2423 56.8355 65.622 57.0548C66.0087 57.2617 66.3131 57.5477 66.5351 57.9126C66.7642 58.2654 66.9357 58.6542 67.0496 59.0792C67.1712 59.5332 67.2249 59.9847 67.2106 60.4337C67.206 60.8801 67.0919 61.3041 66.8682 61.7057C66.6516 62.095 66.3119 62.45 65.8491 62.7707C65.396 63.0888 64.7831 63.3514 64.0103 63.5585L62.3876 63.9933L63.3776 67.688L61.2477 68.2587L58.4757 57.9136ZM63.4565 61.7813C63.8332 61.6803 64.1319 61.5589 64.3527 61.4169C64.5832 61.2723 64.7527 61.113 64.8614 60.939C64.97 60.7649 65.0226 60.5748 65.0191 60.3687C65.0227 60.1503 64.9935 59.9252 64.9314 59.6934C64.8667 59.4519 64.7807 59.2472 64.6736 59.0792C64.5665 58.9112 64.4236 58.7838 64.2451 58.6971C64.0666 58.6103 63.8427 58.5668 63.5734 58.5665C63.3138 58.5636 62.9957 58.6126 62.619 58.7135L61.0831 59.125L61.9062 62.1967L63.4565 61.7813ZM67.5987 55.4691L69.6271 54.9256L72.399 65.2707L70.3706 65.8142L67.5987 55.4691ZM78.4401 62.6271C78.2312 63.0454 77.9669 63.4112 77.6471 63.7247C77.337 64.0355 76.8873 64.2699 76.2981 64.4278C75.9601 64.5184 75.6248 64.5616 75.2924 64.5575C74.9697 64.5508 74.6678 64.4867 74.3868 64.3653C74.1155 64.2413 73.8747 64.0574 73.6644 63.8135C73.4515 63.56 73.292 63.2352 73.1859 62.8392C73.0462 62.3176 73.0482 61.8615 73.192 61.471C73.3358 61.0804 73.5715 60.7429 73.899 60.4585C74.2266 60.174 74.6118 59.931 75.0548 59.7295C75.5074 59.5254 75.9725 59.349 76.4503 59.2003L77.4094 58.8967L77.3085 58.52C77.1843 58.0563 76.9685 57.7725 76.6611 57.6685C76.3633 57.562 76.0406 57.5553 75.6929 57.6484C74.8912 57.8633 74.5139 58.2905 74.561 58.9301L72.6599 59.2531C72.5829 58.4248 72.7779 57.7618 73.2449 57.2639C73.7094 56.7564 74.415 56.3758 75.3616 56.1222C75.9411 55.9669 76.4532 55.9073 76.8977 55.9435C77.3396 55.97 77.7162 56.0814 78.0276 56.2775C78.3486 56.471 78.6127 56.7418 78.8199 57.0901C79.0342 57.4261 79.2034 57.8259 79.3277 58.2895L80.6088 63.0709L78.6963 63.5833L78.4401 62.6271ZM77.7482 60.2191L76.8616 60.5032C76.4417 60.6364 76.1105 60.7718 75.8678 60.9093C75.6251 61.0468 75.4456 61.1881 75.3292 61.3331C75.2198 61.466 75.1591 61.6065 75.147 61.7546C75.135 61.9028 75.1509 62.059 75.1949 62.2232C75.2622 62.4743 75.4022 62.6491 75.6149 62.7474C75.8276 62.8457 76.0885 62.8534 76.3976 62.7706C76.9192 62.6308 77.3119 62.3962 77.5756 62.0667C77.7229 61.8823 77.8273 61.6732 77.8888 61.4392C77.9478 61.1957 77.9359 60.9194 77.8531 60.6103L77.7482 60.2191ZM88.388 58.0514C88.554 58.9801 88.4342 59.7887 88.0285 60.4771C87.63 61.1533 86.8849 61.6376 85.7934 61.9301C85.1559 62.1009 84.5795 62.1519 84.0641 62.0829C83.5486 62.014 83.0946 61.8457 82.702 61.5782C82.3191 61.3082 81.9892 60.9462 81.7123 60.4924C81.4354 60.0386 81.2167 59.5123 81.0562 58.9134C80.8958 58.3145 80.8316 57.7468 80.8638 57.2102C80.9031 56.6613 81.0356 56.1703 81.2611 55.7371C81.4841 55.2943 81.8016 54.9142 82.2134 54.5968C82.6253 54.2794 83.1307 54.0404 83.7296 53.88C84.2415 53.7428 84.704 53.6914 85.1169 53.7257C85.5369 53.7477 85.9084 53.8397 86.2313 54.0016C86.5542 54.1636 86.8321 54.3893 87.065 54.6789C87.2953 54.9589 87.4864 55.2855 87.6382 55.659L85.669 56.4817C85.5172 56.1082 85.3233 55.8289 85.0873 55.6437C84.8487 55.4488 84.517 55.4083 84.092 55.5221C83.7829 55.605 83.545 55.7412 83.3784 55.9307C83.2092 56.1107 83.0916 56.3285 83.0255 56.5843C82.9691 56.8376 82.9556 57.1155 82.985 57.4183C83.0117 57.7113 83.0665 58.0124 83.1494 58.3215C83.2348 58.6402 83.3404 58.938 83.4664 59.2149C83.5923 59.4917 83.743 59.7257 83.9185 59.9168C84.0939 60.1079 84.3012 60.2439 84.5402 60.3248C84.7767 60.396 85.0495 60.3902 85.3586 60.3074C85.7643 60.1987 86.0472 59.9986 86.2072 59.7073C86.3673 59.4159 86.4084 59.0477 86.3305 58.6027L88.388 58.0514ZM96.8683 56.1829C96.9609 57.0691 96.7914 57.8082 96.3599 58.4C95.9354 58.9796 95.2016 59.4092 94.1584 59.6887C92.9027 60.0252 91.8629 59.9311 91.039 59.4065C90.2248 58.8792 89.6469 57.9781 89.3053 56.7031C89.1345 56.0656 89.0748 55.4759 89.1263 54.9341C89.1753 54.3827 89.3174 53.8891 89.5526 53.4533C89.7975 53.015 90.1285 52.6468 90.5455 52.3487C90.96 52.0409 91.4474 51.812 92.0076 51.6619C93.1667 51.3513 94.1253 51.4516 94.8835 51.9628C95.6513 52.4714 96.1866 53.2908 96.4894 54.4209L96.7068 55.2323L91.4618 56.6377C91.6442 57.241 91.9269 57.6778 92.3098 57.9479C92.6902 58.2083 93.1702 58.2609 93.7497 58.1056C94.5514 57.8907 94.9341 57.4258 94.8979 56.7109L96.8683 56.1829ZM94.3936 54.4234C94.2539 53.9018 94.0148 53.5311 93.6763 53.3112C93.3475 53.0887 92.9127 53.0499 92.3718 53.1949C92.1013 53.2673 91.8763 53.3742 91.6968 53.5155C91.5172 53.6568 91.3757 53.8241 91.2722 54.0175C91.1758 54.1986 91.1161 54.4009 91.0932 54.6245C91.0677 54.8384 91.0812 55.0625 91.1336 55.2969L94.3936 54.4234Z" fill="white"/>
<path d="M111.443 103.19C111.576 103.305 111.678 103.432 111.748 103.571C111.819 103.717 111.858 103.863 111.865 104.01C111.876 104.16 111.857 104.308 111.807 104.455C111.754 104.605 111.67 104.747 111.556 104.879C111.444 105.007 111.32 105.106 111.182 105.175C111.04 105.249 110.894 105.291 110.744 105.301C110.598 105.314 110.45 105.294 110.299 105.24C110.152 105.19 110.012 105.107 109.879 104.991C109.743 104.872 109.637 104.742 109.562 104.6C109.492 104.461 109.451 104.317 109.44 104.167C109.429 104.017 109.45 103.866 109.503 103.716C109.553 103.569 109.633 103.432 109.745 103.304C109.859 103.172 109.987 103.069 110.129 102.995C110.267 102.926 110.411 102.886 110.561 102.876C110.711 102.866 110.861 102.884 111.012 102.93C111.163 102.984 111.306 103.071 111.443 103.19Z" fill="url(#paint0_linear)"/>
<path d="M104.813 113.834L103.727 114.612L100.666 111.923L102.208 115.66L101.186 116.392L98.0995 113.761L99.7181 117.483L98.6836 118.223L96.6029 112.688L97.5403 112.017L100.866 114.83L99.2342 110.804L100.146 110.151L104.813 113.834Z" fill="url(#paint1_linear)"/>
<path d="M94.6179 120.475L93.567 121.024L90.9074 115.972L91.9582 115.423L94.6179 120.475Z" fill="url(#paint2_linear)"/>
<path d="M89.1256 123.132L88.126 123.504L84.6119 120.821L85.9328 124.321L84.8511 124.723L82.8358 119.384L83.828 119.015L87.3383 121.666L86.0287 118.196L87.1104 117.794L89.1256 123.132Z" fill="url(#paint3_linear)"/>
<path d="M79.6971 126.227L78.651 126.44L75.5907 123.248L76.3559 126.906L75.2239 127.136L74.0565 121.555L75.0948 121.344L78.1564 124.503L77.3977 120.876L78.5297 120.646L79.6971 126.227Z" fill="url(#paint4_linear)"/>
<path d="M69.9426 127.8L66.0657 128.014L66.0033 127.003L68.6941 126.854L68.6176 125.612L66.086 125.752L66.0232 124.732L68.5548 124.592L68.4684 123.191L65.6105 123.349L65.6676 122.331L69.5923 122.114L69.9426 127.8Z" fill="url(#paint5_linear)"/>
<path d="M61.3038 127.957L59.2921 127.786C58.8468 127.749 58.4851 127.665 58.2072 127.535C57.9235 127.409 57.7062 127.255 57.5551 127.071C57.4036 126.893 57.3042 126.698 57.2568 126.486C57.209 126.279 57.1927 126.078 57.2081 125.882C57.2367 125.516 57.3271 125.215 57.4791 124.977C57.6312 124.739 57.8702 124.549 58.1963 124.406L57.232 121.9L58.5123 122.008L59.2995 124.219L60.4128 124.313L60.5797 122.183L61.7486 122.282L61.3038 127.957ZM59.4131 125.221C59.2276 125.205 59.0724 125.21 58.9476 125.237C58.8223 125.269 58.7225 125.317 58.6482 125.38C58.5682 125.448 58.511 125.531 58.4766 125.629C58.4422 125.728 58.4202 125.838 58.4107 125.96C58.4028 126.06 58.4112 126.157 58.4359 126.25C58.4603 126.348 58.5095 126.435 58.5836 126.51C58.652 126.591 58.7537 126.655 58.8886 126.704C59.0178 126.758 59.1858 126.793 59.3925 126.811L60.2116 126.88L60.3355 125.299L59.4131 125.221Z" fill="url(#paint6_linear)"/>
<path d="M52.1125 122.891C52.1642 122.543 52.1118 122.269 51.9552 122.069C51.7935 121.868 51.5233 121.723 51.1448 121.635C50.9633 121.593 50.8062 121.575 50.6735 121.582C50.5396 121.595 50.4267 121.623 50.3348 121.667C50.2418 121.716 50.1697 121.781 50.1186 121.862C50.0623 121.942 50.0224 122.033 49.9988 122.137C49.9659 122.282 49.9897 122.429 50.0704 122.579C50.1499 122.734 50.3284 122.873 50.6058 122.998L51.2992 123.299C51.5727 123.417 51.8089 123.543 52.0078 123.676C52.2068 123.81 52.3668 123.959 52.4878 124.124C52.6024 124.292 52.6768 124.481 52.7111 124.691C52.7453 124.901 52.7324 125.138 52.6725 125.402C52.6125 125.666 52.5077 125.887 52.3581 126.064C52.2033 126.241 52.0173 126.375 51.8 126.466C51.5776 126.556 51.3264 126.604 51.0467 126.609C50.7658 126.62 50.4671 126.589 50.1508 126.515C49.7463 126.421 49.4199 126.295 49.1714 126.139C48.9229 125.983 48.7333 125.808 48.6027 125.614C48.4709 125.425 48.389 125.221 48.3571 125.001C48.32 124.78 48.3132 124.557 48.3367 124.334L49.4652 124.45C49.4528 124.768 49.5143 125.014 49.6497 125.188C49.7799 125.36 50.0109 125.485 50.3427 125.562C50.5398 125.608 50.7073 125.628 50.8451 125.622C50.9767 125.62 51.0878 125.599 51.1785 125.56C51.268 125.527 51.3366 125.477 51.3842 125.412C51.4318 125.347 51.4644 125.275 51.482 125.198C51.5291 124.991 51.5073 124.822 51.4168 124.692C51.321 124.56 51.1396 124.434 50.8725 124.311L50.1438 123.986C49.5693 123.727 49.1727 123.43 48.9538 123.095C48.7338 122.766 48.6808 122.35 48.7949 121.848C48.8502 121.605 48.9481 121.39 49.0885 121.205C49.2225 121.023 49.3979 120.876 49.6147 120.763C49.8251 120.654 50.0746 120.59 50.363 120.57C50.6527 120.544 50.979 120.574 51.342 120.659C52.0991 120.835 52.6434 121.131 52.975 121.546C53.3001 121.966 53.4042 122.505 53.2871 123.165L52.1125 122.891Z" fill="url(#paint7_linear)"/>
<path d="M39.6117 119.951C39.5377 120.11 39.4439 120.242 39.3303 120.347C39.2097 120.454 39.0799 120.53 38.9408 120.576C38.7996 120.627 38.6515 120.648 38.4967 120.64C38.337 120.629 38.1776 120.586 38.0185 120.511C37.8642 120.438 37.7343 120.345 37.6288 120.231C37.5184 120.114 37.4375 119.985 37.3859 119.844C37.332 119.707 37.31 119.559 37.3197 119.399C37.3272 119.244 37.368 119.087 37.442 118.929C37.5182 118.765 37.6142 118.629 37.73 118.519C37.8436 118.414 37.971 118.337 38.1123 118.286C38.2536 118.235 38.404 118.215 38.5637 118.226C38.7186 118.234 38.8731 118.275 39.0274 118.348C39.1865 118.423 39.3213 118.519 39.4316 118.635C39.5371 118.749 39.6157 118.877 39.6673 119.019C39.7188 119.16 39.7433 119.31 39.7406 119.467C39.7309 119.626 39.6879 119.788 39.6117 119.951Z" fill="url(#paint8_linear)"/>
<path d="M16.0672 99.6934C16.3381 99.4705 16.4818 99.2327 16.4983 98.9801C16.5116 98.7231 16.4061 98.4355 16.1817 98.1174C16.0741 97.9648 15.9682 97.8469 15.8641 97.7637C15.7556 97.6835 15.6522 97.629 15.5541 97.6002C15.4516 97.5744 15.3542 97.5743 15.262 97.6C15.1667 97.6213 15.0757 97.6624 14.9889 97.7233C14.8674 97.8087 14.7869 97.9336 14.7473 98.0983C14.7034 98.266 14.7437 98.4886 14.8681 98.7661L15.1863 99.4518C15.312 99.7219 15.4047 99.9729 15.4644 100.205C15.5241 100.436 15.5442 100.654 15.5249 100.856C15.4982 101.057 15.4276 101.247 15.3132 101.425C15.1988 101.603 15.0309 101.77 14.8097 101.925C14.5884 102.081 14.3624 102.174 14.1317 102.206C13.898 102.233 13.6693 102.208 13.4459 102.13C13.2193 102.048 12.9994 101.916 12.7863 101.733C12.5687 101.554 12.3662 101.331 12.1787 101.065C11.9389 100.725 11.7782 100.415 11.6964 100.133C11.6146 99.8518 11.5897 99.5957 11.6215 99.3648C11.6489 99.137 11.7242 98.931 11.8473 98.7468C11.9673 98.5583 12.1107 98.3891 12.2776 98.2393L13.0449 99.0788C12.8227 99.3065 12.7044 99.5297 12.69 99.7483C12.6725 99.9626 12.7621 100.209 12.9589 100.488C13.0757 100.654 13.1877 100.78 13.2949 100.868C13.3947 100.954 13.4915 101.013 13.5854 101.045C13.6749 101.08 13.7592 101.089 13.8384 101.073C13.9176 101.056 13.9897 101.025 14.0548 100.979C14.2284 100.858 14.3247 100.718 14.3438 100.561C14.3599 100.4 14.3088 100.185 14.1905 99.9164L13.8623 99.189C13.6055 98.6134 13.5069 98.1287 13.5665 97.735C13.6218 97.3443 13.8598 97.0011 14.2807 96.7056C14.4846 96.5624 14.701 96.4691 14.9299 96.4256C15.1514 96.3809 15.381 96.3891 15.6187 96.4502C15.8491 96.51 16.0789 96.6288 16.3082 96.8067C16.5418 96.9815 16.7662 97.2214 16.9813 97.5265C17.4302 98.1627 17.64 98.7452 17.6107 99.2741C17.5741 99.8016 17.2917 100.27 16.7634 100.68L16.0672 99.6934Z" fill="url(#paint9_linear)"/>
<path d="M12.4107 89.9046C12.6 90.2868 12.7073 90.6587 12.7326 91.0203C12.7578 91.382 12.7058 91.7252 12.5766 92.0498C12.4474 92.3745 12.2469 92.6747 11.9751 92.9506C11.701 93.2216 11.3568 93.4588 10.9425 93.6621C10.5282 93.8653 10.1296 93.9926 9.74658 94.044C9.36122 94.0905 8.99982 94.066 8.66238 93.9703C8.32257 93.8698 8.01622 93.6995 7.74335 93.4593C7.47047 93.2192 7.24056 92.9104 7.05362 92.5331C6.86433 92.1509 6.75705 91.779 6.73179 91.4174C6.70653 91.0557 6.75969 90.7149 6.89127 90.395C7.02049 90.0704 7.22216 89.7725 7.49631 89.5015C7.77045 89.2304 8.11467 88.9932 8.52895 88.79C8.94323 88.5867 9.34187 88.4594 9.72486 88.408C10.1055 88.3519 10.4645 88.3717 10.802 88.4674C11.137 88.5583 11.441 88.7238 11.7139 88.964C11.9868 89.2042 12.219 89.5177 12.4107 89.9046ZM11.5 90.3604C11.2776 89.9114 10.9596 89.6518 10.5459 89.5816C10.1323 89.5114 9.6422 89.6153 9.07554 89.8933C8.51364 90.169 8.13474 90.4915 7.93883 90.8608C7.73815 91.2323 7.74903 91.6426 7.97145 92.0916C8.19388 92.5406 8.51427 92.7991 8.93264 92.8669C9.34624 92.9371 9.83399 92.8344 10.3959 92.5587C10.9626 92.2806 11.3438 91.957 11.5398 91.5877C11.7357 91.2185 11.7224 90.8094 11.5 90.3604Z" fill="url(#paint10_linear)"/>
<path d="M4.02427 85.1064L3.66049 83.9728L8.11009 82.57L7.28488 79.9984L8.29587 79.8137L9.4458 83.3972L4.02427 85.1064Z" fill="url(#paint11_linear)"/>
<path d="M1.39974 75.1361L1.21238 74.0179L6.47519 71.0007L6.6863 72.2606L5.4636 72.919L5.79345 74.8876L7.16657 75.1268L7.36977 76.3394L1.39974 75.1361ZM4.54752 73.3823L2.64858 74.3926L4.77578 74.7446L4.54752 73.3823Z" fill="url(#paint12_linear)"/>
<path d="M0.40739 66.8812L0.395702 65.8124L4.10262 63.45L0.370061 63.4675L0.357422 62.311L6.05197 62.2843L6.06356 63.3451L2.38863 65.7153L6.08929 65.698L6.10193 66.8545L0.40739 66.8812Z" fill="url(#paint13_linear)"/>
<path d="M0.919964 55.3285L1.08285 54.2087L7.02596 52.9496L6.84242 54.2113L5.47467 54.4634L5.18789 56.4348L6.42487 57.0818L6.24821 58.2962L0.919964 55.3285ZM4.45908 54.6238L2.33865 55.0035L4.26063 55.988L4.45908 54.6238Z" fill="url(#paint14_linear)"/>
<path d="M7.75139 42.5745L5.36828 43.0938L5.84667 41.8708L7.21184 41.65L6.39464 40.4699L6.81795 39.3877L8.15584 41.365L10.7343 40.829L10.2646 42.0298L8.69412 42.3147L9.63547 43.6382L9.19477 44.7649L7.75139 42.5745Z" fill="url(#paint15_linear)"/>
<path d="M13.7999 31.1554C14.1055 31.3319 14.3795 31.384 14.6218 31.3119C14.8671 31.2354 15.0985 31.0371 15.3159 30.7169C15.4202 30.5634 15.4926 30.4235 15.5333 30.2972C15.5695 30.1679 15.5836 30.0523 15.5754 29.9504C15.5628 29.8455 15.528 29.7544 15.471 29.677C15.417 29.5952 15.3459 29.5242 15.2578 29.4641C15.1345 29.3799 14.9887 29.3478 14.8204 29.3678C14.6477 29.3847 14.4538 29.4995 14.2385 29.7121L13.7107 30.2473C13.5028 30.4584 13.3011 30.6321 13.1055 30.7682C12.91 30.9043 12.7139 30.9984 12.5174 31.0505C12.3195 31.0951 12.1167 31.0947 11.9091 31.0493C11.7014 31.0039 11.4852 30.9045 11.2606 30.7512C11.0359 30.5979 10.8675 30.4188 10.7553 30.2138C10.646 30.0045 10.5878 29.7818 10.5805 29.5457C10.5762 29.3053 10.6213 29.0537 10.716 28.7909C10.8062 28.5251 10.9421 28.2585 11.1238 27.9909C11.3562 27.6488 11.5894 27.3907 11.8236 27.2168C12.0577 27.0428 12.2886 26.9307 12.516 26.8805C12.7391 26.8274 12.9588 26.8265 13.1753 26.8779C13.3947 26.925 13.6044 27.0007 13.8043 27.105L13.2933 28.1138C13.0006 27.9847 12.7494 27.9513 12.5396 28.0135C12.3327 28.0713 12.134 28.2405 11.9433 28.5213C11.8301 28.6879 11.7517 28.8366 11.7081 28.9673C11.6631 29.0906 11.6424 29.2017 11.6462 29.3006C11.6456 29.3964 11.6672 29.4785 11.7109 29.5469C11.7547 29.6153 11.8097 29.6721 11.8758 29.7172C12.0519 29.8374 12.2169 29.8793 12.3705 29.843C12.5271 29.8022 12.71 29.6799 12.9193 29.4761L13.4827 28.917C13.9295 28.4774 14.3479 28.2173 14.7378 28.1368C15.1232 28.0532 15.5296 28.1572 15.9569 28.4488C16.1639 28.5901 16.3287 28.7603 16.4513 28.9595C16.5725 29.1513 16.647 29.3691 16.6749 29.6128C16.7014 29.8491 16.6724 30.1053 16.588 30.3815C16.508 30.6607 16.3638 30.9538 16.1553 31.2608C15.7204 31.9012 15.2503 32.2992 14.7448 32.455C14.238 32.6033 13.6981 32.5013 13.1252 32.1489L13.7999 31.1554Z" fill="url(#paint16_linear)"/>
<path d="M15.6285 22.263L18.2312 19.3959L18.9832 20.0794L17.1768 22.0692L18.1004 22.9087L19.7999 21.0366L20.5577 21.7254L18.8582 23.5975L19.9003 24.5446L21.8189 22.4312L22.4907 23.2029L19.8559 26.1052L15.6285 22.263Z" fill="url(#paint17_linear)"/>
<path d="M21.6521 16.1052L23.1997 14.8199C23.5422 14.5354 23.8577 14.3427 24.1462 14.2418C24.4353 14.1334 24.6977 14.0923 24.9333 14.1185C25.1655 14.1406 25.3726 14.2113 25.5546 14.3305C25.7332 14.4456 25.8857 14.579 26.0119 14.7307C26.2474 15.0135 26.3943 15.2936 26.4528 15.571C26.5112 15.8483 26.4747 16.1525 26.3433 16.4835L28.7812 17.6099L27.7964 18.4278L25.6906 17.3896L24.8342 18.1008L26.206 19.7487L25.3068 20.4955L21.6521 16.1052ZM24.9091 16.7491C25.0518 16.6305 25.1581 16.518 25.228 16.4114C25.2945 16.3007 25.3321 16.1967 25.3407 16.0993C25.35 15.9945 25.3325 15.8947 25.288 15.7999C25.2436 15.7051 25.1821 15.6105 25.1036 15.5163C25.0388 15.4384 24.9651 15.3747 24.8827 15.3254C24.7968 15.2719 24.7011 15.2439 24.5955 15.2415C24.4907 15.2315 24.3733 15.2562 24.2434 15.3155C24.1141 15.3674 23.97 15.4594 23.8109 15.5915L23.1809 16.1147L24.1995 17.3384L24.9091 16.7491Z" fill="url(#paint18_linear)"/>
<path d="M28.9116 10.5093L29.9268 9.89783L31.6891 12.8045C31.9406 13.2194 32.1999 13.4834 32.4669 13.5965C32.7339 13.7096 33.0377 13.6635 33.3784 13.4583C33.719 13.2531 33.899 13.0078 33.9182 12.7224C33.9419 12.4342 33.828 12.0827 33.5764 11.6678L31.8141 8.76108L32.8294 8.14962L34.5916 11.0563C34.8155 11.4256 34.9622 11.7699 35.0317 12.0891C35.1012 12.4082 35.1044 12.7051 35.0414 12.9795C34.9756 13.2495 34.8436 13.4971 34.6453 13.7223C34.4543 13.9494 34.2066 14.1546 33.9023 14.3379C33.5934 14.5239 33.2915 14.6498 32.9964 14.7154C32.7059 14.7784 32.4255 14.7761 32.1552 14.7086C31.882 14.6366 31.6208 14.492 31.3714 14.275C31.122 14.058 30.8853 13.7648 30.6614 13.3955L28.9116 10.5093Z" fill="url(#paint19_linear)"/>
<path d="M37.729 5.6263L39.0543 5.10358L41.9533 8.53984L41.7271 4.0494L43.0153 3.54129L45.1334 8.84076L44.1191 9.24083L42.707 5.70784L42.9123 9.71682L42.0535 10.0556L39.4301 7.00891L40.8392 10.5345L39.8471 10.9258L37.729 5.6263Z" fill="url(#paint20_linear)"/>
<path d="M53.3175 0.781482L54.3562 0.616366L55.4717 7.37511L54.433 7.54023L53.3175 0.781482Z" fill="url(#paint21_linear)"/>
<path d="M64.7164 0L66.844 0.10543C67.7152 0.148602 68.3823 0.418497 68.8453 0.915117C69.3136 1.412 69.5276 2.12514 69.4873 3.05453C69.4668 3.5272 69.3798 3.93802 69.2263 4.287C69.0781 4.63625 68.8712 4.9267 68.6056 5.15836C68.34 5.39002 68.0213 5.55785 67.6495 5.66183C67.2776 5.76582 66.8606 5.80636 66.3985 5.78346L64.4701 5.6879L64.7164 0ZM66.4662 4.77293C66.7743 4.7882 67.0391 4.75874 67.2606 4.68456C67.4823 4.60507 67.6631 4.4863 67.8031 4.32824C67.9483 4.17045 68.0577 3.98161 68.1311 3.76171C68.2047 3.5365 68.2476 3.28316 68.2598 3.00169C68.2718 2.72553 68.2534 2.47447 68.2046 2.24852C68.1614 2.01752 68.082 1.82199 67.9665 1.66192C67.8509 1.50185 67.6968 1.37446 67.5039 1.27975C67.3163 1.1853 67.0817 1.1311 66.8002 1.11714L65.8599 1.07055L65.7012 4.73502L66.4662 4.77293Z" fill="url(#paint22_linear)"/>
<path d="M74.572 0.889681L78.3878 1.64017L78.1983 2.63404L75.55 2.11316L75.3172 3.33398L77.8088 3.82403L77.6179 4.82573L75.1263 4.33567L74.8637 5.71301L77.6765 6.26624L77.3695 7.23699L73.5067 6.47726L74.572 0.889681Z" fill="url(#paint23_linear)"/>
<path d="M82.9674 2.87442L86.5151 4.083L86.1913 5.04918L83.7707 4.22456L83.3457 5.49267L85.6226 6.26833L85.2988 7.23451L83.0219 6.45885L82.2883 8.64785L81.1613 8.26389L82.9674 2.87442Z" fill="url(#paint24_linear)"/>
<path d="M90.9287 5.9467L92.0056 6.45595L89.5976 11.6015L88.5206 11.0923L90.9287 5.9467Z" fill="url(#paint25_linear)"/>
<path d="M100.876 11.5955L101.827 12.3146L100.506 14.0673L102.311 15.433L103.632 13.6803L104.583 14.3994L101.166 18.9335L100.215 18.2145L101.651 16.3094L99.8451 14.9436L98.4092 16.8487L97.4586 16.1296L100.876 11.5955Z" fill="url(#paint26_linear)"/>
<path d="M109.732 19.0931L110.522 19.9096L107.933 25.3973L107.043 24.4774L107.669 23.2375L106.278 21.8001L105.018 22.3844L104.161 21.4989L109.732 19.0931ZM108.155 22.3334L109.134 20.4181L107.192 21.3386L108.155 22.3334Z" fill="url(#paint27_linear)"/>
<path d="M115.02 31.4652C114.757 31.6172 114.486 31.7199 114.205 31.7734C113.933 31.8282 113.66 31.8277 113.387 31.7719C113.121 31.7174 112.86 31.6008 112.604 31.4221C112.352 31.2478 112.115 31.0037 111.893 30.69C111.644 30.3371 111.483 29.9844 111.409 29.632C111.339 29.2839 111.345 28.9437 111.429 28.6114C111.515 28.2834 111.676 27.9685 111.91 27.6667C112.149 27.3618 112.451 27.0814 112.815 26.8253C113.193 26.5601 113.567 26.3725 113.937 26.2624C114.307 26.1523 114.664 26.1162 115.009 26.1542C115.354 26.1922 115.676 26.3045 115.977 26.491C116.277 26.6775 116.546 26.9386 116.782 27.274C116.992 27.5703 117.136 27.8533 117.216 28.123C117.299 28.397 117.324 28.6568 117.289 28.9025C117.258 29.1525 117.177 29.3919 117.047 29.6206C116.916 29.8492 116.745 30.0707 116.532 30.2849L115.726 29.4046C115.966 29.1646 116.114 28.92 116.172 28.6709C116.233 28.4261 116.159 28.1555 115.95 27.8593C115.685 27.4846 115.343 27.2982 114.922 27.3003C114.509 27.3037 114.047 27.4852 113.535 27.8449C113.019 28.2076 112.694 28.5889 112.561 28.9887C112.431 29.3929 112.489 29.7693 112.735 30.1179C112.947 30.4185 113.179 30.5852 113.429 30.618C113.686 30.652 113.971 30.5859 114.282 30.4196L115.02 31.4652Z" fill="url(#paint28_linear)"/>
<path d="M120.653 33.6881L121.191 34.7599L119.154 35.7734L122.135 36.6393L122.72 37.804L119.961 37.0601L117.727 40.5199L117.132 39.3337L118.896 36.6607L117.972 36.3616L116.105 37.29L115.567 36.2182L120.653 33.6881Z" fill="url(#paint29_linear)"/>
<path d="M125.033 43.7296L125.386 44.8081L120.639 48.5824L120.242 47.3672L121.351 46.5325L120.731 44.6337L119.338 44.6026L118.956 43.4329L125.033 43.7296ZM122.187 45.9367L123.911 44.6525L121.757 44.6228L122.187 45.9367Z" fill="url(#paint30_linear)"/>
<path d="M126.434 53.1678L126.15 51.4749L127.164 51.3108L127.931 55.8777L126.916 56.0418L126.632 54.3489L122.03 55.0932L121.832 53.9121L126.434 53.1678Z" fill="url(#paint31_linear)"/>
<path d="M128.431 60.9626L128.451 62.151L126.25 62.1733L126.287 64.4304L128.488 64.4081L128.507 65.5965L122.813 65.6541L122.794 64.4657L125.186 64.4415L125.149 62.1844L122.757 62.2086L122.737 61.0203L128.431 60.9626Z" fill="url(#paint32_linear)"/>
<path d="M122.076 72.5606C122.138 72.1401 122.26 71.7745 122.445 71.464C122.63 71.1535 122.868 70.9021 123.16 70.7097C123.451 70.5174 123.788 70.3857 124.169 70.3144C124.55 70.2484 124.969 70.2501 125.427 70.3194C125.885 70.3886 126.286 70.5112 126.632 70.6871C126.977 70.8682 127.261 71.0939 127.486 71.3642C127.709 71.6398 127.865 71.9536 127.954 72.3055C128.043 72.6574 128.057 73.0411 127.997 73.4564C127.935 73.877 127.812 74.2425 127.628 74.5531C127.443 74.8636 127.205 75.1124 126.914 75.2994C126.623 75.4917 126.287 75.6209 125.906 75.6868C125.525 75.7528 125.106 75.7512 124.648 75.6819C124.191 75.6126 123.789 75.4901 123.443 75.3142C123.097 75.1436 122.812 74.9231 122.587 74.6528C122.362 74.3877 122.206 74.0792 122.117 73.7273C122.028 73.3754 122.015 72.9865 122.076 72.5606ZM123.088 72.7056C123.016 73.1998 123.131 73.5933 123.433 73.8861C123.734 74.1789 124.198 74.3727 124.825 74.4674C125.446 74.5614 125.942 74.5129 126.314 74.3221C126.691 74.132 126.916 73.7898 126.987 73.2956C127.059 72.8014 126.941 72.4075 126.635 72.114C126.333 71.8212 125.872 71.6278 125.251 71.5338C124.624 71.4391 124.125 71.4871 123.753 71.678C123.382 71.8689 123.16 72.2114 123.088 72.7056Z" fill="url(#paint33_linear)"/>
<path d="M126.28 81.3147L125.96 82.3323L121.696 83.4236L125.257 84.5649L124.91 85.6661L119.477 83.9248L119.795 82.9148L124.031 81.8061L120.5 80.6746L120.847 79.5734L126.28 81.3147Z" fill="url(#paint34_linear)"/>
<defs>
<linearGradient id="paint0_linear" x1="102.638" y1="13.6272" x2="23.3056" y2="117.701" gradientUnits="userSpaceOnUse">
<stop stop-color="white" stop-opacity="0.6"/>
<stop offset="1" stop-color="white" stop-opacity="0.3"/>
</linearGradient>
<linearGradient id="paint1_linear" x1="102.638" y1="13.6272" x2="23.3056" y2="117.701" gradientUnits="userSpaceOnUse">
<stop stop-color="white" stop-opacity="0.6"/>
<stop offset="1" stop-color="white" stop-opacity="0.3"/>
</linearGradient>
<linearGradient id="paint2_linear" x1="102.638" y1="13.6272" x2="23.3056" y2="117.701" gradientUnits="userSpaceOnUse">
<stop stop-color="white" stop-opacity="0.6"/>
<stop offset="1" stop-color="white" stop-opacity="0.3"/>
</linearGradient>
<linearGradient id="paint3_linear" x1="102.638" y1="13.6272" x2="23.3056" y2="117.701" gradientUnits="userSpaceOnUse">
<stop stop-color="white" stop-opacity="0.6"/>
<stop offset="1" stop-color="white" stop-opacity="0.3"/>
</linearGradient>
<linearGradient id="paint4_linear" x1="102.638" y1="13.6272" x2="23.3056" y2="117.701" gradientUnits="userSpaceOnUse">
<stop stop-color="white" stop-opacity="0.6"/>
<stop offset="1" stop-color="white" stop-opacity="0.3"/>
</linearGradient>
<linearGradient id="paint5_linear" x1="102.638" y1="13.6272" x2="23.3056" y2="117.701" gradientUnits="userSpaceOnUse">
<stop stop-color="white" stop-opacity="0.6"/>
<stop offset="1" stop-color="white" stop-opacity="0.3"/>
</linearGradient>
<linearGradient id="paint6_linear" x1="102.638" y1="13.6272" x2="23.3056" y2="117.701" gradientUnits="userSpaceOnUse">
<stop stop-color="white" stop-opacity="0.6"/>
<stop offset="1" stop-color="white" stop-opacity="0.3"/>
</linearGradient>
<linearGradient id="paint7_linear" x1="102.638" y1="13.6272" x2="23.3056" y2="117.701" gradientUnits="userSpaceOnUse">
<stop stop-color="white" stop-opacity="0.6"/>
<stop offset="1" stop-color="white" stop-opacity="0.3"/>
</linearGradient>
<linearGradient id="paint8_linear" x1="102.638" y1="13.6272" x2="23.3056" y2="117.701" gradientUnits="userSpaceOnUse">
<stop stop-color="white" stop-opacity="0.6"/>
<stop offset="1" stop-color="white" stop-opacity="0.3"/>
</linearGradient>
<linearGradient id="paint9_linear" x1="102.638" y1="13.6272" x2="23.3056" y2="117.701" gradientUnits="userSpaceOnUse">
<stop stop-color="white" stop-opacity="0.6"/>
<stop offset="1" stop-color="white" stop-opacity="0.3"/>
</linearGradient>
<linearGradient id="paint10_linear" x1="102.638" y1="13.6272" x2="23.3056" y2="117.701" gradientUnits="userSpaceOnUse">
<stop stop-color="white" stop-opacity="0.6"/>
<stop offset="1" stop-color="white" stop-opacity="0.3"/>
</linearGradient>
<linearGradient id="paint11_linear" x1="102.638" y1="13.6272" x2="23.3056" y2="117.701" gradientUnits="userSpaceOnUse">
<stop stop-color="white" stop-opacity="0.6"/>
<stop offset="1" stop-color="white" stop-opacity="0.3"/>
</linearGradient>
<linearGradient id="paint12_linear" x1="102.638" y1="13.6272" x2="23.3056" y2="117.701" gradientUnits="userSpaceOnUse">
<stop stop-color="white" stop-opacity="0.6"/>
<stop offset="1" stop-color="white" stop-opacity="0.3"/>
</linearGradient>
<linearGradient id="paint13_linear" x1="102.638" y1="13.6272" x2="23.3056" y2="117.701" gradientUnits="userSpaceOnUse">
<stop stop-color="white" stop-opacity="0.6"/>
<stop offset="1" stop-color="white" stop-opacity="0.3"/>
</linearGradient>
<linearGradient id="paint14_linear" x1="102.638" y1="13.6272" x2="23.3056" y2="117.701" gradientUnits="userSpaceOnUse">
<stop stop-color="white" stop-opacity="0.6"/>
<stop offset="1" stop-color="white" stop-opacity="0.3"/>
</linearGradient>
<linearGradient id="paint15_linear" x1="102.638" y1="13.6272" x2="23.3056" y2="117.701" gradientUnits="userSpaceOnUse">
<stop stop-color="white" stop-opacity="0.6"/>
<stop offset="1" stop-color="white" stop-opacity="0.3"/>
</linearGradient>
<linearGradient id="paint16_linear" x1="102.638" y1="13.6272" x2="23.3056" y2="117.701" gradientUnits="userSpaceOnUse">
<stop stop-color="white" stop-opacity="0.6"/>
<stop offset="1" stop-color="white" stop-opacity="0.3"/>
</linearGradient>
<linearGradient id="paint17_linear" x1="102.638" y1="13.6272" x2="23.3056" y2="117.701" gradientUnits="userSpaceOnUse">
<stop stop-color="white" stop-opacity="0.6"/>
<stop offset="1" stop-color="white" stop-opacity="0.3"/>
</linearGradient>
<linearGradient id="paint18_linear" x1="102.638" y1="13.6272" x2="23.3056" y2="117.701" gradientUnits="userSpaceOnUse">
<stop stop-color="white" stop-opacity="0.6"/>
<stop offset="1" stop-color="white" stop-opacity="0.3"/>
</linearGradient>
<linearGradient id="paint19_linear" x1="102.638" y1="13.6272" x2="23.3056" y2="117.701" gradientUnits="userSpaceOnUse">
<stop stop-color="white" stop-opacity="0.6"/>
<stop offset="1" stop-color="white" stop-opacity="0.3"/>
</linearGradient>
<linearGradient id="paint20_linear" x1="102.638" y1="13.6272" x2="23.3056" y2="117.701" gradientUnits="userSpaceOnUse">
<stop stop-color="white" stop-opacity="0.6"/>
<stop offset="1" stop-color="white" stop-opacity="0.3"/>
</linearGradient>
<linearGradient id="paint21_linear" x1="102.638" y1="13.6272" x2="23.3056" y2="117.701" gradientUnits="userSpaceOnUse">
<stop stop-color="white" stop-opacity="0.6"/>
<stop offset="1" stop-color="white" stop-opacity="0.3"/>
</linearGradient>
<linearGradient id="paint22_linear" x1="102.638" y1="13.6272" x2="23.3056" y2="117.701" gradientUnits="userSpaceOnUse">
<stop stop-color="white" stop-opacity="0.6"/>
<stop offset="1" stop-color="white" stop-opacity="0.3"/>
</linearGradient>
<linearGradient id="paint23_linear" x1="102.638" y1="13.6272" x2="23.3056" y2="117.701" gradientUnits="userSpaceOnUse">
<stop stop-color="white" stop-opacity="0.6"/>
<stop offset="1" stop-color="white" stop-opacity="0.3"/>
</linearGradient>
<linearGradient id="paint24_linear" x1="102.638" y1="13.6272" x2="23.3056" y2="117.701" gradientUnits="userSpaceOnUse">
<stop stop-color="white" stop-opacity="0.6"/>
<stop offset="1" stop-color="white" stop-opacity="0.3"/>
</linearGradient>
<linearGradient id="paint25_linear" x1="102.638" y1="13.6272" x2="23.3056" y2="117.701" gradientUnits="userSpaceOnUse">
<stop stop-color="white" stop-opacity="0.6"/>
<stop offset="1" stop-color="white" stop-opacity="0.3"/>
</linearGradient>
<linearGradient id="paint26_linear" x1="102.638" y1="13.6272" x2="23.3056" y2="117.701" gradientUnits="userSpaceOnUse">
<stop stop-color="white" stop-opacity="0.6"/>
<stop offset="1" stop-color="white" stop-opacity="0.3"/>
</linearGradient>
<linearGradient id="paint27_linear" x1="102.638" y1="13.6272" x2="23.3056" y2="117.701" gradientUnits="userSpaceOnUse">
<stop stop-color="white" stop-opacity="0.6"/>
<stop offset="1" stop-color="white" stop-opacity="0.3"/>
</linearGradient>
<linearGradient id="paint28_linear" x1="102.638" y1="13.6272" x2="23.3056" y2="117.701" gradientUnits="userSpaceOnUse">
<stop stop-color="white" stop-opacity="0.6"/>
<stop offset="1" stop-color="white" stop-opacity="0.3"/>
</linearGradient>
<linearGradient id="paint29_linear" x1="102.638" y1="13.6272" x2="23.3056" y2="117.701" gradientUnits="userSpaceOnUse">
<stop stop-color="white" stop-opacity="0.6"/>
<stop offset="1" stop-color="white" stop-opacity="0.3"/>
</linearGradient>
<linearGradient id="paint30_linear" x1="102.638" y1="13.6272" x2="23.3056" y2="117.701" gradientUnits="userSpaceOnUse">
<stop stop-color="white" stop-opacity="0.6"/>
<stop offset="1" stop-color="white" stop-opacity="0.3"/>
</linearGradient>
<linearGradient id="paint31_linear" x1="102.638" y1="13.6272" x2="23.3056" y2="117.701" gradientUnits="userSpaceOnUse">
<stop stop-color="white" stop-opacity="0.6"/>
<stop offset="1" stop-color="white" stop-opacity="0.3"/>
</linearGradient>
<linearGradient id="paint32_linear" x1="102.638" y1="13.6272" x2="23.3056" y2="117.701" gradientUnits="userSpaceOnUse">
<stop stop-color="white" stop-opacity="0.6"/>
<stop offset="1" stop-color="white" stop-opacity="0.3"/>
</linearGradient>
<linearGradient id="paint33_linear" x1="102.638" y1="13.6272" x2="23.3056" y2="117.701" gradientUnits="userSpaceOnUse">
<stop stop-color="white" stop-opacity="0.6"/>
<stop offset="1" stop-color="white" stop-opacity="0.3"/>
</linearGradient>
<linearGradient id="paint34_linear" x1="102.638" y1="13.6272" x2="23.3056" y2="117.701" gradientUnits="userSpaceOnUse">
<stop stop-color="white" stop-opacity="0.6"/>
<stop offset="1" stop-color="white" stop-opacity="0.3"/>
</linearGradient>
</defs>
</svg>
