<svg width="28" height="28" viewBox="0 0 28 28" fill="none" preserveAspectRatio="none" xmlns="http://www.w3.org/2000/svg">
<path d="M17.1445 16.4257C17.1111 16.5222 17.0017 16.9153 16.8842 17.2545C16.2454 19.33 13.8609 23.5004 12.3489 25.226C12.1225 25.4938 11.5258 26.1283 11.1479 26.3651C10.7781 26.5786 10.3842 26.7102 9.96367 26.7588C9.42683 26.7973 8.90554 26.6713 8.50291 26.3996C8.23275 26.2057 7.59509 25.5269 7.58703 25.5129C6.90674 24.7603 5.99949 23.423 5.10894 21.8805C4.26044 20.4109 3.58878 19.0134 3.23623 18.0543C3.24545 18.0303 2.86641 16.9481 2.87503 16.4975C2.89229 15.6734 3.3957 14.8772 4.16869 14.431L4.23551 14.3924C4.74757 14.1167 6.02515 13.8846 6.03322 13.8986C8.18287 13.5115 12.8445 13.4767 15.0201 13.9859C15.0201 13.9859 15.614 14.0967 15.9095 14.2095C16.3553 14.3591 16.7072 14.6601 16.9256 15.0382C17.1692 15.4603 17.2453 15.9405 17.1445 16.4257Z" fill="#00D1FF"/>
<path d="M11.3761 8.89812C11.435 8.81316 11.6487 8.46009 11.8559 8.16127C13.0445 6.31254 16.5169 2.87741 18.471 1.58929C18.7661 1.38737 19.5247 0.924077 19.9606 0.79058C20.3823 0.67759 20.8058 0.650002 21.2329 0.709691C21.7719 0.808579 22.2512 1.06301 22.5744 1.42845C22.7881 1.68486 23.233 2.50433 23.2372 2.51991C23.7041 3.42172 24.2368 4.94758 24.6978 6.66799C25.137 8.30717 25.4216 9.83154 25.5101 10.8503C25.4946 10.8711 25.576 12.0158 25.446 12.4502C25.2068 13.2442 24.4964 13.8878 23.615 14.1239L23.5388 14.1444C22.9602 14.2815 21.6397 14.1821 21.6355 14.1665C19.4145 13.9959 14.815 12.8465 12.81 11.801C12.81 11.801 12.2552 11.543 11.9946 11.3587C11.596 11.1006 11.3306 10.7197 11.2176 10.2979C11.0914 9.82718 11.146 9.34262 11.3761 8.89812Z" fill="#86FF4D"/>
</svg>
