<svg width="28" height="28" fill="none" preserveAspectRatio="none" xmlns="http://www.w3.org/2000/svg"><path d="M17.145 16.426c-.034.096-.143.49-.26.829-.64 2.075-3.024 6.245-4.536 7.971-.226.268-.823.902-1.201 1.14-.37.213-.764.344-1.184.393-.537.038-1.058-.088-1.461-.36-.27-.193-.908-.872-.916-.886-.68-.753-1.588-2.09-2.478-3.633-.849-1.47-1.52-2.867-1.873-3.826.01-.024-.37-1.106-.361-1.556.017-.825.52-1.62 1.294-2.067l.067-.039c.512-.275 1.79-.507 1.797-.493 2.15-.387 6.811-.422 8.987.087 0 0 .594.11.89.223.445.15.797.451 1.016.83.243.421.32.902.219 1.387Z" fill="#00D1FF"/><path d="M11.376 8.898c.059-.085.273-.438.48-.737 1.188-1.848 4.66-5.284 6.615-6.572.295-.202 1.054-.665 1.49-.798A3.17 3.17 0 0 1 21.233.71c.539.099 1.018.353 1.341.718.214.257.659 1.076.663 1.092.467.902 1 2.428 1.46 4.148.44 1.64.725 3.164.813 4.182-.015.021.066 1.166-.064 1.6-.24.794-.95 1.438-1.831 1.674l-.076.02c-.579.137-1.9.038-1.904.022-2.22-.17-6.82-1.32-8.825-2.365 0 0-.555-.258-.815-.442a1.822 1.822 0 0 1-.777-1.061 1.92 1.92 0 0 1 .158-1.4Z" fill="#86FF4D"/></svg>