<svg width="24" height="24" viewBox="0 0 24 24" fill="none" xmlns="http://www.w3.org/2000/svg">
<path d="M15 9.00004L4.5 20.5M4.5 3.50004L15 15M4 3.71004V20.29C4.00004 20.4129 4.03241 20.5336 4.09386 20.64C4.15532 20.7463 4.24369 20.8347 4.35009 20.8961C4.4565 20.9575 4.5772 20.9898 4.70006 20.9898C4.82291 20.9898 4.9436 20.9575 5.05 20.896L19.672 12.476C19.7557 12.4278 19.8252 12.3583 19.8735 12.2747C19.9219 12.191 19.9473 12.0961 19.9473 11.9995C19.9473 11.9029 19.9219 11.808 19.8735 11.7244C19.8252 11.6407 19.7557 11.5713 19.672 11.523L5.05 3.10404C4.94353 3.04257 4.82275 3.01022 4.6998 3.01025C4.57686 3.01029 4.4561 3.0427 4.34966 3.10423C4.24322 3.16576 4.15487 3.25424 4.09349 3.36076C4.03211 3.46728 3.99986 3.58709 4 3.71004Z" stroke="currentColor" stroke-width="2" stroke-linecap="round" stroke-linejoin="round"/>
</svg>
