<svg width="20" height="20" viewBox="0 0 20 20" fill="none" xmlns="http://www.w3.org/2000/svg">
<path d="M13.016 0.878151C12.9549 0.863645 12.8889 0.863242 12.8223 0.883034C12.0856 1.10137 11.3441 1.60867 10.8382 2.24534C10.3824 2.83034 9.99168 3.70263 10 4.61513C10.0025 4.87846 10.2359 5.08116 10.485 5.02366C11.2384 4.84782 12.0037 4.26419 12.5212 3.61253C12.9637 2.96336 13.2827 2.17931 13.3268 1.31598C13.3381 1.1016 13.1992 0.921666 13.016 0.878151ZM6.96127 5.03342C5.60794 5.03342 4.1586 5.84842 3.28777 7.11676C2.0311 8.92842 2.22457 12.3711 4.25457 15.2694C5.02873 16.3561 5.99432 17.5334 7.25099 17.5334C8.41099 17.5334 8.70153 16.8091 10.249 16.8091C11.7965 16.8091 12.0855 17.5334 13.2455 17.5334C14.5988 17.5334 15.5662 16.2649 16.3395 15.1783C16.742 14.6758 16.9585 14.3035 17.1826 13.8502C17.3518 13.5077 17.2255 13.0952 16.8913 12.9094C14.6971 11.6877 14.2955 8.77082 16.193 7.15582C16.5447 6.85665 16.5752 6.31027 16.2061 6.03277C15.3761 5.40777 14.4276 5.03342 13.5368 5.03342C11.9893 5.03342 11.3132 5.86676 10.249 5.86676C9.18487 5.86676 8.31461 5.03342 6.96127 5.03342Z" fill="white"/>
</svg>
