<?xml version="1.0" standalone="no"?>
<!DOCTYPE svg PUBLIC "-//W3C//DTD SVG 20010904//EN"
 "http://www.w3.org/TR/2001/REC-SVG-20010904/DTD/svg10.dtd">
<svg version="1.0" xmlns="http://www.w3.org/2000/svg"
 width="700.000000pt" height="700.000000pt" viewBox="0 0 700.000000 700.000000"
 preserveAspectRatio="xMidYMid meet">
<metadata>
Created by potrace 1.14, written by Peter Selinger 2001-2017
</metadata>
<g transform="translate(0.000000,700.000000) scale(0.100000,-0.100000)"
fill="#000000" stroke="none">
<path d="M437 6044 c-1 -1 -21 -4 -44 -8 -53 -7 -135 -41 -188 -77 -56 -38
-98 -84 -139 -152 -69 -115 -66 -66 -65 -1364 1 -1270 -2 -1218 57 -1327 37
-71 136 -167 202 -198 124 -58 -103 -55 3260 -53 l3095 1 58 21 c159 59 269
179 311 339 14 52 16 200 16 1214 0 712 -4 1178 -10 1215 -27 165 -151 306
-321 366 l-64 23 -3083 1 c-1696 0 -3084 0 -3085 -1z m5439 -1274 c7 0 10 -97
9 -307 -1 -170 -3 -312 -3 -318 -1 -7 -769 -9 -2285 -8 -1255 0 -2292 2 -2303
2 -21 1 -21 2 -22 304 0 166 1 309 4 317 3 13 266 15 2296 13 1261 -1 2298 -3
2304 -3z"/>
<path d="M205 2205 c-58 -24 -82 -41 -123 -85 -32 -36 -35 -40 -57 -90 -19
-42 -20 -67 -20 -440 l0 -395 26 -55 c34 -71 86 -122 157 -157 l57 -27 376 -1
c412 -1 434 1 518 60 49 34 106 115 122 175 8 31 11 159 11 410 -1 338 -2 370
-20 417 -30 79 -84 138 -160 175 l-67 33 -381 2 c-378 1 -382 1 -439 -22z"/>
</g>
</svg>
