<svg width="16" height="16" fill="none" preserveAspectRatio="none" xmlns="http://www.w3.org/2000/svg"><rect x=".5" y=".5" width="15" height="15" rx="3.5" fill="#000" stroke="#464646"/><path d="M3 5.014h1.256c.114 0 .212.03.293.088a.41.41 0 0 1 .16.225l.936 3.731c.047.205.087.404.121.6.034.195.066.388.096.578.046-.19.095-.383.146-.578l.172-.6 1.084-3.745a.435.435 0 0 1 .146-.224A.435.435 0 0 1 7.685 5h.694c.11 0 .204.03.28.089a.41.41 0 0 1 .16.224l1.052 3.745c.055.21.106.411.153.606.05.196.097.39.14.586.034-.195.07-.39.108-.586.038-.195.083-.397.134-.606l.962-3.731a.458.458 0 0 1 .16-.225.436.436 0 0 1 .274-.088H13L10.922 12H9.66c-.144 0-.244-.1-.3-.3L8.189 7.662a6.828 6.828 0 0 1-.185-.803 9.463 9.463 0 0 1-.191.817L6.62 11.7c-.05.2-.163.3-.338.3h-1.21L3 5.014Z" fill="#58FFF5"/></svg>