<svg width="94" height="24" viewBox="0 0 94 24" fill="none" xmlns="http://www.w3.org/2000/svg">
<path d="M38.4736 18.3145C37.2979 18.3145 36.2376 18.063 35.2926 17.5601C34.3477 17.0462 33.606 16.3409 33.0676 15.4444C32.5292 14.5368 32.26 13.5254 32.26 12.4102C32.26 11.2949 32.5292 10.289 33.0676 9.39242C33.606 8.4849 34.3477 7.77966 35.2926 7.2767C36.2376 6.76281 37.2979 6.50586 38.4736 6.50586C39.6493 6.50586 40.7096 6.76281 41.6545 7.2767C42.5995 7.77966 43.3411 8.47944 43.8795 9.37602C44.4179 10.2726 44.6871 11.284 44.6871 12.4102C44.6871 13.5364 44.4179 14.5478 43.8795 15.4444C43.3411 16.3409 42.5995 17.0462 41.6545 17.5601C40.7096 18.063 39.6493 18.3145 38.4736 18.3145ZM38.4736 16.4448C39.2427 16.4448 39.9349 16.2753 40.5502 15.9364C41.1656 15.5865 41.649 15.1054 42.0006 14.4931C42.3522 13.8699 42.528 13.1756 42.528 12.4102C42.528 11.6448 42.3522 10.956 42.0006 10.3437C41.649 9.72044 41.1656 9.23934 40.5502 8.90039C39.9349 8.55051 39.2427 8.37556 38.4736 8.37556C37.7044 8.37556 37.0122 8.55051 36.3969 8.90039C35.7816 9.23934 35.2981 9.72044 34.9465 10.3437C34.5949 10.956 34.4191 11.6448 34.4191 12.4102C34.4191 13.1756 34.5949 13.8699 34.9465 14.4931C35.2981 15.1054 35.7816 15.5865 36.3969 15.9364C37.0122 16.2753 37.7044 16.4448 38.4736 16.4448ZM58.7921 18.1505L56.4352 14.7883C56.3363 14.7993 56.188 14.8047 55.9902 14.8047H53.3861V18.1505H51.2434V6.66987H55.9902C56.9901 6.66987 57.8581 6.83388 58.5943 7.1619C59.3415 7.48991 59.9128 7.96007 60.3084 8.57237C60.7039 9.18468 60.9017 9.91178 60.9017 10.7537C60.9017 11.6175 60.6874 12.361 60.2589 12.9842C59.8414 13.6075 59.2371 14.0721 58.446 14.3783L61.0995 18.1505H58.7921ZM58.7426 10.7537C58.7426 10.0211 58.5009 9.45802 58.0174 9.0644C57.534 8.67078 56.8253 8.47397 55.8913 8.47397H53.3861V13.0498H55.8913C56.8253 13.0498 57.534 12.853 58.0174 12.4594C58.5009 12.0548 58.7426 11.4863 58.7426 10.7537ZM72.9239 18.3145C71.7592 18.3145 70.7044 18.063 69.7595 17.5601C68.8255 17.0462 68.0893 16.3409 67.5509 15.4444C67.0235 14.5478 66.7598 13.5364 66.7598 12.4102C66.7598 11.284 67.029 10.2726 67.5674 9.37602C68.1058 8.47944 68.842 7.77966 69.7759 7.2767C70.7209 6.76281 71.7757 6.50586 72.9404 6.50586C73.8854 6.50586 74.7479 6.66987 75.528 6.99789C76.3081 7.3259 76.9674 7.80153 77.5058 8.42477L76.1214 9.72044C75.2863 8.82386 74.2589 8.37556 73.0393 8.37556C72.2482 8.37556 71.5395 8.55051 70.9132 8.90039C70.2869 9.23934 69.7979 9.71497 69.4463 10.3273C69.0947 10.9396 68.9189 11.6339 68.9189 12.4102C68.9189 13.1865 69.0947 13.8808 69.4463 14.4931C69.7979 15.1054 70.2869 15.5865 70.9132 15.9364C71.5395 16.2753 72.2482 16.4448 73.0393 16.4448C74.2589 16.4448 75.2863 15.9911 76.1214 15.0835L77.5058 16.3956C76.9674 17.0188 76.3027 17.4945 75.5115 17.8225C74.7314 18.1505 73.8689 18.3145 72.9239 18.3145ZM88.871 6.50586C89.9038 6.50586 90.8048 6.70814 91.5739 7.11269C92.3431 7.51725 92.9364 8.11862 93.354 8.91679C93.7825 9.70404 93.9967 10.6608 93.9967 11.787V18.1505H91.8541V15.1983H85.8548V18.1505H83.7452V11.787C83.7452 10.6608 83.954 9.70404 84.3715 8.91679C84.8 8.11862 85.3988 7.51725 86.168 7.11269C86.9371 6.70814 87.8381 6.50586 88.871 6.50586ZM91.8541 13.4106V11.5901C91.8541 10.5296 91.5904 9.73137 91.063 9.19561C90.5356 8.64891 89.7994 8.37556 88.8545 8.37556C87.9095 8.37556 87.1734 8.64891 86.646 9.19561C86.1185 9.73137 85.8548 10.5296 85.8548 11.5901V13.4106H91.8541Z" fill="black"/>
<path d="M24.1181 12C24.1181 18.6274 18.7191 24 12.059 24C5.39901 24 0 18.6274 0 12C0 5.37258 5.39901 0 12.059 0C18.7191 0 24.1181 5.37258 24.1181 12Z" fill="#FFD15C"/>
<path d="M6.21826 16.9175C6.32232 16.8472 6.41945 16.7418 6.46779 16.5922C6.52152 16.426 6.48982 16.2798 6.46466 16.1988C6.46384 16.1962 6.46296 16.1934 6.46208 16.1907L6.48284 16.073C6.53822 16.104 6.60124 16.1469 6.67392 16.1977C6.69145 16.21 6.71595 16.2274 6.74144 16.2455C6.7749 16.2693 6.81017 16.2943 6.83368 16.3106C6.87406 16.3385 6.93142 16.3775 6.99218 16.4096C8.60029 17.4042 9.93019 17.8142 10.9865 17.7634C12.0786 17.7109 12.8444 17.1642 13.2395 16.3664C13.6213 15.5952 13.6346 14.6397 13.367 13.7544C13.0977 12.8635 12.5313 11.9976 11.6871 11.3984C10.2645 10.3888 8.96096 8.85353 8.30181 7.54812C7.96707 6.88514 7.8339 6.35047 7.86906 6.00135C7.88537 5.83887 7.93542 5.74058 7.99525 5.67733C8.05514 5.61402 8.16424 5.5442 8.37444 5.50976C8.81966 5.43677 9.3346 5.27721 9.85718 5.11529C10.0601 5.05242 10.2641 4.9892 10.4656 4.93055C11.2188 4.71138 12.0162 4.52725 12.8544 4.52882C14.48 4.53186 16.3878 5.23419 18.3965 8.15589C20.9769 11.9091 19.5603 16.1032 16.5876 18.3065C15.1051 19.4053 13.2554 19.9885 11.3547 19.7667C9.64325 19.5671 7.85076 18.71 6.21826 16.9175Z" fill="white" stroke="black"/>
<path d="M7.69531 5.70123C7.69531 5.70123 12.3051 4.47974 13.3144 4.47974C14.3237 4.47974 18.3566 6.42856 19.5336 9.98991C21.2021 15.0386 16.6637 18.349 16.1512 18.0244C21.0338 14.0071 13.0416 6.58152 9.11372 7.13981C8.62273 7.20962 8.8955 7.62839 8.8955 7.62839L8.78639 8.71413L7.96808 7.35696L7.69531 5.70123Z" fill="black"/>
<path d="M18.8621 8.47144C20.3178 11.0215 20.0152 9.5615 19.6921 12.4766C20.2901 11.5139 21.2252 12.2347 21.6114 12.6028C21.6806 12.6688 21.7948 12.6279 21.7916 12.5326C21.7768 12.1002 21.6523 11.1658 20.933 10.1635C19.9467 8.7889 18.8621 8.47144 18.8621 8.47144Z" fill="black"/>
<path d="M19.6921 12.4766C19.7477 12.3398 19.8346 12.1262 19.8346 12.1262M19.6921 12.4766C20.0152 9.5615 20.3178 11.0215 18.8621 8.47144C18.8621 8.47144 19.9467 8.7889 20.933 10.1635C21.6523 11.1658 21.7768 12.1002 21.7916 12.5326C21.7948 12.6279 21.6806 12.6688 21.6114 12.6028C21.2252 12.2347 20.2901 11.5139 19.6921 12.4766Z" stroke="black" stroke-width="0.993005"/>
<path d="M7.15016 12.0876C6.53594 13.1224 5.27578 13.0447 5.2999 14.2789C6.42546 16.7674 6.43211 16.5889 6.43211 16.5889C8.51709 15.4234 7.66026 12.8499 7.35091 12.0929C7.31591 12.0074 7.19735 12.008 7.15016 12.0876Z" fill="black"/>
<path d="M2.42385 14.3755C3.6214 14.531 4.33577 13.495 5.29824 14.2738C6.57591 16.6885 6.43043 16.5838 6.43043 16.5838C4.22388 17.5012 2.71342 15.2449 2.3045 14.5363C2.25827 14.4562 2.33181 14.3636 2.42385 14.3755Z" fill="black"/>
<path d="M12.4687 12.8404C12.4687 12.8404 13.6689 14.0619 13.0415 14.2518C12.2592 13.7727 10.8574 14.145 10.1702 14.3756C10.0011 14.4324 9.83522 14.283 9.8962 14.116C10.1299 13.4763 10.7068 12.292 11.8141 12.1346C12.4687 11.9717 12.4687 12.8404 12.4687 12.8404Z" fill="black"/>
<path d="M13.2054 6.86857C13.069 6.6786 12.7963 6.16284 13.6418 6.16284C14.4875 6.16284 15.7795 7.11563 16.0422 7.46808C15.9604 7.68288 15.4149 7.73093 15.1421 7.71005C14.8693 7.68916 14.4056 7.6445 14.051 7.46808C13.6964 7.29166 13.3418 7.0586 13.2054 6.86857Z" fill="white"/>
</svg>
