<svg width="422" height="99" viewBox="0 0 422 99" fill="none" xmlns="http://www.w3.org/2000/svg">
<g opacity="0.1">
<path d="M418.221 49.2915C417.814 59.0494 412.891 66.3694 403.628 71.8959C394.331 77.443 380.682 81.1665 362.91 83.6537C327.373 88.6272 275.605 88.6284 209.835 88.6284C144.065 88.6284 92.2968 88.6272 57.1744 83.6537C39.6096 81.1665 26.2712 77.443 17.4369 71.8959C8.63532 66.3695 4.3223 59.0494 4.72925 49.2915C5.13559 39.5482 10.3737 32.2258 20.0551 26.6921C29.7668 21.141 43.9136 17.4168 62.016 14.9295C98.2131 9.95581 149.983 9.95464 213.116 9.95464C276.249 9.95464 328.018 9.95582 363.801 14.9295C381.696 17.4169 395.532 21.141 404.78 26.6921C414 32.2258 418.628 39.5483 418.221 49.2915Z" stroke="url(#paint0_linear)"/>
<path d="M418.165 54.0908C417.531 63.8366 412.439 71.0404 403.051 76.3503C393.627 81.68 379.896 85.0856 362.07 87.1595C326.427 91.3065 274.673 90.1057 208.921 88.5787C143.169 87.0516 91.4147 85.8484 56.4173 80.0608C38.9149 77.1664 25.6666 73.1342 16.9635 67.3835C8.29261 61.6542 4.15071 54.2359 4.78411 44.4901C5.41657 34.7589 10.8233 27.56 20.6305 22.2526C30.4686 16.9286 44.698 13.5339 62.8533 11.4675C99.1561 7.33559 150.912 8.53644 214.028 10.0023C277.144 11.4682 328.899 12.6713 364.557 18.4745C382.389 21.3767 396.135 25.4211 405.252 31.1854C414.341 36.9317 418.797 44.3596 418.165 54.0908Z" stroke="url(#paint1_linear)"/>
<path d="M418 58.8409C417.142 68.5695 411.886 75.6543 402.378 80.747C392.835 85.8587 379.028 88.9477 361.16 90.6114C325.431 93.9379 273.718 91.5478 208.018 88.5097C142.319 85.4715 90.6059 83.079 55.7507 76.4884C38.3196 73.1925 25.1674 68.8568 16.5988 62.9076C8.06192 56.9804 4.09164 49.4689 4.9489 39.7403C5.80489 30.0262 11.3756 22.9535 21.3023 17.8729C31.2601 12.7764 45.5639 9.70968 63.7618 8.06118C100.15 4.76488 151.864 7.15513 214.93 10.0715C277.996 12.9878 329.71 15.3804 365.224 22.0016C382.985 25.313 396.635 29.6723 405.617 35.6447C414.571 41.5984 418.856 49.1268 418 58.8409Z" stroke="url(#paint2_linear)"/>
</g>
<defs>
<linearGradient id="paint0_linear" x1="213.137" y1="9.45508" x2="213.137" y2="89.128" gradientUnits="userSpaceOnUse">
<stop stop-color="#FF7438"/>
<stop offset="1" stop-color="#7636FF"/>
</linearGradient>
<linearGradient id="paint1_linear" x1="214.06" y1="9.50335" x2="212.21" y2="89.1548" gradientUnits="userSpaceOnUse">
<stop stop-color="#FF7438"/>
<stop offset="1" stop-color="#7636FF"/>
</linearGradient>
<linearGradient id="paint2_linear" x1="214.974" y1="9.57339" x2="211.294" y2="89.1612" gradientUnits="userSpaceOnUse">
<stop stop-color="#FF7438"/>
<stop offset="1" stop-color="#7636FF"/>
</linearGradient>
</defs>
</svg>
