<svg width="24" height="24" viewBox="0 0 24 24" fill="none" xmlns="http://www.w3.org/2000/svg">
<path fill-rule="evenodd" clip-rule="evenodd" d="M16.71 13.71L12.71 17.71C12.6149 17.801 12.5028 17.8724 12.38 17.92C12.1365 18.02 11.8635 18.02 11.62 17.92C11.4972 17.8724 11.3851 17.801 11.29 17.71L7.29 13.71C7.10069 13.5222 6.9942 13.2666 6.9942 13C6.9942 12.7334 7.10069 12.4778 7.29 12.29C7.47777 12.1007 7.73336 11.9942 8 11.9942C8.26664 11.9942 8.52223 12.1007 8.71 12.29L11 14.59V3C11 2.44772 11.4477 2 12 2C12.5523 2 13 2.44772 13 3L13 14.59L15.29 12.29C15.5437 12.0363 15.9134 11.9373 16.2599 12.0301C16.6064 12.123 16.877 12.3936 16.9699 12.7401C17.0627 13.0866 16.9637 13.4563 16.71 13.71ZM19 20C19.5523 20 20 20.4477 20 21C20 21.5523 19.5523 22 19 22H5C4.44772 22 4 21.5523 4 21C4 20.4477 4.44772 20 5 20H19Z" fill="currentColor"/>
</svg>
