<svg width="24" height="24" viewBox="0 0 24 24" fill="none" xmlns="http://www.w3.org/2000/svg">
<path d="M16.8 4.8C15.0354 4.8 13.6 6.213 13.6 7.95C13.6 9.3486 14.5371 10.5231 15.8217 10.9335C15.6882 11.7723 15.3216 12.4635 14.6971 13.0242C12.9179 14.6199 9.64389 14.7657 8.11429 14.7405V9.1533C9.43086 8.7627 10.4 7.572 10.4 6.15C10.4 4.413 8.96457 3 7.2 3C5.43543 3 4 4.413 4 6.15C4 7.572 4.96914 8.7627 6.28571 9.1533V14.8467C4.96914 15.2373 4 16.428 4 17.85C4 19.587 5.43543 21 7.2 21C8.96457 21 10.4 19.587 10.4 17.85C10.4 17.3541 10.272 16.8915 10.0645 16.4739C11.9479 16.3065 14.3223 15.7926 15.9241 14.3589C16.9271 13.4616 17.5067 12.3213 17.6649 10.9677C19.008 10.5942 20 9.39 20 7.95C20 6.213 18.5646 4.8 16.8 4.8ZM5.82857 6.15C5.82857 5.4057 6.44389 4.8 7.2 4.8C7.95611 4.8 8.57143 5.4057 8.57143 6.15C8.57143 6.8943 7.95611 7.5 7.2 7.5C6.44389 7.5 5.82857 6.8943 5.82857 6.15ZM7.2 19.2C6.44389 19.2 5.82857 18.5943 5.82857 17.85C5.82857 17.1111 6.43566 16.5108 7.18354 16.5018C7.21463 16.5045 7.24937 16.5063 7.3024 16.5108C8.01097 16.563 8.57143 17.1399 8.57143 17.85C8.57143 18.5943 7.95611 19.2 7.2 19.2ZM16.8 9.3C16.0439 9.3 15.4286 8.6943 15.4286 7.95C15.4286 7.2057 16.0439 6.6 16.8 6.6C17.5561 6.6 18.1714 7.2057 18.1714 7.95C18.1714 8.6943 17.5561 9.3 16.8 9.3Z" fill="currentColor"/>
</svg>
