<svg width="24" height="24" viewBox="0 0 24 24" fill="none" xmlns="http://www.w3.org/2000/svg">
<path d="M10.667 12.6665C10.9533 13.0492 11.3186 13.3659 11.738 13.5951C12.1575 13.8243 12.6213 13.9606 13.0981 13.9947C13.5749 14.0288 14.0534 13.9601 14.5012 13.793C14.9491 13.6259 15.3557 13.3645 15.6937 13.0265L17.6937 11.0265C18.3009 10.3978 18.6368 9.5558 18.6292 8.68181C18.6216 7.80782 18.2711 6.97178 17.6531 6.35375C17.035 5.73573 16.199 5.38516 15.325 5.37757C14.451 5.36997 13.609 5.70595 12.9803 6.31315L11.8337 7.45315" stroke="currentColor" stroke-width="2" stroke-linecap="round" stroke-linejoin="round"/>
<path d="M13.3335 11.3333C13.0472 10.9506 12.6819 10.6339 12.2624 10.4047C11.843 10.1755 11.3791 10.0392 10.9024 10.0051C10.4256 9.97095 9.94707 10.0397 9.49924 10.2068C9.0514 10.3739 8.64472 10.6353 8.3068 10.9733L6.3068 12.9733C5.69961 13.602 5.36363 14.444 5.37122 15.318C5.37881 16.192 5.72938 17.028 6.3474 17.646C6.96543 18.2641 7.80147 18.6146 8.67546 18.6222C9.54945 18.6298 10.3915 18.2938 11.0201 17.6867L12.1601 16.5467" stroke="currentColor" stroke-width="2" stroke-linecap="round" stroke-linejoin="round"/>
</svg>
