<svg width="24" height="24" viewBox="0 0 24 24" fill="none" xmlns="http://www.w3.org/2000/svg">
<path d="M6.0375 10.8375C6.7125 10.875 7.05 10.575 7.05 9.975C7.05 9.375 6.6375 8.9625 6.0375 8.9625H3.525C4.725 4.875 8.4 1.9875 12.7125 1.9875C17.1 1.9875 20.8875 4.9875 21.975 9.2625C22.0875 9.75 22.6875 10.1625 23.175 9.975C23.6625 9.8625 24.075 9.2625 23.8875 8.775C22.4625 3.6 17.8875 0 12.6 0C7.9125 0 3.825 2.8875 1.875 7.1625V4.9875C1.875 4.4625 1.65 3.975 1.05 3.975C0.45 3.975 0.0375 4.3875 0 4.9875V9.675C0.0375 10.3875 0.6 10.875 1.35 10.8375H6.0375Z" fill="currentColor"/>
<path d="M22.6494 13.8375H18.2619C17.9619 13.8375 17.6244 13.9125 17.3994 14.1C17.1369 14.2875 16.9494 14.5875 16.9494 14.9625C16.9494 15.45 17.3994 15.7125 17.9619 15.7125H20.4369C19.0494 19.5375 15.5619 21.9375 11.6619 21.9375C7.5744 21.9375 4.0119 19.35 2.6994 15.375C2.5119 14.8875 1.9869 14.5875 1.3869 14.775C0.899404 14.9625 0.599404 15.4875 0.786904 16.0875C2.4369 20.8125 6.7119 24 11.6994 24C16.0869 24 19.9494 21.525 22.1244 17.625V19.9125C22.1619 20.475 22.3494 20.925 22.9494 20.925C23.5494 20.925 23.9619 20.5125 23.9994 19.9125V15.225C23.9619 14.55 23.3619 13.95 22.6494 13.8375Z" fill="currentColor"/>
</svg>
