<svg width="24" height="24" viewBox="0 0 24 24" fill="none" xmlns="http://www.w3.org/2000/svg">
<path fill-rule="evenodd" clip-rule="evenodd" d="M12.7392 2.81138C12.3426 2.37602 11.6574 2.37602 11.2608 2.81138L9.92945 4.27264L8.04583 3.67283C7.48465 3.49412 6.89133 3.83668 6.7655 4.41203L6.34315 6.34319L4.41198 6.76555C3.83663 6.89138 3.49408 7.4847 3.67278 8.04588L4.27259 9.9295L2.81133 11.2608C2.37598 11.6575 2.37598 12.3426 2.81133 12.7392L4.27259 14.0706L3.67278 15.9542C3.49408 16.5154 3.83663 17.1087 4.41198 17.2345L6.34315 17.6569L6.7655 19.5881C6.89133 20.1634 7.48465 20.506 8.04584 20.3273L9.92945 19.7275L11.2608 21.1887C11.6574 21.6241 12.3426 21.6241 12.7392 21.1887L14.0706 19.7275L15.9542 20.3273C16.5154 20.506 17.1087 20.1634 17.2345 19.5881L17.6569 17.6569L19.588 17.2345C20.1634 17.1087 20.5059 16.5154 20.3272 15.9542L19.7274 14.0706L21.1887 12.7392C21.624 12.3426 21.624 11.6575 21.1887 11.2608L19.7274 9.9295L20.3272 8.04588C20.5059 7.48469 20.1634 6.89138 19.588 6.76555L17.6569 6.34319L17.2345 4.41203C17.1087 3.83667 16.5154 3.49412 15.9542 3.67283L14.0706 4.27264L12.7392 2.81138ZM13.0025 7.5556L10.0576 16.1527L10.9724 16.4445L13.9173 7.87176L13.0025 7.5556ZM10.1704 7.88392C9.16792 7.88392 8.66667 8.4757 8.66667 9.65927C8.66667 10.8347 9.16792 11.4225 10.1704 11.4225C11.1729 11.4225 11.6742 10.8347 11.6742 9.65927C11.6742 8.4757 11.1729 7.88392 10.1704 7.88392ZM9.89474 9.64711C9.89474 9.35527 9.91145 9.1526 9.94486 9.03911C9.98663 8.91751 10.0618 8.85671 10.1704 8.85671C10.279 8.85671 10.35 8.91751 10.3835 9.03911C10.4252 9.1526 10.4461 9.35527 10.4461 9.64711C10.4461 9.93894 10.4252 10.1457 10.3835 10.2673C10.35 10.3889 10.279 10.4497 10.1704 10.4497C10.0618 10.4497 9.98663 10.3889 9.94486 10.2673C9.91145 10.1457 9.89474 9.93894 9.89474 9.64711ZM13.8296 12.6628C12.8271 12.6628 12.3258 13.2545 12.3258 14.4381C12.3258 15.6136 12.8271 16.2013 13.8296 16.2013C14.8321 16.2013 15.3333 15.6136 15.3333 14.4381C15.3333 13.2545 14.8321 12.6628 13.8296 12.6628ZM13.5539 14.4259C13.5539 14.1341 13.5706 13.9314 13.604 13.818C13.6458 13.6964 13.721 13.6356 13.8296 13.6356C13.9382 13.6356 14.0092 13.6964 14.0426 13.818C14.0844 13.9314 14.1053 14.1341 14.1053 14.4259C14.1053 14.7178 14.0844 14.9245 14.0426 15.0461C14.0092 15.1677 13.9382 15.2285 13.8296 15.2285C13.721 15.2285 13.6458 15.1677 13.604 15.0461C13.5706 14.9245 13.5539 14.7178 13.5539 14.4259Z" fill="currentColor"/>
</svg>
