<svg width="24" height="24" viewBox="0 0 24 24" fill="none" xmlns="http://www.w3.org/2000/svg">
<g clip-path="url(#clip0)">
<path d="M10.2939 17.2514C10.0747 17.2514 9.88947 17.1821 9.73803 17.0435C9.58659 16.9049 9.51087 16.7259 9.51087 16.5067C9.51087 16.294 9.58659 16.1167 9.73803 15.9748C9.88947 15.833 10.0747 15.7621 10.2939 15.7621H11.4442V11.7292H10.4582C10.2391 11.7292 10.0554 11.6583 9.90719 11.5164C9.75897 11.3746 9.68486 11.194 9.68486 10.9748C9.68486 10.7621 9.75897 10.5848 9.90719 10.4429C10.0554 10.3011 10.2391 10.2301 10.4582 10.2301H12.2948C12.5719 10.2301 12.7814 10.3188 12.9231 10.4961C13.0649 10.6734 13.1358 10.9071 13.1358 11.1973V15.762H14.2088C14.4279 15.762 14.6132 15.833 14.7646 15.9748C14.916 16.1167 14.9918 16.294 14.9918 16.5067C14.9918 16.7259 14.916 16.9049 14.7646 17.0435C14.6132 17.1821 14.4279 17.2514 14.2088 17.2514L10.2939 17.2514ZM11.9372 8.73112C11.5763 8.73112 11.267 8.60217 11.0092 8.34427C10.7514 8.08637 10.6225 7.7769 10.6225 7.41584C10.6225 7.04189 10.7514 6.72596 11.0092 6.46806C11.2669 6.21017 11.5763 6.08122 11.9372 6.08122C12.3109 6.08122 12.6251 6.21017 12.8796 6.46806C13.1342 6.72596 13.2615 7.04189 13.2615 7.41584C13.2615 7.77689 13.1342 8.08637 12.8796 8.34427C12.6251 8.60217 12.3109 8.73112 11.9372 8.73112ZM11.9952 22C13.3678 22 14.6567 21.7389 15.8618 21.2166C17.0668 20.6944 18.1286 19.9755 19.0469 19.06C19.9652 18.1444 20.6869 17.0806 21.2122 15.8685C21.7374 14.6563 22 13.3669 22 12C22 10.6331 21.7374 9.34687 21.2122 8.14119C20.6869 6.93552 19.9652 5.87169 19.0469 4.94971C18.1286 4.02772 17.0652 3.30561 15.8569 2.78337C14.6486 2.26112 13.3581 2 11.9855 2C10.6193 2 9.33365 2.26112 8.12856 2.78337C6.92347 3.30561 5.86176 4.02772 4.94345 4.94971C4.02513 5.8717 3.30498 6.93552 2.78298 8.14119C2.26099 9.34687 2 10.6331 2 12C2 13.3669 2.26099 14.6563 2.78298 15.8685C3.30497 17.0806 4.02674 18.1444 4.94828 19.06C5.86982 19.9755 6.93314 20.6944 8.13822 21.2166C9.34331 21.7389 10.629 22 11.9952 22Z" fill="currentColor"/>
</g>
<defs>
<clipPath id="clip0">
<rect width="20" height="20" fill="white" transform="translate(2 2)"/>
</clipPath>
</defs>
</svg>
