<svg width="16" height="16" viewBox="0 0 16 16" fill="none" xmlns="http://www.w3.org/2000/svg">
<path d="M2.9082 5.13659C2.9082 5.45289 3.16462 5.70931 3.48093 5.70931H4.03952V8.57295C4.03952 9.83639 5.0543 10.8639 6.30214 10.8639H7.43346V13.1618C7.43346 13.4742 7.68671 13.7275 7.99911 13.7275C8.31152 13.7275 8.56477 13.4742 8.56477 13.1618V10.8639H9.69608C10.9439 10.8639 11.9587 9.83639 11.9587 8.57295V5.70931H12.5173C12.8336 5.70931 13.09 5.45289 13.09 5.13659C13.09 4.82028 12.8336 4.56386 12.5173 4.56386H3.48093C3.16462 4.56386 2.9082 4.82028 2.9082 5.13659ZM5.17083 2.83861C5.17083 2.5262 5.42408 2.27295 5.73649 2.27295C6.04889 2.27295 6.30214 2.5262 6.30214 2.83861V3.99113H5.17083V2.83861ZM9.69608 2.83861C9.69608 2.5262 9.94934 2.27295 10.2617 2.27295C10.5741 2.27295 10.8274 2.5262 10.8274 2.83861V3.99113H9.69608V2.83861Z" fill="currentColor"/>
</svg>
