<svg width="20" height="20" viewBox="0 0 20 20" fill="none" xmlns="http://www.w3.org/2000/svg">
<g clip-path="url(#clip0)">
<path d="M10 20C11.366 20 12.652 19.7386 13.8579 19.2157C15.0637 18.6928 16.1275 17.9722 17.049 17.0539C17.9706 16.1356 18.6928 15.0719 19.2157 13.8628C19.7386 12.6536 20 11.366 20 10C20 8.63399 19.7386 7.34804 19.2157 6.14216C18.6928 4.93627 17.9706 3.87255 17.049 2.95098C16.1275 2.02941 15.0621 1.30719 13.8529 0.784314C12.6438 0.261438 11.3562 0 9.9902 0C8.62419 0 7.33824 0.261438 6.13235 0.784314C4.92647 1.30719 3.86438 2.02941 2.94608 2.95098C2.02778 3.87255 1.30719 4.93628 0.784314 6.14216C0.261438 7.34804 0 8.63399 0 10C0 11.366 0.261438 12.6536 0.784314 13.8628C1.30719 15.0719 2.02941 16.1356 2.95098 17.0539C3.87255 17.9722 4.93628 18.6928 6.14216 19.2157C7.34804 19.7386 8.63399 20 10 20ZM9.81373 12.1274C9.26471 12.1274 8.9902 11.8595 8.9902 11.3235C8.9902 11.2974 8.9902 11.2729 8.9902 11.25C8.9902 11.2271 8.9902 11.2059 8.9902 11.1863C8.9902 10.683 9.11275 10.2761 9.35785 9.96567C9.60294 9.65521 9.9085 9.37253 10.2745 9.11763C10.732 8.81043 11.0703 8.54246 11.2892 8.3137C11.5082 8.08494 11.6177 7.79409 11.6177 7.44115C11.6177 7.05553 11.4771 6.7418 11.1961 6.49997C10.915 6.25814 10.5392 6.13723 10.0686 6.13723C9.72223 6.13723 9.42157 6.21729 9.16667 6.37742C8.91177 6.53756 8.70589 6.75815 8.54902 7.03919C8.38562 7.23527 8.25 7.40031 8.14216 7.53429C8.03432 7.66828 7.83334 7.73527 7.53922 7.73527C7.36928 7.73527 7.20915 7.67482 7.05883 7.5539C6.9085 7.43298 6.83334 7.25815 6.83334 7.02939C6.83334 6.94442 6.83987 6.85946 6.85294 6.77449C6.86602 6.68952 6.88562 6.60455 6.91177 6.51959C7.04249 6.04246 7.39053 5.62743 7.95589 5.27449C8.52125 4.92154 9.2451 4.74507 10.1275 4.74507C10.7157 4.74507 11.2582 4.84474 11.7549 5.04409C12.2516 5.24344 12.6503 5.53756 12.951 5.92644C13.2516 6.31533 13.402 6.79409 13.402 7.36272C13.402 7.98364 13.2418 8.47056 12.9216 8.8235C12.6013 9.17645 12.1928 9.52285 11.6961 9.86272C11.3366 10.1045 11.0703 10.3284 10.8971 10.5343C10.7239 10.7402 10.6373 10.9869 10.6373 11.2745C10.6373 11.2941 10.6373 11.3153 10.6373 11.3382C10.6373 11.3611 10.6373 11.3823 10.6373 11.4019C10.6373 11.6046 10.5637 11.7761 10.4167 11.9166C10.2696 12.0572 10.0686 12.1274 9.81373 12.1274L9.81373 12.1274ZM9.84314 15.0784C9.5621 15.0784 9.30883 14.9787 9.08334 14.7794C8.85785 14.58 8.7451 14.3268 8.7451 14.0196C8.7451 13.7189 8.85785 13.4673 9.08334 13.2647C9.30883 13.0621 9.5621 12.9608 9.84314 12.9608C10.1307 12.9608 10.3873 13.0604 10.6127 13.2598C10.8382 13.4591 10.951 13.7124 10.951 14.0196C10.951 14.3333 10.8382 14.5882 10.6127 14.7843C10.3873 14.9804 10.1307 15.0784 9.84314 15.0784V15.0784Z" fill="currentColor"/>
</g>
<defs>
<clipPath id="clip0">
<rect width="20" height="20" fill="white"/>
</clipPath>
</defs>
</svg>
