<svg width="24" height="24" viewBox="0 0 24 24" fill="none" xmlns="http://www.w3.org/2000/svg">
<path d="M12 2.25C6.62391 2.25 2.25 6.62437 2.25 12C2.25 17.3841 6.61594 21.75 12 21.75C17.3761 21.75 21.75 17.3761 21.75 12C21.75 6.61547 17.3845 2.25 12 2.25ZM16.4062 12.5156C16.4062 13.3871 16.1478 14.239 15.6637 14.9636C15.1795 15.6882 14.4913 16.253 13.6862 16.5865C12.8811 16.92 11.9951 17.0072 11.1404 16.8372C10.2857 16.6672 9.50054 16.2475 8.88431 15.6313C8.26809 15.0151 7.84843 14.23 7.67841 13.3752C7.5084 12.5205 7.59566 11.6346 7.92916 10.8294C8.26265 10.0243 8.82741 9.33613 9.55202 8.85196C10.2766 8.3678 11.1285 8.10938 12 8.10938H12.1973L11.5362 7.4482C11.28 7.19202 11.2799 6.77668 11.5361 6.52043C11.7923 6.26409 12.2078 6.26404 12.4641 6.52031L14.096 8.15227C14.4865 8.54279 14.4865 9.17596 14.096 9.56648L12.4641 11.1984C12.2078 11.4547 11.7922 11.4547 11.5359 11.1984C11.2796 10.9421 11.2796 10.5266 11.5359 10.2703L12.3806 9.42562C12.2681 9.42188 12.1406 9.42188 12 9.42188C11.3881 9.42188 10.79 9.60332 10.2812 9.94327C9.77244 10.2832 9.37591 10.7664 9.14175 11.3317C8.90759 11.897 8.84632 12.5191 8.9657 13.1192C9.08507 13.7193 9.37972 14.2706 9.81239 14.7032C10.2451 15.1359 10.7963 15.4306 11.3964 15.5499C11.9966 15.6693 12.6186 15.608 13.1839 15.3739C13.7492 15.1397 14.2324 14.7432 14.5724 14.2344C14.9123 13.7257 15.0938 13.1275 15.0938 12.5156C15.0938 12.1532 15.3876 11.8594 15.75 11.8594C16.1124 11.8594 16.4062 12.1532 16.4062 12.5156Z" fill="currentColor"/>
</svg>
