<svg width="24" height="24" viewBox="0 0 24 24" fill="none" xmlns="http://www.w3.org/2000/svg">
<path d="M12.6407 2.26834C12.8229 2.44723 12.914 2.6619 12.914 2.91235V4.72809C12.914 4.97854 12.8229 5.19172 12.6407 5.36762C12.4585 5.54353 12.2449 5.63149 12 5.63149C11.7551 5.63149 11.5415 5.54353 11.3593 5.36762C11.1771 5.19172 11.086 4.97854 11.086 4.72809V2.91235C11.086 2.6619 11.1771 2.44723 11.3593 2.26834C11.5415 2.08945 11.7551 2 12 2C12.2449 2 12.4585 2.08945 12.6407 2.26834Z" fill="currentColor"/>
<path d="M12.6407 18.6324C12.8229 18.8083 12.914 19.0215 12.914 19.2719V21.0877C12.914 21.3381 12.8229 21.5528 12.6407 21.7317C12.4585 21.9106 12.2449 22 12 22C11.7551 22 11.5415 21.9106 11.3593 21.7317C11.1771 21.5528 11.086 21.3381 11.086 21.0877V19.2719C11.086 19.0215 11.1771 18.8083 11.3593 18.6324C11.5415 18.4565 11.7551 18.3685 12 18.3685C12.2449 18.3685 12.4585 18.4565 12.6407 18.6324Z" fill="currentColor"/>
<path d="M21.7312 12.6395C21.552 12.8154 21.3369 12.9034 21.086 12.9034H19.276C19.0311 12.9034 18.819 12.8154 18.6398 12.6395C18.4606 12.4636 18.371 12.2504 18.371 12C18.371 11.7555 18.4606 11.5438 18.6398 11.3649C18.819 11.186 19.0311 11.0966 19.276 11.0966H21.086C21.3369 11.0966 21.552 11.186 21.7312 11.3649C21.9104 11.5438 22 11.7555 22 12C22 12.2504 21.9104 12.4636 21.7312 12.6395Z" fill="currentColor"/>
<path d="M2.26882 11.3649C2.44803 11.186 2.6601 11.0966 2.90502 11.0966H4.72401C4.96894 11.0966 5.1825 11.186 5.36469 11.3649C5.54689 11.5438 5.63799 11.7555 5.63799 12C5.63799 12.2504 5.54689 12.4636 5.36469 12.6395C5.1825 12.8154 4.96894 12.9034 4.72401 12.9034H2.90502C2.6601 12.9034 2.44803 12.8154 2.26882 12.6395C2.08961 12.4636 2 12.2504 2 12C2 11.7555 2.08961 11.5438 2.26882 11.3649Z" fill="currentColor"/>
<path d="M6.84767 7.77816C6.5908 7.77816 6.37575 7.68872 6.20251 7.50983L4.91219 6.21287C4.74492 6.05187 4.66278 5.84167 4.66577 5.58228C4.66876 5.32289 4.75687 5.10673 4.93011 4.9338C5.10932 4.76087 5.32587 4.67739 5.57975 4.68335C5.83363 4.68931 6.04421 4.77578 6.21147 4.94274L7.50179 6.2397C7.67503 6.41263 7.76016 6.6273 7.75717 6.88371C7.75418 7.14012 7.66308 7.35181 7.48387 7.51877C7.31661 7.6917 7.10454 7.77816 6.84767 7.77816Z" fill="currentColor"/>
<path d="M16.2383 6.87923C16.2383 6.62581 16.3249 6.41263 16.4982 6.2397L17.7975 4.94274C17.9707 4.76981 18.1828 4.68186 18.4337 4.67888C18.6846 4.67589 18.8966 4.76087 19.0699 4.9338C19.2431 5.10672 19.3312 5.32288 19.3342 5.58227C19.3372 5.84167 19.2521 6.05485 19.0788 6.22181L17.7885 7.50982C17.6093 7.68871 17.3927 7.77816 17.1389 7.77816C16.885 7.77816 16.6714 7.6917 16.4982 7.51877C16.3249 7.34584 16.2383 7.13266 16.2383 6.87923Z" fill="currentColor"/>
<path d="M17.1389 16.2308C17.3928 16.2308 17.6063 16.3172 17.7796 16.4902L19.0788 17.7782C19.2521 17.9511 19.3387 18.1643 19.3387 18.4177C19.3387 18.6711 19.2521 18.8843 19.0788 19.0572C18.9056 19.2302 18.6935 19.3181 18.4426 19.3211C18.1917 19.3241 17.9797 19.2391 17.8064 19.0662L16.4982 17.7782C16.325 17.6052 16.2383 17.3921 16.2383 17.1386C16.2383 16.8852 16.325 16.672 16.4982 16.4991C16.6714 16.3202 16.885 16.2308 17.1389 16.2308Z" fill="currentColor"/>
<path d="M4.6523 18.4088C4.6523 18.1553 4.74191 17.9422 4.92112 17.7692L6.21144 16.4902C6.38468 16.3172 6.59973 16.2308 6.8566 16.2308C7.11348 16.2308 7.32853 16.3202 7.50177 16.4991C7.67501 16.672 7.76013 16.8852 7.75714 17.1386C7.75416 17.3921 7.66306 17.6052 7.48385 17.7782L6.19352 19.0662C6.02029 19.2331 5.80523 19.3151 5.54836 19.3122C5.29149 19.3092 5.07644 19.2212 4.9032 19.0483C4.73593 18.8754 4.6523 18.6622 4.6523 18.4088Z" fill="currentColor"/>
<path d="M10.172 7.65741C10.7395 7.40995 11.3489 7.28621 12 7.28621C12.6392 7.28621 13.244 7.40995 13.8145 7.65741C14.385 7.90488 14.8868 8.24328 15.3199 8.67262C15.753 9.10196 16.0935 9.60285 16.3414 10.1753C16.5893 10.7478 16.7133 11.356 16.7133 12C16.7133 12.644 16.5893 13.2522 16.3414 13.8247C16.0935 14.3971 15.753 14.8995 15.3199 15.3318C14.8868 15.7642 14.385 16.104 13.8145 16.3515C13.244 16.599 12.6392 16.7227 12 16.7227C11.3489 16.7227 10.7395 16.599 10.172 16.3515C9.60453 16.104 9.10274 15.7642 8.66666 15.3318C8.23057 14.8995 7.89007 14.3971 7.64515 13.8247C7.40023 13.2522 7.27777 12.644 7.27777 12C7.27777 11.356 7.40023 10.7478 7.64515 10.1753C7.89007 9.60285 8.23057 9.10196 8.66666 8.67262C9.10274 8.24328 9.60453 7.90488 10.172 7.65741Z" fill="currentColor"/>
</svg>
