<svg width="24" height="24" viewBox="0 0 24 24" fill="none" xmlns="http://www.w3.org/2000/svg">
<path fill-rule="evenodd" clip-rule="evenodd" d="M5.12 4.77C6.97349 2.99891 9.43639 2.00731 12 2C14.6522 2 17.1957 3.05357 19.0711 4.92893C20.9464 6.8043 22 9.34784 22 12C22 12.5523 21.5523 13 21 13C20.4477 13 20 12.5523 20 12C19.9874 8.73787 17.9954 5.81012 14.9656 4.60086C11.9359 3.3916 8.47534 4.14307 6.22 6.5H8.62C9.17228 6.5 9.62 6.94772 9.62 7.5C9.62 8.05228 9.17228 8.5 8.62 8.5H4.12C3.56772 8.5 3.12 8.05228 3.12 7.5V3C3.12 2.44772 3.56772 2 4.12 2C4.67228 2 5.12 2.44772 5.12 3V4.77ZM15.38 15.51H19.91C20.4467 15.5261 20.8749 15.9631 20.88 16.5V21C20.88 21.5523 20.4323 22 19.88 22C19.3277 22 18.88 21.5523 18.88 21V19.23C15.9835 21.976 11.7316 22.7367 8.06274 21.1652C4.39389 19.5938 2.01081 15.9912 2 12C2 11.4477 2.44772 11 3 11C3.55228 11 4 11.4477 4 12C4.00854 15.264 5.99911 18.1954 9.02978 19.4072C12.0604 20.6191 15.5234 19.8682 17.78 17.51H15.38C14.8277 17.51 14.38 17.0623 14.38 16.51C14.38 15.9577 14.8277 15.51 15.38 15.51Z" fill="currentColor"/>
</svg>
