<svg width="38" height="38" viewBox="0 0 38 38" fill="none" xmlns="http://www.w3.org/2000/svg">
<path d="M20.6286 6.66652C20.6286 5.80977 21.3231 5.11523 22.1798 5.11523H25.2824C26.1392 5.11523 26.8337 5.80977 26.8337 6.66652C26.8337 7.52327 26.1392 8.2178 25.2824 8.2178H22.1798C21.3231 8.2178 20.6286 7.52327 20.6286 6.66652ZM5.11574 14.4229C5.11574 13.5662 5.81027 12.8716 6.66702 12.8716H9.76958C10.6263 12.8716 11.3209 13.5662 11.3209 14.4229C11.3209 15.2797 10.6263 15.9742 9.76958 15.9742H6.66702C5.81027 15.9742 5.11574 15.2797 5.11574 14.4229ZM5.11574 26.8332C5.11574 25.9764 5.81027 25.2819 6.66702 25.2819H9.76958C10.6263 25.2819 11.3209 25.9764 11.3209 26.8332C11.3209 27.6899 10.6263 28.3845 9.76958 28.3845H6.66702C5.81027 28.3845 5.11574 27.6899 5.11574 26.8332ZM3.56445 20.6281C3.56445 19.7713 4.25899 19.0768 5.11573 19.0768H8.20279C9.05954 19.0768 9.75407 19.7713 9.75407 20.6281C9.75407 21.4848 9.05954 22.1793 8.20279 22.1793H5.11573C4.25898 22.1793 3.56445 21.4848 3.56445 20.6281ZM33.0393 11.9628C33.6448 11.3569 33.6447 10.3749 33.039 9.76925C32.4332 9.16344 31.4509 9.16344 30.8451 9.76926L30.399 10.2154C29.7497 10.8647 28.7483 10.9695 27.9022 10.6128C26.6181 10.0716 25.2107 9.76908 23.7311 9.76908C17.7447 9.76908 12.8721 14.6417 12.8721 20.6281C12.8721 26.6145 17.7447 31.487 23.7311 31.487C29.7175 31.487 34.5901 26.6145 34.5901 20.6281C34.5901 18.3999 33.909 16.3305 32.7507 14.6069C32.2275 13.8283 32.2357 12.767 32.8987 12.1035L33.0393 11.9628ZM25.2824 20.6281C25.2824 21.4848 24.5879 22.1793 23.7311 22.1793C22.8744 22.1793 22.1798 21.4848 22.1798 20.6281V15.9091C22.1798 15.0523 22.8744 14.3578 23.7311 14.3578C24.5879 14.3578 25.2824 15.0523 25.2824 15.9091V20.6281Z" fill="currentColor"/>
</svg>
