<svg width="24" height="24" viewBox="0 0 24 24" fill="none" xmlns="http://www.w3.org/2000/svg">
<path d="M20 7.00011H5.6C4.4 7.00011 4 6.40011 4 6.00011L20 4.50011V3.00011C20 2.40011 19.4 1.90011 18.8 2.00011L3.7 4.70011C2.7 4.90011 2 5.70011 2 6.70011V20.0001C2 21.1001 2.9 22.0001 4 22.0001H20C21.1 22.0001 22 21.1001 22 20.0001V9.00011C22 7.90011 21.1 7.00011 20 7.00011ZM18.5 16.0001C17.7 16.0001 17 15.3001 17 14.5001C17 13.7001 17.7 13.0001 18.5 13.0001C19.3 13.0001 20 13.7001 20 14.5001C20 15.3001 19.3 16.0001 18.5 16.0001Z" fill="currentColor"/>
</svg>
