<svg width="18" height="18" viewBox="0 0 18 18" fill="none" xmlns="http://www.w3.org/2000/svg">
<path fill-rule="evenodd" clip-rule="evenodd" d="M0 8.99927C0 4.03257 4.03167 0 8.99927 0C13.9759 0 17.9985 4.03257 17.9985 8.99927C17.9985 13.9678 13.9759 17.9985 8.99927 17.9985C4.03167 17.9985 0 13.9678 0 8.99927ZM8.20811 5.58827C8.20811 5.15717 8.56811 4.79628 9.0001 4.79628C9.4321 4.79628 9.78309 5.15717 9.78309 5.58827V9.56622C9.78309 9.99912 9.4321 10.3492 9.0001 10.3492C8.56811 10.3492 8.20811 9.99912 8.20811 9.56622V5.58827ZM9.00911 13.2121C8.56812 13.2121 8.21712 12.8521 8.21712 12.4202C8.21712 11.9882 8.56812 11.6372 9.00011 11.6372C9.44111 11.6372 9.7921 11.9882 9.7921 12.4202C9.7921 12.8521 9.44111 13.2121 9.00911 13.2121Z" fill="currentColor"/>
</svg>
