<svg width="2759" height="1418" fill="none" preserveAspectRatio="none" xmlns="http://www.w3.org/2000/svg"><path opacity=".1" d="M2757.5 639c0 130.7-29.51 235.792-86.5 319.949-56.98 84.161-141.53 147.511-251.81 194.571-220.64 94.15-543.98 122.98-954.69 122.98-410.71 0-734.054-28.12-954.692-121.92-110.28-46.88-194.825-110.14-251.81-194.43C201.014 875.861 171.5 770.413 171.5 639c0-131.393 31.562-236.834 91.11-321.125 59.555-84.3 147.189-147.567 259.536-194.455C746.908 29.618 1070.26 1.5 1464.5 1.5s717.59 28.83 942.35 122.987c112.35 47.065 199.99 110.422 259.54 194.59 59.55 84.158 91.11 189.244 91.11 319.923Z" stroke="url(#a)" stroke-width="3"/><path opacity=".1" d="M2707.5 679c0 130.7-29.51 235.792-86.5 319.949-56.98 84.161-141.53 147.511-251.81 194.571-220.64 94.15-543.98 122.98-954.69 122.98-410.71 0-734.054-28.12-954.692-121.92-110.28-46.88-194.825-110.14-251.81-194.43C151.014 915.861 121.5 810.413 121.5 679c0-131.393 31.562-236.834 91.11-321.125 59.555-84.3 147.189-147.567 259.536-194.455C696.908 69.618 1020.26 41.5 1414.5 41.5s717.59 28.83 942.35 122.987c112.35 47.065 199.99 110.422 259.54 194.59 59.55 84.158 91.11 189.244 91.11 319.923Z" stroke="url(#b)" stroke-width="3"/><path opacity=".1" d="M2647.5 729c0 130.7-29.51 235.792-86.5 319.95-56.98 84.16-141.53 147.51-251.81 194.57-220.64 94.15-543.98 122.98-954.69 122.98-410.71 0-734.054-28.12-954.692-121.92-110.28-46.88-194.825-110.14-251.81-194.43C91.014 965.861 61.5 860.413 61.5 729c0-131.393 31.562-236.834 91.11-321.125 59.555-84.3 147.189-147.567 259.536-194.455C636.908 119.618 960.262 91.5 1354.5 91.5c394.24 0 717.59 28.829 942.35 122.987 112.35 47.065 199.99 110.422 259.54 194.59 59.55 84.158 91.11 189.244 91.11 319.923Z" stroke="url(#c)" stroke-width="3"/><path opacity=".1" d="M2587.5 779c0 130.7-29.51 235.79-86.5 319.95-56.98 84.16-141.53 147.51-251.81 194.57-220.64 94.15-543.98 122.98-954.69 122.98-410.71 0-734.054-28.12-954.692-121.92-110.28-46.88-194.825-110.14-251.81-194.43C31.014 1015.86 1.5 910.413 1.5 779c0-131.393 31.562-236.834 91.11-321.125 59.555-84.3 147.189-147.567 259.536-194.455C576.908 169.618 900.262 141.5 1294.5 141.5c394.24 0 717.59 28.829 942.35 122.987 112.35 47.065 199.99 110.422 259.54 194.59 59.55 84.158 91.11 189.244 91.11 319.923Z" stroke="url(#d)" stroke-width="3"/><defs><linearGradient id="a" x1="1464.5" y1="0" x2="1464.5" y2="1278" gradientUnits="userSpaceOnUse"><stop stop-color="#1F39FF"/><stop offset=".505" stop-color="#40DDB7" stop-opacity=".7"/><stop offset="1" stop-color="#FFF617"/></linearGradient><linearGradient id="b" x1="1414.5" y1="40" x2="1414.5" y2="1318" gradientUnits="userSpaceOnUse"><stop stop-color="#1F39FF"/><stop offset=".505" stop-color="#40DDB7" stop-opacity=".7"/><stop offset="1" stop-color="#FFF617"/></linearGradient><linearGradient id="c" x1="1354.5" y1="90" x2="1354.5" y2="1368" gradientUnits="userSpaceOnUse"><stop stop-color="#1F39FF"/><stop offset=".505" stop-color="#40DDB7" stop-opacity=".7"/><stop offset="1" stop-color="#FFF617"/></linearGradient><linearGradient id="d" x1="1294.5" y1="140" x2="1294.5" y2="1418" gradientUnits="userSpaceOnUse"><stop stop-color="#1F39FF"/><stop offset=".505" stop-color="#40DDB7" stop-opacity=".7"/><stop offset="1" stop-color="#FFF617"/></linearGradient></defs></svg>