<svg width="129" height="129" fill="none" xmlns="http://www.w3.org/2000/svg"><path d="M35.432 71.775c.216.615.493 1.012.831 1.19.338.18.768.199 1.29.059.463-.124.811-.332 1.044-.622.24-.302.292-.704.158-1.207-.132-.492-.352-.811-.66-.956-.301-.158-.737-.16-1.307-.008l-1.014.272-.477-1.782 1.13-.303c.86-.23 1.174-.775.944-1.635a1.506 1.506 0 0 0-.197-.444.972.972 0 0 0-.337-.33 1.008 1.008 0 0 0-.49-.147 1.874 1.874 0 0 0-.679.073c-.463.124-.807.33-1.03.618-.223.287-.325.718-.306 1.293l-2.011.26a5.63 5.63 0 0 1 .066-1.26c.078-.405.227-.776.447-1.114.23-.341.537-.641.924-.9.386-.259.873-.467 1.463-.625.57-.153 1.086-.214 1.55-.183.462.022.864.116 1.21.282.354.164.644.397.87.698.233.29.4.623.5 1 .133.493.14.962.02 1.408-.111.433-.365.838-.761 1.213.644.087 1.139.311 1.485.674.352.35.595.772.727 1.265.127.473.175.926.146 1.358a2.547 2.547 0 0 1-.38 1.19c-.215.357-.528.674-.94.95-.41.286-.935.514-1.572.685-.724.194-1.355.254-1.893.181-.53-.086-.984-.254-1.362-.505a3.088 3.088 0 0 1-.918-.934 5.23 5.23 0 0 1-.543-1.159l2.072-.555Zm5.703-6.233 1.97-.528.284 1.057c.144-.463.37-.839.675-1.128.303-.299.653-.5 1.05-.607.192-.052.354-.085.485-.1.128-.023.243-.038.345-.045l.247 1.906a3.74 3.74 0 0 0-.879.142 2.39 2.39 0 0 0-.614.258c-.19.103-.347.248-.473.437a1.6 1.6 0 0 0-.251.627c-.026.214-.011.422.043.625l1.173 4.375-2.029.544-2.026-7.563Zm12.705 3.63c-.36.976-1.032 1.596-2.017 1.86-1.062.285-1.95.14-2.663-.435-.713-.575-1.24-1.495-1.578-2.76a5.78 5.78 0 0 1-.214-1.667 3.932 3.932 0 0 1 .314-1.435c.184-.433.454-.8.807-1.102a3.275 3.275 0 0 1 1.3-.659c.376-.1.766-.132 1.17-.096.412.035.835.201 1.267.5l-.948-3.536 2.029-.543 2.772 10.345-1.97.528-.269-1Zm-.812-2.857c-.13-.483-.276-.858-.44-1.124a1.595 1.595 0 0 0-.582-.606 1.228 1.228 0 0 0-.669-.177 2.285 2.285 0 0 0-.632.076 1.66 1.66 0 0 0-.602.3c-.17.14-.308.321-.413.546a2.185 2.185 0 0 0-.154.818c-.007.323.046.692.157 1.107.122.454.263.825.423 1.114.167.276.349.491.545.645.194.145.4.235.616.27.214.026.432.009.654-.05.483-.13.842-.376 1.076-.74.141-.244.22-.514.233-.807.022-.306-.025-.677-.142-1.111l-.07-.261Zm5.448-8.401 3.694-.99c.792-.213 1.47-.296 2.03-.25.568.035 1.042.162 1.422.38.387.208.691.494.913.859.23.352.4.741.515 1.166.121.454.175.906.16 1.355-.004.446-.118.87-.342 1.272-.216.389-.556.744-1.019 1.065-.453.318-1.066.58-1.839.788l-1.622.434.99 3.695-2.13.57-2.772-10.344Zm4.98 3.867c.377-.1.676-.222.897-.364.23-.145.4-.304.508-.478.109-.174.162-.364.158-.57a2.448 2.448 0 0 0-.088-.676 2.195 2.195 0 0 0-.257-.614 1.036 1.036 0 0 0-.429-.382 1.536 1.536 0 0 0-.672-.13c-.26-.003-.577.046-.954.147l-1.536.411.823 3.072 1.55-.416ZM67.6 55.47l2.028-.543L72.4 65.27l-2.028.543L67.6 55.468Zm10.841 7.158a4.068 4.068 0 0 1-.793 1.098c-.31.31-.76.545-1.349.703-.338.09-.673.134-1.006.13a2.386 2.386 0 0 1-.905-.193 2.106 2.106 0 0 1-.723-.551c-.213-.254-.372-.579-.478-.975-.14-.521-.138-.977.006-1.368.144-.39.38-.728.707-1.012a4.745 4.745 0 0 1 1.156-.73c.452-.204.917-.38 1.395-.529l.96-.303-.102-.377c-.124-.464-.34-.748-.647-.852a1.594 1.594 0 0 0-.968-.02c-.802.215-1.18.642-1.132 1.282l-1.901.323c-.077-.828.118-1.491.585-1.99.464-.507 1.17-.887 2.117-1.14.58-.156 1.091-.216 1.536-.18.442.027.818.138 1.13.335a2.3 2.3 0 0 1 .792.812c.214.336.383.736.508 1.2l1.28 4.78-1.912.513-.256-.956Zm-.692-2.408-.886.284c-.42.133-.751.269-.994.406-.243.138-.422.28-.539.424a.754.754 0 0 0-.182.422c-.012.148.004.304.048.468.067.251.207.426.42.524.213.099.474.106.783.024.521-.14.914-.375 1.178-.704.147-.185.251-.394.313-.628.059-.243.047-.52-.036-.829l-.105-.39Zm10.64-2.168c.166.93.046 1.738-.36 2.426-.398.676-1.143 1.16-2.235 1.453-.637.17-1.214.222-1.729.153a3.114 3.114 0 0 1-1.362-.505 3.593 3.593 0 0 1-.99-1.086 5.994 5.994 0 0 1-.656-1.579 5.339 5.339 0 0 1-.192-1.703 3.75 3.75 0 0 1 .397-1.473c.223-.443.54-.823.952-1.14.412-.318.918-.557 1.517-.717.511-.137.974-.189 1.387-.154.42.022.791.114 1.114.276.323.162.601.387.834.677.23.28.421.606.573.98l-1.969.823c-.152-.374-.346-.653-.582-.838-.238-.195-.57-.236-.995-.122-.31.083-.547.22-.714.409-.169.18-.286.398-.353.653a2.65 2.65 0 0 0-.04.834 5.741 5.741 0 0 0 .481 1.797c.126.277.277.51.453.702.175.19.382.327.621.408.237.071.51.065.819-.018.405-.108.688-.308.848-.6.16-.291.201-.66.124-1.104l2.057-.552Zm8.48-1.868c.093.886-.077 1.625-.508 2.217-.425.58-1.158 1.01-2.202 1.289-1.255.336-2.295.242-3.119-.282-.814-.528-1.392-1.429-1.734-2.704-.17-.637-.23-1.227-.179-1.769a3.79 3.79 0 0 1 .427-1.48c.245-.439.576-.807.993-1.105a4.284 4.284 0 0 1 1.462-.687c1.159-.31 2.117-.21 2.876.3.767.51 1.303 1.329 1.605 2.459l.218.811-5.245 1.406c.182.603.465 1.04.848 1.31.38.26.86.313 1.44.158.801-.215 1.184-.68 1.148-1.395l1.97-.528Zm-2.474-1.76c-.14-.521-.38-.892-.718-1.112-.329-.222-.763-.261-1.304-.116-.27.072-.496.18-.675.32-.18.142-.321.31-.425.502a1.632 1.632 0 0 0-.179.607 1.99 1.99 0 0 0 .04.673l3.26-.874Z" fill="#fff"/><path d="M111.443 103.19c.133.115.235.242.305.381.071.146.11.292.117.439.011.15-.008.298-.058.445a1.323 1.323 0 0 1-.625.72 1.098 1.098 0 0 1-.883.065 1.254 1.254 0 0 1-.42-.249 1.375 1.375 0 0 1-.317-.391 1.102 1.102 0 0 1-.059-.884c.05-.147.13-.284.242-.412.114-.132.242-.235.384-.309.138-.069.282-.109.432-.119.15-.01.3.008.451.054.151.054.294.141.431.26Z" fill="url(#a)"/><path d="m104.813 113.834-1.086.778-3.061-2.689 1.542 3.737-1.022.732-3.087-2.631 1.62 3.722-1.035.74-2.081-5.535.937-.671 3.326 2.813-1.632-4.026.912-.653 4.667 3.683Z" fill="url(#b)"/><path d="m94.618 120.475-1.051.549-2.66-5.052 1.051-.549 2.66 5.052Z" fill="url(#c)"/><path d="m89.126 123.132-1 .372-3.514-2.683 1.32 3.5-1.08.402-2.016-5.339.992-.369 3.51 2.651-1.31-3.47 1.082-.402 2.016 5.338Z" fill="url(#d)"/><path d="m79.697 126.227-1.046.213-3.06-3.192.765 3.658-1.132.23-1.168-5.581 1.039-.211 3.061 3.159-.758-3.627 1.132-.23 1.167 5.581Z" fill="url(#e)"/><path d="m69.943 127.8-3.877.214-.063-1.011 2.691-.149-.076-1.242-2.532.14-.063-1.02 2.532-.14-.087-1.401-2.858.158.058-1.018 3.924-.217.35 5.686Z" fill="url(#f)"/><path d="m61.304 127.957-2.012-.171c-.445-.037-.807-.121-1.085-.251-.284-.126-.5-.28-.652-.464a1.348 1.348 0 0 1-.298-.585 1.981 1.981 0 0 1-.049-.604c.029-.366.12-.667.271-.905.152-.238.391-.428.717-.571l-.964-2.506 1.28.108.788 2.211 1.113.094.167-2.13 1.169.099-.445 5.675Zm-1.89-2.736a1.599 1.599 0 0 0-.466.016.74.74 0 0 0-.3.143.569.569 0 0 0-.171.249 1.317 1.317 0 0 0-.066.331.86.86 0 0 0 .025.29.556.556 0 0 0 .148.26.7.7 0 0 0 .305.194c.129.054.297.089.503.107l.82.069.123-1.581-.922-.078Z" fill="url(#g)"/><path d="M52.112 122.891c.052-.348 0-.622-.157-.822-.161-.201-.432-.346-.81-.434a1.73 1.73 0 0 0-.472-.053 1.011 1.011 0 0 0-.338.085.555.555 0 0 0-.216.195.765.765 0 0 0-.12.275.62.62 0 0 0 .071.442c.08.155.258.294.536.419l.693.301c.274.118.51.244.709.377.199.134.359.283.48.448.114.168.189.357.223.567.034.21.021.447-.038.711a1.53 1.53 0 0 1-.315.662c-.155.177-.34.311-.558.402-.222.09-.474.138-.753.143-.281.011-.58-.02-.896-.094-.405-.094-.731-.22-.98-.376a1.865 1.865 0 0 1-.568-.525 1.414 1.414 0 0 1-.246-.613 2.46 2.46 0 0 1-.02-.667l1.128.116c-.012.318.05.564.185.738.13.172.36.297.693.374a1.9 1.9 0 0 0 .502.06.878.878 0 0 0 .334-.062.433.433 0 0 0 .205-.148.578.578 0 0 0 .098-.214c.047-.207.025-.376-.065-.506-.096-.132-.277-.258-.544-.381l-.73-.325c-.574-.259-.97-.556-1.19-.891-.22-.329-.272-.745-.158-1.247a1.66 1.66 0 0 1 .294-.643c.133-.182.309-.329.526-.442.21-.109.46-.173.748-.193.29-.026.616.004.979.089.757.176 1.301.472 1.633.887.325.42.43.959.312 1.619l-1.175-.274Z" fill="url(#h)"/><path d="M39.612 119.951a1.11 1.11 0 0 1-.67.625 1.13 1.13 0 0 1-.445.064 1.33 1.33 0 0 1-.478-.129 1.253 1.253 0 0 1-.39-.28 1.124 1.124 0 0 1-.243-.387 1.03 1.03 0 0 1-.066-.445c.007-.155.048-.312.122-.47.076-.164.172-.3.288-.41a1.094 1.094 0 0 1 .834-.293c.155.008.31.049.463.122.16.075.294.171.405.287.105.114.184.242.235.384.052.141.076.291.074.448-.01.159-.053.321-.13.484Z" fill="url(#i)"/><path d="M16.067 99.693c.271-.222.415-.46.431-.713.014-.257-.092-.544-.316-.863a1.717 1.717 0 0 0-.318-.353 1.01 1.01 0 0 0-.31-.164.562.562 0 0 0-.292 0 .763.763 0 0 0-.273.123.614.614 0 0 0-.242.375c-.044.168-.003.39.121.668l.318.686c.126.27.219.52.278.753.06.231.08.449.06.651a1.379 1.379 0 0 1-.21.569 1.843 1.843 0 0 1-.504.5 1.54 1.54 0 0 1-.678.281 1.524 1.524 0 0 1-.686-.076 2.127 2.127 0 0 1-.66-.397 3.374 3.374 0 0 1-.607-.668c-.24-.34-.4-.65-.483-.932a1.85 1.85 0 0 1-.075-.768c.028-.228.103-.434.226-.618a2.46 2.46 0 0 1 .43-.508l.768.84c-.222.228-.34.45-.355.67-.018.214.072.46.269.739.117.166.229.292.336.38a.9.9 0 0 0 .29.177c.09.035.174.044.253.028a.582.582 0 0 0 .217-.094c.173-.121.27-.261.289-.418.016-.161-.035-.376-.153-.645l-.329-.727c-.257-.576-.355-1.06-.296-1.454.056-.39.294-.734.715-1.03a1.66 1.66 0 0 1 .649-.28c.221-.044.451-.036.689.025.23.06.46.179.69.357.233.174.457.414.672.72.45.636.659 1.218.63 1.747-.037.528-.32.996-.848 1.406l-.696-.987Z" fill="url(#j)"/><path d="M12.41 89.905c.19.382.297.754.323 1.115.025.362-.027.705-.156 1.03a2.71 2.71 0 0 1-.602.9 3.891 3.891 0 0 1-1.032.712c-.415.203-.813.33-1.196.382a2.738 2.738 0 0 1-1.085-.074c-.34-.1-.646-.27-.919-.51a2.97 2.97 0 0 1-.69-.927 2.982 2.982 0 0 1-.321-1.116 2.241 2.241 0 0 1 .16-1.022c.128-.325.33-.623.604-.894a3.888 3.888 0 0 1 1.033-.711c.414-.203.813-.33 1.196-.382.38-.056.74-.036 1.077.06.335.09.639.256.912.496s.505.554.697.94Zm-.91.455c-.222-.449-.54-.708-.954-.778-.414-.07-.904.033-1.47.311-.562.276-.941.599-1.137.968-.2.371-.19.782.032 1.23.223.45.543.708.962.776.413.07.901-.033 1.463-.308.567-.278.948-.602 1.144-.971.196-.37.182-.779-.04-1.228Z" fill="url(#k)"/><path d="m4.024 85.106-.364-1.133 4.45-1.403-.825-2.572 1.01-.184 1.15 3.583-5.42 1.71Z" fill="url(#l)"/><path d="m1.4 75.136-.188-1.118L6.475 71l.211 1.26-1.222.658.33 1.969 1.373.239.203 1.212-5.97-1.203Zm3.148-1.754-1.9 1.01 2.128.353-.228-1.363Z" fill="url(#m)"/><path d="m.407 66.881-.011-1.069 3.707-2.362-3.733.017-.013-1.156 5.695-.027.012 1.061-3.675 2.37 3.7-.017.013 1.157-5.695.026Z" fill="url(#n)"/><path d="m.92 55.328.163-1.12 5.943-1.258-.184 1.261-1.367.252-.287 1.972 1.237.647-.177 1.214L.92 55.328Zm3.54-.704-2.121.38 1.922.984.198-1.364Z" fill="url(#o)"/><path d="m7.751 42.575-2.383.519.479-1.223 1.365-.221-.817-1.18.423-1.082 1.338 1.977 2.578-.536-.47 1.2-1.57.286.941 1.323-.44 1.127-1.444-2.19Z" fill="url(#p)"/><path d="M13.8 31.155c.305.177.58.229.822.157.245-.077.476-.275.694-.595a1.69 1.69 0 0 0 .217-.42 1 1 0 0 0 .042-.347.566.566 0 0 0-.104-.273.774.774 0 0 0-.213-.213.62.62 0 0 0-.438-.096c-.172.017-.366.132-.582.344l-.527.535a4.35 4.35 0 0 1-.606.521c-.195.136-.391.23-.588.282-.197.045-.4.045-.608 0a1.876 1.876 0 0 1-.648-.299 1.565 1.565 0 0 1-.506-.537 1.527 1.527 0 0 1-.175-.668c-.004-.24.041-.492.136-.755.09-.266.226-.532.408-.8.232-.342.465-.6.7-.774.234-.174.465-.286.692-.336a1.39 1.39 0 0 1 .66-.003c.219.047.428.123.628.227l-.51 1.009c-.293-.13-.545-.163-.754-.1-.207.057-.406.227-.597.507a1.882 1.882 0 0 0-.235.446.884.884 0 0 0-.062.334c0 .095.021.178.065.246a.587.587 0 0 0 .165.17c.176.12.34.162.495.126.156-.04.339-.163.548-.367l.564-.559c.447-.44.865-.7 1.255-.78.385-.084.792.02 1.219.312.207.141.372.311.494.51.122.192.196.41.224.654.026.236-.003.492-.087.768-.08.28-.224.573-.433.88-.435.64-.905 1.038-1.41 1.194-.507.148-1.047.046-1.62-.306l.675-.994Z" fill="url(#q)"/><path d="m15.629 22.263 2.602-2.867.752.683-1.806 1.99.923.84 1.7-1.872.758.688-1.7 1.872 1.042.948 1.919-2.114.672.772-2.635 2.902-4.228-3.842Z" fill="url(#r)"/><path d="M21.652 16.105 23.2 14.82c.342-.285.658-.477.946-.578.29-.109.552-.15.787-.124.233.023.44.093.622.213.178.115.33.248.457.4.235.283.382.563.44.84.06.277.023.582-.109.912l2.438 1.127-.985.818-2.105-1.038-.857.71 1.372 1.649-.9.747-3.654-4.39Zm3.257.644c.143-.118.25-.231.319-.338a.74.74 0 0 0 .113-.312.573.573 0 0 0-.053-.3 1.322 1.322 0 0 0-.184-.283.863.863 0 0 0-.221-.19.557.557 0 0 0-.287-.085.696.696 0 0 0-.353.075 1.667 1.667 0 0 0-.432.275l-.63.524 1.018 1.223.71-.589Z" fill="url(#s)"/><path d="m28.912 10.51 1.015-.612 1.762 2.907c.252.414.51.678.778.792.267.113.57.067.911-.139.341-.205.521-.45.54-.736.024-.288-.09-.64-.342-1.054L31.814 8.76l1.015-.611 1.763 2.906c.224.37.37.714.44 1.033.07.32.072.616.01.89-.066.27-.198.518-.397.743a2.941 2.941 0 0 1-.743.616c-.309.186-.61.312-.906.377-.29.063-.57.061-.84-.006a1.955 1.955 0 0 1-.785-.434 3.692 3.692 0 0 1-.71-.88l-1.75-2.886Z" fill="url(#t)"/><path d="m37.729 5.626 1.325-.522 2.9 3.436-.227-4.49 1.288-.509 2.118 5.3-1.014.4-1.412-3.533.205 4.009-.858.339-2.624-3.047 1.41 3.525-.993.392-2.118-5.3Z" fill="url(#u)"/><path d="m53.318.781 1.038-.165 1.116 6.76-1.039.164L53.318.781Z" fill="url(#v)"/><path d="m64.716 0 2.128.105c.871.044 1.538.313 2.001.81.469.497.683 1.21.642 2.14-.02.472-.107.883-.26 1.232-.149.35-.356.64-.621.871a2.43 2.43 0 0 1-.956.504 3.917 3.917 0 0 1-1.252.121l-1.928-.095L64.716 0Zm1.75 4.773a2.17 2.17 0 0 0 .795-.088 1.29 1.29 0 0 0 .542-.357c.145-.158.255-.346.328-.566a2.84 2.84 0 0 0 .129-.76 2.962 2.962 0 0 0-.055-.753 1.44 1.44 0 0 0-.239-.587 1.223 1.223 0 0 0-.462-.382 1.755 1.755 0 0 0-.704-.163l-.94-.046-.159 3.664.765.038Z" fill="url(#w)"/><path d="m74.572.89 3.816.75-.19.994-2.648-.52-.233 1.22 2.492.49-.191 1.002-2.492-.49-.262 1.377 2.813.553-.308.971-3.862-.76L74.572.89Z" fill="url(#x)"/><path d="m82.967 2.874 3.548 1.209-.324.966-2.42-.824-.425 1.268 2.277.775-.324.967-2.277-.776-.734 2.189-1.127-.384 1.806-5.39Z" fill="url(#y)"/><path d="m90.929 5.947 1.077.509-2.408 5.145-1.077-.509 2.408-5.145Z" fill="url(#z)"/><path d="m100.876 11.595.951.72-1.321 1.752 1.805 1.366 1.321-1.753.951.72-3.417 4.533-.951-.718 1.436-1.906-1.806-1.365-1.436 1.905-.95-.72 3.417-4.534Z" fill="url(#A)"/><path d="m109.732 19.093.79.817-2.589 5.487-.89-.92.626-1.24-1.391-1.437-1.26.584-.857-.885 5.571-2.406Zm-1.577 3.24.979-1.915-1.942.92.963.995Z" fill="url(#B)"/><path d="M115.02 31.465a2.587 2.587 0 0 1-.815.308 2.037 2.037 0 0 1-.818-.001 2.106 2.106 0 0 1-.783-.35 2.939 2.939 0 0 1-.711-.732 2.863 2.863 0 0 1-.484-1.058 2.28 2.28 0 0 1 .02-1.02 2.63 2.63 0 0 1 .481-.945 4.23 4.23 0 0 1 .905-.842 3.907 3.907 0 0 1 1.122-.563c.37-.11.727-.146 1.072-.108.345.038.667.15.968.337.3.186.569.448.805.783.21.296.354.58.434.849a1.8 1.8 0 0 1 .073.78c-.031.25-.112.489-.242.718-.131.228-.302.45-.515.664l-.806-.88c.24-.24.388-.485.446-.734.061-.245-.013-.515-.222-.812-.265-.374-.607-.56-1.028-.559-.413.004-.875.185-1.387.545-.516.363-.841.744-.974 1.144-.13.404-.072.78.174 1.129.212.3.444.467.694.5.257.034.542-.032.853-.198l.738 1.045Z" fill="url(#C)"/><path d="m120.653 33.688.538 1.072-2.037 1.013 2.981.866.585 1.165-2.759-.744-2.234 3.46-.595-1.186 1.764-2.673-.924-.3-1.867.929-.538-1.072 5.086-2.53Z" fill="url(#D)"/><path d="m125.033 43.73.353 1.078-4.747 3.774-.397-1.215 1.109-.834-.62-1.9-1.393-.03-.382-1.17 6.077.297Zm-2.846 2.207 1.724-1.284-2.154-.03.43 1.314Z" fill="url(#E)"/><path d="m126.434 53.168-.284-1.693 1.014-.164.767 4.567-1.015.164-.284-1.693-4.602.744-.198-1.18 4.602-.745Z" fill="url(#F)"/><path d="m128.431 60.963.02 1.188-2.201.022.037 2.257 2.201-.022.019 1.189-5.694.057-.019-1.188 2.392-.024-.037-2.258-2.392.025-.02-1.189 5.694-.057Z" fill="url(#G)"/><path d="M122.076 72.56c.062-.42.184-.785.369-1.096.185-.31.423-.562.715-.754a2.716 2.716 0 0 1 1.009-.396c.381-.066.8-.064 1.258.005.458.07.859.192 1.205.368.345.181.629.407.854.677.223.276.379.59.468.941.089.352.103.736.043 1.151a2.98 2.98 0 0 1-.369 1.097 2.22 2.22 0 0 1-.714.746 2.613 2.613 0 0 1-1.008.388c-.381.066-.8.064-1.258-.005a3.955 3.955 0 0 1-1.205-.368 2.579 2.579 0 0 1-.856-.661 2.267 2.267 0 0 1-.47-.926 3.002 3.002 0 0 1-.041-1.166Zm1.012.146c-.072.494.043.887.345 1.18.301.293.765.487 1.392.581.621.094 1.117.046 1.489-.145.377-.19.602-.532.673-1.026.072-.495-.046-.889-.352-1.182-.302-.293-.763-.486-1.384-.58-.627-.095-1.126-.047-1.498.144-.371.19-.593.533-.665 1.028Z" fill="url(#H)"/><path d="m126.28 81.315-.32 1.017-4.264 1.092 3.561 1.14-.347 1.102-5.433-1.741.318-1.01 4.236-1.109-3.531-1.131.347-1.102 5.433 1.742Z" fill="url(#I)"/><defs><linearGradient id="a" x1="102.638" y1="13.627" x2="23.306" y2="117.701" gradientUnits="userSpaceOnUse"><stop stop-color="#fff" stop-opacity=".6"/><stop offset="1" stop-color="#fff" stop-opacity=".3"/></linearGradient><linearGradient id="b" x1="102.638" y1="13.627" x2="23.306" y2="117.701" gradientUnits="userSpaceOnUse"><stop stop-color="#fff" stop-opacity=".6"/><stop offset="1" stop-color="#fff" stop-opacity=".3"/></linearGradient><linearGradient id="c" x1="102.638" y1="13.627" x2="23.306" y2="117.701" gradientUnits="userSpaceOnUse"><stop stop-color="#fff" stop-opacity=".6"/><stop offset="1" stop-color="#fff" stop-opacity=".3"/></linearGradient><linearGradient id="d" x1="102.638" y1="13.627" x2="23.306" y2="117.701" gradientUnits="userSpaceOnUse"><stop stop-color="#fff" stop-opacity=".6"/><stop offset="1" stop-color="#fff" stop-opacity=".3"/></linearGradient><linearGradient id="e" x1="102.638" y1="13.627" x2="23.306" y2="117.701" gradientUnits="userSpaceOnUse"><stop stop-color="#fff" stop-opacity=".6"/><stop offset="1" stop-color="#fff" stop-opacity=".3"/></linearGradient><linearGradient id="f" x1="102.638" y1="13.627" x2="23.306" y2="117.701" gradientUnits="userSpaceOnUse"><stop stop-color="#fff" stop-opacity=".6"/><stop offset="1" stop-color="#fff" stop-opacity=".3"/></linearGradient><linearGradient id="g" x1="102.638" y1="13.627" x2="23.306" y2="117.701" gradientUnits="userSpaceOnUse"><stop stop-color="#fff" stop-opacity=".6"/><stop offset="1" stop-color="#fff" stop-opacity=".3"/></linearGradient><linearGradient id="h" x1="102.638" y1="13.627" x2="23.306" y2="117.701" gradientUnits="userSpaceOnUse"><stop stop-color="#fff" stop-opacity=".6"/><stop offset="1" stop-color="#fff" stop-opacity=".3"/></linearGradient><linearGradient id="i" x1="102.638" y1="13.627" x2="23.306" y2="117.701" gradientUnits="userSpaceOnUse"><stop stop-color="#fff" stop-opacity=".6"/><stop offset="1" stop-color="#fff" stop-opacity=".3"/></linearGradient><linearGradient id="j" x1="102.638" y1="13.627" x2="23.306" y2="117.701" gradientUnits="userSpaceOnUse"><stop stop-color="#fff" stop-opacity=".6"/><stop offset="1" stop-color="#fff" stop-opacity=".3"/></linearGradient><linearGradient id="k" x1="102.638" y1="13.627" x2="23.306" y2="117.701" gradientUnits="userSpaceOnUse"><stop stop-color="#fff" stop-opacity=".6"/><stop offset="1" stop-color="#fff" stop-opacity=".3"/></linearGradient><linearGradient id="l" x1="102.638" y1="13.627" x2="23.306" y2="117.701" gradientUnits="userSpaceOnUse"><stop stop-color="#fff" stop-opacity=".6"/><stop offset="1" stop-color="#fff" stop-opacity=".3"/></linearGradient><linearGradient id="m" x1="102.638" y1="13.627" x2="23.306" y2="117.701" gradientUnits="userSpaceOnUse"><stop stop-color="#fff" stop-opacity=".6"/><stop offset="1" stop-color="#fff" stop-opacity=".3"/></linearGradient><linearGradient id="n" x1="102.638" y1="13.627" x2="23.306" y2="117.701" gradientUnits="userSpaceOnUse"><stop stop-color="#fff" stop-opacity=".6"/><stop offset="1" stop-color="#fff" stop-opacity=".3"/></linearGradient><linearGradient id="o" x1="102.638" y1="13.627" x2="23.306" y2="117.701" gradientUnits="userSpaceOnUse"><stop stop-color="#fff" stop-opacity=".6"/><stop offset="1" stop-color="#fff" stop-opacity=".3"/></linearGradient><linearGradient id="p" x1="102.638" y1="13.627" x2="23.306" y2="117.701" gradientUnits="userSpaceOnUse"><stop stop-color="#fff" stop-opacity=".6"/><stop offset="1" stop-color="#fff" stop-opacity=".3"/></linearGradient><linearGradient id="q" x1="102.638" y1="13.627" x2="23.306" y2="117.701" gradientUnits="userSpaceOnUse"><stop stop-color="#fff" stop-opacity=".6"/><stop offset="1" stop-color="#fff" stop-opacity=".3"/></linearGradient><linearGradient id="r" x1="102.638" y1="13.627" x2="23.306" y2="117.701" gradientUnits="userSpaceOnUse"><stop stop-color="#fff" stop-opacity=".6"/><stop offset="1" stop-color="#fff" stop-opacity=".3"/></linearGradient><linearGradient id="s" x1="102.638" y1="13.627" x2="23.306" y2="117.701" gradientUnits="userSpaceOnUse"><stop stop-color="#fff" stop-opacity=".6"/><stop offset="1" stop-color="#fff" stop-opacity=".3"/></linearGradient><linearGradient id="t" x1="102.638" y1="13.627" x2="23.306" y2="117.701" gradientUnits="userSpaceOnUse"><stop stop-color="#fff" stop-opacity=".6"/><stop offset="1" stop-color="#fff" stop-opacity=".3"/></linearGradient><linearGradient id="u" x1="102.638" y1="13.627" x2="23.306" y2="117.701" gradientUnits="userSpaceOnUse"><stop stop-color="#fff" stop-opacity=".6"/><stop offset="1" stop-color="#fff" stop-opacity=".3"/></linearGradient><linearGradient id="v" x1="102.638" y1="13.627" x2="23.306" y2="117.701" gradientUnits="userSpaceOnUse"><stop stop-color="#fff" stop-opacity=".6"/><stop offset="1" stop-color="#fff" stop-opacity=".3"/></linearGradient><linearGradient id="w" x1="102.638" y1="13.627" x2="23.306" y2="117.701" gradientUnits="userSpaceOnUse"><stop stop-color="#fff" stop-opacity=".6"/><stop offset="1" stop-color="#fff" stop-opacity=".3"/></linearGradient><linearGradient id="x" x1="102.638" y1="13.627" x2="23.306" y2="117.701" gradientUnits="userSpaceOnUse"><stop stop-color="#fff" stop-opacity=".6"/><stop offset="1" stop-color="#fff" stop-opacity=".3"/></linearGradient><linearGradient id="y" x1="102.638" y1="13.627" x2="23.306" y2="117.701" gradientUnits="userSpaceOnUse"><stop stop-color="#fff" stop-opacity=".6"/><stop offset="1" stop-color="#fff" stop-opacity=".3"/></linearGradient><linearGradient id="z" x1="102.638" y1="13.627" x2="23.306" y2="117.701" gradientUnits="userSpaceOnUse"><stop stop-color="#fff" stop-opacity=".6"/><stop offset="1" stop-color="#fff" stop-opacity=".3"/></linearGradient><linearGradient id="A" x1="102.638" y1="13.627" x2="23.306" y2="117.701" gradientUnits="userSpaceOnUse"><stop stop-color="#fff" stop-opacity=".6"/><stop offset="1" stop-color="#fff" stop-opacity=".3"/></linearGradient><linearGradient id="B" x1="102.638" y1="13.627" x2="23.306" y2="117.701" gradientUnits="userSpaceOnUse"><stop stop-color="#fff" stop-opacity=".6"/><stop offset="1" stop-color="#fff" stop-opacity=".3"/></linearGradient><linearGradient id="C" x1="102.638" y1="13.627" x2="23.306" y2="117.701" gradientUnits="userSpaceOnUse"><stop stop-color="#fff" stop-opacity=".6"/><stop offset="1" stop-color="#fff" stop-opacity=".3"/></linearGradient><linearGradient id="D" x1="102.638" y1="13.627" x2="23.306" y2="117.701" gradientUnits="userSpaceOnUse"><stop stop-color="#fff" stop-opacity=".6"/><stop offset="1" stop-color="#fff" stop-opacity=".3"/></linearGradient><linearGradient id="E" x1="102.638" y1="13.627" x2="23.306" y2="117.701" gradientUnits="userSpaceOnUse"><stop stop-color="#fff" stop-opacity=".6"/><stop offset="1" stop-color="#fff" stop-opacity=".3"/></linearGradient><linearGradient id="F" x1="102.638" y1="13.627" x2="23.306" y2="117.701" gradientUnits="userSpaceOnUse"><stop stop-color="#fff" stop-opacity=".6"/><stop offset="1" stop-color="#fff" stop-opacity=".3"/></linearGradient><linearGradient id="G" x1="102.638" y1="13.627" x2="23.306" y2="117.701" gradientUnits="userSpaceOnUse"><stop stop-color="#fff" stop-opacity=".6"/><stop offset="1" stop-color="#fff" stop-opacity=".3"/></linearGradient><linearGradient id="H" x1="102.638" y1="13.627" x2="23.306" y2="117.701" gradientUnits="userSpaceOnUse"><stop stop-color="#fff" stop-opacity=".6"/><stop offset="1" stop-color="#fff" stop-opacity=".3"/></linearGradient><linearGradient id="I" x1="102.638" y1="13.627" x2="23.306" y2="117.701" gradientUnits="userSpaceOnUse"><stop stop-color="#fff" stop-opacity=".6"/><stop offset="1" stop-color="#fff" stop-opacity=".3"/></linearGradient></defs></svg>