<svg width="593" height="212" viewBox="0 0 593 212" fill="none" preserveAspectRatio="none" xmlns="http://www.w3.org/2000/svg">
<path opacity="0.15" d="M5.28066 124.05C4.58304 108.629 10.6294 96.667 22.9908 87.1775C35.3852 77.6628 54.1347 70.632 78.821 65.1728C128.189 54.2553 201.037 49.6738 293.567 43.8565C386.097 38.0392 458.946 33.4607 509.019 38.1263C534.058 40.4594 553.335 45.0995 566.518 53.0062C579.665 60.8919 586.756 72.0277 587.454 87.4491C588.151 102.857 581.654 114.848 568.709 124.381C555.733 133.937 536.284 141.012 511.134 146.501C460.838 157.477 387.988 162.059 299.167 167.643C210.347 173.227 137.497 177.805 86.4954 173.198C60.9922 170.894 41.0158 166.297 27.2512 158.422C13.5196 150.567 5.97765 139.458 5.28066 124.05Z" stroke="url(#paint0_linear)"/>
<path opacity="0.15" d="M6.00117 136.027C4.84703 120.645 10.5349 108.441 22.6078 98.4483C34.7128 88.4289 53.2427 80.6301 77.7522 74.1575C126.767 61.2134 199.435 53.6345 291.736 44.0099C384.037 34.3853 456.706 26.8095 506.886 29.41C531.979 30.7104 551.383 34.5537 564.791 41.9128C578.165 49.2523 585.581 60.0892 586.735 75.4719C587.889 90.841 581.751 103.093 569.096 113.153C556.411 123.237 537.184 131.11 512.211 137.631C462.271 150.672 389.601 158.251 301.001 167.489C212.4 176.728 139.73 184.304 88.6231 181.8C63.0671 180.548 42.9664 176.776 28.9768 169.473C15.0205 162.188 7.15429 151.396 6.00117 136.027Z" stroke="url(#paint1_linear)"/>
<path opacity="0.15" d="M7.23412 149.45C5.5684 134.134 10.8449 121.677 22.5757 111.132C34.3377 100.56 52.5937 91.9089 76.8688 84.3063C125.414 69.1024 197.774 58.1641 289.683 44.2727C381.592 30.3812 453.952 19.446 504.181 19.7207C529.298 19.8581 548.815 22.8 562.459 29.5325C576.067 36.2472 583.838 46.7322 585.504 62.0487C587.168 77.3517 581.444 89.8779 569.134 100.517C556.795 111.181 537.845 119.937 513.108 127.61C463.641 142.954 391.279 153.892 303.055 167.227C214.83 180.561 142.469 191.497 91.3179 191.361C65.7397 191.293 45.5286 188.455 31.3062 181.806C17.1176 175.172 8.89836 164.753 7.23412 149.45Z" stroke="url(#paint2_linear)"/>
<defs>
<linearGradient id="paint0_linear" x1="299.19" y1="168.142" x2="291.353" y2="43.4948" gradientUnits="userSpaceOnUse">
<stop stop-color="#1F39FF"/>
<stop offset="0.505208" stop-color="#40DDB7" stop-opacity="0.7"/>
<stop offset="1" stop-color="#61FF17"/>
</linearGradient>
<linearGradient id="paint1_linear" x1="301.038" y1="167.988" x2="288.097" y2="43.8868" gradientUnits="userSpaceOnUse">
<stop stop-color="#1F39FF"/>
<stop offset="0.505208" stop-color="#40DDB7" stop-opacity="0.7"/>
<stop offset="1" stop-color="#61FF17"/>
</linearGradient>
<linearGradient id="paint2_linear" x1="303.109" y1="167.724" x2="284.492" y2="44.552" gradientUnits="userSpaceOnUse">
<stop stop-color="#1F39FF"/>
<stop offset="0.505208" stop-color="#40DDB7" stop-opacity="0.7"/>
<stop offset="1" stop-color="#61FF17"/>
</linearGradient>
</defs>
</svg>
