<svg width="14" height="17" viewBox="0 0 14 17" fill="none" preserveAspectRatio="none" xmlns="http://www.w3.org/2000/svg">
<path d="M13.2666 10.1297C13.1896 10.2086 12.8992 10.5463 12.6286 10.824C11.0423 12.5708 6.90407 15.43 4.73815 16.3027C4.40921 16.4429 3.5776 16.7397 3.13327 16.7588C2.70751 16.7588 2.30165 16.6608 1.91436 16.462C1.43157 16.1842 1.04427 15.7472 0.83206 15.2312C0.695446 14.8731 0.483231 13.8016 0.483231 13.7826C0.271015 12.6103 0.154297 10.7056 0.154297 8.60072C0.154297 6.59524 0.271015 4.76811 0.444767 3.57817C0.464662 3.55911 0.676877 2.22756 0.908988 1.77146C1.33474 0.938229 2.16636 0.420862 3.05634 0.420862L3.13327 0.420862C3.71288 0.441284 4.93179 0.958653 4.93179 0.977714C6.981 1.85179 11.0237 4.5707 12.6485 6.3774C12.6485 6.3774 13.1061 6.84167 13.305 7.13167C13.6154 7.54828 13.7692 8.06429 13.7692 8.58029C13.7692 9.15621 13.5955 9.69264 13.2666 10.1297Z" fill="black"/>
</svg>
