<svg width="1440" height="1412" viewBox="0 0 1440 1412" fill="none" preserveAspectRatio="none" xmlns="http://www.w3.org/2000/svg">
<path opacity="0.1" d="M2670.83 636.296C2670.83 766.442 2641.44 871.089 2584.7 954.888C2527.95 1038.69 2443.77 1101.77 2333.95 1148.63C2114.25 1242.38 1792.27 1271.09 1383.3 1271.09C974.332 1271.09 652.357 1243.09 432.654 1149.69C322.841 1103.01 238.656 1040.02 181.912 956.084C125.17 872.153 95.7812 767.152 95.7812 636.296C95.7812 505.46 127.209 400.467 186.505 316.534C245.807 232.591 333.069 169.593 444.94 122.904C668.749 29.4993 990.734 1.5 1383.3 1.5C1775.87 1.5 2097.86 30.2075 2321.67 123.966C2433.54 170.832 2520.8 233.92 2580.1 317.73C2639.4 401.531 2670.83 506.171 2670.83 636.296Z" stroke="url(#paint0_linear)" stroke-width="3"/>
<path opacity="0.1" d="M2621.04 676.127C2621.04 806.273 2591.65 910.919 2534.91 994.718C2478.16 1078.52 2393.97 1141.6 2284.16 1188.46C2064.46 1282.21 1742.48 1310.92 1333.51 1310.92C924.541 1310.92 602.566 1282.92 382.863 1189.52C273.05 1142.84 188.865 1079.85 132.121 995.915C75.3789 911.984 45.9902 806.983 45.9902 676.127C45.9902 545.291 77.4182 440.297 136.714 356.364C196.016 272.422 283.278 209.423 395.149 162.735C618.958 69.3301 940.943 41.3308 1333.51 41.3308C1726.08 41.3308 2048.07 70.0383 2271.88 163.797C2383.75 210.663 2471.01 273.751 2530.31 357.561C2589.61 441.362 2621.04 546.002 2621.04 676.127Z" stroke="url(#paint1_linear)" stroke-width="3"/>
<path opacity="0.1" d="M2561.29 725.915C2561.29 856.061 2531.9 960.708 2475.16 1044.51C2418.42 1128.31 2334.23 1191.39 2224.42 1238.25C2004.71 1332 1682.74 1360.71 1273.77 1360.71C864.795 1360.71 542.821 1332.71 323.118 1239.31C213.305 1192.63 129.12 1129.64 72.3756 1045.7C15.6338 961.772 -13.7549 856.771 -13.7549 725.915C-13.7549 595.08 17.6731 490.086 76.9686 406.153C136.271 322.211 223.532 259.212 335.404 212.523C559.213 119.118 881.198 91.1191 1273.77 91.1191C1666.34 91.1191 1988.32 119.827 2212.13 213.585C2324 260.451 2411.26 323.539 2470.57 407.349C2529.86 491.15 2561.29 595.79 2561.29 725.915Z" stroke="url(#paint2_linear)" stroke-width="3"/>
<path opacity="0.1" d="M2501.55 775.704C2501.55 905.849 2472.16 1010.5 2415.42 1094.3C2358.67 1178.1 2274.48 1241.18 2164.67 1288.04C1944.97 1381.79 1622.99 1410.5 1214.02 1410.5C805.05 1410.5 483.076 1382.5 263.373 1289.1C153.56 1242.42 69.3744 1179.43 12.6305 1095.49C-44.1114 1011.56 -73.5 906.56 -73.5 775.704C-73.5 644.868 -42.072 539.874 17.2235 455.941C76.5255 371.999 163.787 309 275.659 262.312C499.468 168.907 821.452 140.908 1214.02 140.908C1606.59 140.908 1928.58 169.615 2152.38 263.374C2264.26 310.24 2351.52 373.327 2410.82 457.138C2470.12 540.939 2501.55 645.578 2501.55 775.704Z" stroke="url(#paint3_linear)" stroke-width="3"/>
<defs>
<linearGradient id="paint0_linear" x1="172" y1="1048.5" x2="1452" y2="2.64962e-05" gradientUnits="userSpaceOnUse">
<stop stop-color="#B7B7B7"/>
<stop offset="1" stop-color="#B7B7B7" stop-opacity="0"/>
</linearGradient>
<linearGradient id="paint1_linear" x1="122.209" y1="1088.33" x2="1402.21" y2="39.8308" gradientUnits="userSpaceOnUse">
<stop stop-color="#B7B7B7"/>
<stop offset="1" stop-color="#B7B7B7" stop-opacity="0"/>
</linearGradient>
<linearGradient id="paint2_linear" x1="62.4639" y1="1138.12" x2="1342.46" y2="89.6192" gradientUnits="userSpaceOnUse">
<stop stop-color="#B7B7B7"/>
<stop offset="1" stop-color="#B7B7B7" stop-opacity="0"/>
</linearGradient>
<linearGradient id="paint3_linear" x1="2.71877" y1="1187.91" x2="1282.72" y2="139.408" gradientUnits="userSpaceOnUse">
<stop stop-color="#B7B7B7"/>
<stop offset="1" stop-color="#B7B7B7" stop-opacity="0"/>
</linearGradient>
</defs>
</svg>
