<svg width="33" height="25" viewBox="0 0 33 25" fill="none" xmlns="http://www.w3.org/2000/svg">
<mask id="mask0" mask-type="alpha" maskUnits="userSpaceOnUse" x="0" y="0" width="33" height="25">
<path fill-rule="evenodd" clip-rule="evenodd" d="M2.05109 0H30.3034C31.4465 0 32.3584 0.938246 32.3584 2.07713V12.7414C32.3601 13.2899 32.147 13.8184 31.7633 14.21C31.3783 14.6028 30.853 14.8252 30.3034 14.8252H1.71261L1.70294 14.8251C0.750832 14.8127 -1.39623e-05 14.0282 1.94729e-10 13.0828V2.07326L1.9589e-05 2.06939C0.00575534 0.937117 0.910901 0.00595004 2.04721 2.02446e-05L2.05109 0ZM5.77618 5.84543V8.97977H26.5822V5.84543H5.77618ZM4.23131 18.7265H1.55189C0.691365 18.7265 1.94729e-10 19.4251 1.94729e-10 20.2791V22.9571C1.94729e-10 23.8111 0.691364 24.5097 1.55189 24.5097H4.23131C5.09184 24.5097 5.7832 23.8111 5.7832 22.9571V20.2791C5.7832 19.4251 5.09184 18.7265 4.23131 18.7265Z" fill="#136BFF"/>
</mask>
<g mask="url(#mask0)">
<path fill-rule="evenodd" clip-rule="evenodd" d="M2.05109 0H30.3034C31.4465 0 32.3584 0.938246 32.3584 2.07713V12.7414C32.3601 13.2899 32.147 13.8184 31.7633 14.21C31.3783 14.6028 30.853 14.8252 30.3034 14.8252H1.71261L1.70294 14.8251C0.750832 14.8127 -1.39623e-05 14.0282 1.94729e-10 13.0828V2.07326L1.9589e-05 2.06939C0.00575534 0.937117 0.910901 0.00595004 2.04721 2.02446e-05L2.05109 0ZM5.77618 5.84543V8.97977H26.5822V5.84543H5.77618ZM4.23131 18.7265H1.55189C0.691365 18.7265 1.94729e-10 19.4251 1.94729e-10 20.2791V22.9571C1.94729e-10 23.8111 0.691364 24.5097 1.55189 24.5097H4.23131C5.09184 24.5097 5.7832 23.8111 5.7832 22.9571V20.2791C5.7832 19.4251 5.09184 18.7265 4.23131 18.7265Z" fill="#161616"/>
</g>
</svg>
