<svg width="20" height="20" viewBox="0 0 20 20" fill="none" xmlns="http://www.w3.org/2000/svg">
    <path d="M7.5 5.83341C5 5.83341 4.16666 8.33341 4.16666 10.4167C4.16666 12.9167 5.83333 16.6667 7.5 16.6667C8.40666 16.6284 8.89916 16.2501 10 16.2501C11.0933 16.2501 11.25 16.6667 12.5 16.6667C13.75 16.6667 15.8333 14.1667 15.8333 12.5001C15.81 12.4917 13.7733 12.1642 13.75 10.0001C13.7342 8.19175 15.7633 7.53841 15.8333 7.50008C14.9808 6.25675 13.3742 5.86425 12.9167 5.83341C11.7225 5.74091 10.5583 6.66675 10 6.66675C9.43333 6.66675 8.41666 5.83341 7.5 5.83341Z" stroke="currentColor" stroke-width="2" stroke-linecap="round" stroke-linejoin="round"/>
    <path d="M10 3.33341C10.442 3.33341 10.8659 3.15782 11.1785 2.84526C11.4911 2.5327 11.6667 2.10878 11.6667 1.66675C11.2246 1.66675 10.8007 1.84234 10.4882 2.1549C10.1756 2.46746 10 2.89139 10 3.33341Z" stroke="currentColor" stroke-width="2" stroke-linecap="round" stroke-linejoin="round"/>
</svg>
