<svg width="20" height="20" viewBox="0 0 20 20" fill="none" xmlns="http://www.w3.org/2000/svg">
    <path d="M4.07996 5.60341C3.78489 5.88592 3.79117 6.32537 4.07996 6.6016L7.31935 9.76566C7.44491 9.89122 7.63953 9.97283 7.80903 9.97283C8.20454 9.97283 8.47449 9.6966 8.47449 9.30737C8.47449 9.11904 8.41171 8.96837 8.27987 8.84281L6.9364 7.54956L5.98216 6.72088L7.31308 6.7711H15.4618C15.851 6.7711 16.1335 6.48859 16.1335 6.09937C16.1335 5.71014 15.851 5.43391 15.4618 5.43391H7.31308L5.98216 5.47785L6.9364 4.65545L8.27987 3.3622C8.41171 3.23664 8.47449 3.07969 8.47449 2.89136C8.47449 2.50841 8.20454 2.23218 7.80903 2.23218C7.63953 2.23218 7.44491 2.31379 7.31935 2.43935L4.07996 5.60341ZM15.9138 13.9154C16.2089 13.6328 16.2026 13.1934 15.9138 12.9172L12.6807 9.7531C12.5488 9.62755 12.3542 9.54593 12.1847 9.54593C11.7955 9.54593 11.5255 9.82216 11.5255 10.2114C11.5255 10.3934 11.5883 10.5504 11.7139 10.676L13.0574 11.9692L14.0116 12.7916L12.6807 12.7477H4.53196C4.14901 12.7477 3.86023 13.0302 3.86023 13.4194C3.86023 13.8024 4.14901 14.0849 4.53196 14.0849H12.6807L14.0116 14.0409L13.0574 14.8633L11.7139 16.1566C11.5883 16.2821 11.5255 16.4391 11.5255 16.6211C11.5255 17.0104 11.7955 17.2866 12.1847 17.2866C12.3542 17.2866 12.5488 17.205 12.6807 17.0794L15.9138 13.9154Z" fill="currentColor"/>
</svg>
