<svg width="24" height="24" viewBox="0 0 24 24" fill="none" xmlns="http://www.w3.org/2000/svg">
<path d="M7 17.0006V17.0106M7 7V7.01M16.9997 7V7.01M16.9997 14.0006H13.9997V17.0006M19.9997 14.0006V14.0106M13.9997 20.0006H16.9997M16.9997 17.0006H19.9997L19.9997 20.0006M5 4H9C9.55228 4 10 4.44772 10 5V9C10 9.55228 9.55228 10 9 10H5C4.44772 10 4 9.55228 4 9V5C4 4.44772 4.44772 4 5 4ZM14.9997 4H18.9997C19.552 4 19.9997 4.44772 19.9997 5V9C19.9997 9.55228 19.552 10 18.9997 10H14.9997C14.4474 10 13.9997 9.55228 13.9997 9V5C13.9997 4.44772 14.4474 4 14.9997 4ZM5 14.0006H9C9.55228 14.0006 10 14.4483 10 15.0006V19.0006C10 19.5529 9.55228 20.0006 9 20.0006H5C4.44772 20.0006 4 19.5529 4 19.0006V15.0006C4 14.4483 4.44772 14.0006 5 14.0006Z" stroke="currentColor" stroke-width="2" stroke-linecap="round" stroke-linejoin="round"/>
</svg>
