<svg width="24" height="24" viewBox="0 0 24 24" fill="none" xmlns="http://www.w3.org/2000/svg">
<path d="M12 15.8571V15.87M10.5343 8.81914C10.7444 8.57303 11.0131 8.38375 11.3156 8.26875C11.6181 8.15374 11.9447 8.1167 12.2652 8.16105C12.5858 8.20539 12.8901 8.32969 13.15 8.52249C13.4099 8.7153 13.6171 8.97041 13.7525 9.26432C13.888 9.55824 13.9473 9.88151 13.925 10.2044C13.9027 10.5272 13.7995 10.8393 13.6249 11.1117C13.4503 11.3842 13.21 11.6084 12.926 11.7637C12.6421 11.9189 12.3236 12.0002 12 12V13M21 12C21 16.9706 16.9706 21 12 21C7.02944 21 3 16.9706 3 12C3 7.02944 7.02944 3 12 3C16.9706 3 21 7.02944 21 12Z" stroke="currentColor" stroke-width="2" stroke-linecap="round" stroke-linejoin="round"/>
</svg>
