<svg width="24" height="24" viewBox="0 0 24 24" fill="none" xmlns="http://www.w3.org/2000/svg">
<path d="M7.00048 14C5.95971 14.5876 5.11814 15.4726 4.58364 16.5416C4.04914 17.6106 3.84608 18.8148 4.00048 20C5.18564 20.1544 6.38991 19.9513 7.4589 19.4168C8.5279 18.8823 9.41291 18.0408 10.0005 17M4.00048 13C5.78357 13.2119 7.44353 14.0175 8.71324 15.2872C9.98295 16.557 10.7886 18.2169 11.0005 20C11.8844 19.4904 12.6238 18.7638 13.1487 17.8889C13.6736 17.014 13.9668 16.0197 14.0005 15C15.6796 14.4093 17.1458 13.334 18.2138 11.91C19.2818 10.486 19.9036 8.77734 20.0005 7C20.0005 6.20435 19.6844 5.44129 19.1218 4.87868C18.5592 4.31607 17.7961 4 17.0005 4C15.2231 4.09691 13.5145 4.71867 12.0905 5.78665C10.6665 6.85464 9.59117 8.32089 9.00048 10C7.98074 10.0337 6.98644 10.3268 6.11154 10.8518C5.23665 11.3767 4.51007 12.1161 4.00048 13ZM16.0005 9C16.0005 9.55228 15.5528 10 15.0005 10C14.4482 10 14.0005 9.55228 14.0005 9C14.0005 8.44772 14.4482 8 15.0005 8C15.5528 8 16.0005 8.44772 16.0005 9Z" stroke="currentColor" stroke-width="2" stroke-linecap="round" stroke-linejoin="round"/>
</svg>
