<svg width="24" height="24" viewBox="0 0 24 24" fill="none" xmlns="http://www.w3.org/2000/svg">
<path d="M10.0001 14L21.0001 3M10.0001 14L13.5001 21C13.5439 21.0957 13.6144 21.1769 13.703 21.2338C13.7917 21.2906 13.8948 21.3209 14.0001 21.3209C14.1054 21.3209 14.2085 21.2906 14.2971 21.2338C14.3858 21.1769 14.4562 21.0957 14.5001 21L21.0001 3M10.0001 14L3.00007 10.5C2.90433 10.4561 2.8232 10.3857 2.76632 10.2971C2.70944 10.2084 2.6792 10.1053 2.6792 10C2.6792 9.89468 2.70944 9.79158 2.76632 9.70295C2.8232 9.61431 2.90433 9.54387 3.00007 9.5L21.0001 3" stroke="currentColor" stroke-width="2" stroke-linecap="round" stroke-linejoin="round"/>
</svg>
