<svg width="48" height="48" viewBox="0 0 48 48" fill="none" xmlns="http://www.w3.org/2000/svg">
<path d="M0.5 24C0.5 15.0277 2.00183 9.20527 5.60355 5.60355C9.20527 2.00183 15.0277 0.5 24 0.5C32.9723 0.5 38.7947 2.00183 42.3964 5.60355C45.9982 9.20527 47.5 15.0277 47.5 24C47.5 32.9723 45.9982 38.7947 42.3964 42.3964C38.7947 45.9982 32.9723 47.5 24 47.5C15.0277 47.5 9.20527 45.9982 5.60355 42.3964C2.00183 38.7947 0.5 32.9723 0.5 24Z" fill="white" stroke="currentColor"/>
<path d="M19 15V33M19 15L22 18M19 15L16 18M32 30L29 33M29 33L26 30M29 33V15" stroke="currentColor" stroke-width="2" stroke-linecap="round" stroke-linejoin="round"/>
</svg>
