<svg width="24" height="24" viewBox="0 0 24 24" fill="none" xmlns="http://www.w3.org/2000/svg">
<path d="M20 11.0002C19.7554 9.24041 18.9391 7.60985 17.6766 6.35969C16.4142 5.10953 14.7758 4.30911 13.0137 4.08175C11.2516 3.85438 9.46362 4.21268 7.9252 5.10144C6.38678 5.9902 5.18325 7.36013 4.5 9.00019M4 5.00019V9.00019H8M4 13.0002C4.24456 14.76 5.06093 16.3905 6.32336 17.6407C7.58579 18.8909 9.22424 19.6913 10.9863 19.9186C12.7484 20.146 14.5364 19.7877 16.0748 18.8989C17.6132 18.0102 18.8168 16.6403 19.5 15.0002M20 19.0002V15.0002H16" stroke="currentColor" stroke-width="2" stroke-linecap="round" stroke-linejoin="round"/>
</svg>
