<svg width="11" height="8" viewBox="0 0 11 8" fill="none" xmlns="http://www.w3.org/2000/svg">
<g clip-path="url(#clip0)">
<path d="M11 0.733855C11 0.52786 10.8954 0.354858 10.6861 0.214846C10.4768 0.0748341 10.1857 0.004828 9.81265 0.004828L1.18052 0C0.816583 0 0.528845 0.0708108 0.317308 0.212432C0.105769 0.354054 0 0.52786 0 0.733855C0 0.840071 0.0284327 0.942263 0.0852979 1.04043C0.142163 1.1386 0.211539 1.25045 0.293424 1.37598L4.37409 7.36753C4.52876 7.58962 4.69708 7.75055 4.87905 7.85033C5.06102 7.95011 5.268 8 5.50002 8C5.73658 8 5.9447 7.95011 6.1244 7.85033C6.30409 7.75055 6.47127 7.58962 6.62595 7.36753L10.7066 1.37598C10.793 1.25045 10.8636 1.1386 10.9181 1.04043C10.9727 0.942264 11 0.840071 11 0.733855H11Z" fill="currentColor"/>
</g>
<defs>
<clipPath id="clip0">
<rect width="11" height="8" fill="white"/>
</clipPath>
</defs>
</svg>
