<svg width="17" height="17" viewBox="0 0 17 17" fill="none" xmlns="http://www.w3.org/2000/svg">
<path d="M12.8662 16.9875C13.1175 16.9875 13.3248 16.9059 13.4882 16.7428C13.6515 16.5797 13.7332 16.3811 13.7332 16.1469C13.7332 15.9211 13.6515 15.7245 13.4882 15.5572C13.3248 15.3899 13.1301 15.3063 12.9039 15.3063L7.56393 15.3063L2.51294 15.4694L4.67406 13.4997L16.7487 1.44281C16.9162 1.27553 17 1.07897 17 0.853137C17 0.702583 16.9602 0.560394 16.8806 0.426568C16.8011 0.292743 16.6964 0.188192 16.5665 0.112915C16.4367 0.0376383 16.2964 -3.07563e-08 16.1456 -3.7347e-08C15.9194 -4.72329e-08 15.7226 0.0878229 15.5551 0.263469L3.46784 12.3078L1.50776 14.4657L1.6711 8.83248L1.6711 4.10259C1.6711 3.87676 1.59153 3.6802 1.43237 3.51292C1.27322 3.34563 1.08056 3.26199 0.854399 3.26199C0.628235 3.26199 0.431387 3.34145 0.263857 3.50037C0.0963286 3.65929 0.0125635 3.86839 0.0125635 4.12768L-7.0306e-07 16.0841C-7.15125e-07 16.3602 0.0837624 16.5818 0.251292 16.7491C0.418821 16.9164 0.632421 17 0.892087 17L12.8662 16.9875Z" fill="currentColor"/>
</svg>
