<svg width="24" height="24" viewBox="0 0 24 24" fill="none" xmlns="http://www.w3.org/2000/svg">
<g clip-path="url(#clip0)">
<path d="M17 8.50677C17 8.3526 16.9304 8.23042 16.791 8.14022C16.6517 8.05002 16.4617 8.00492 16.221 8.00492L7.77264 8C7.53621 8 7.34832 8.04592 7.20899 8.13776C7.06966 8.2296 7 8.35096 7 8.50184C7 8.58384 7.02005 8.66093 7.06016 8.73309C7.10027 8.80525 7.14777 8.88725 7.20266 8.97909L11.2875 15.5424C11.3931 15.7097 11.5018 15.8278 11.6137 15.8967C11.7256 15.9656 11.8533 16 11.9968 16C12.1446 16 12.2734 15.9656 12.3832 15.8967C12.4929 15.8278 12.6027 15.7097 12.7125 15.5424L16.791 8.97909C16.8501 8.89053 16.8997 8.81017 16.9398 8.73801C16.9799 8.66585 17 8.58877 17 8.50676L17 8.50677Z" fill="currentColor"/>
</g>
<defs>
<clipPath id="clip0">
<rect width="10" height="8" fill="white" transform="translate(7 8)"/>
</clipPath>
</defs>
</svg>
