<svg width="16" height="16" viewBox="0 0 16 16" fill="none" xmlns="http://www.w3.org/2000/svg">
<g clip-path="url(#clip0)">
<path d="M11.3327 5.6711C11.3327 5.56832 11.2863 5.48687 11.1934 5.42673C11.1005 5.3666 10.9738 5.33653 10.8134 5.33653L5.18111 5.33325C5.02349 5.33325 4.89823 5.36387 4.80534 5.42509C4.71246 5.48632 4.66602 5.56723 4.66602 5.66781C4.66602 5.72248 4.67939 5.77387 4.70613 5.82198C4.73287 5.87008 4.76453 5.92475 4.80112 5.98598L7.52436 10.3615C7.59473 10.4731 7.66721 10.5518 7.7418 10.5977C7.81639 10.6436 7.90154 10.6666 7.99724 10.6666C8.09575 10.6666 8.1816 10.6436 8.25478 10.5977C8.32797 10.5518 8.40115 10.4731 8.47433 10.3615L11.1933 5.98598C11.2328 5.92694 11.2658 5.87336 11.2926 5.82526C11.3193 5.77715 11.3327 5.72576 11.3327 5.6711L11.3327 5.6711Z" fill="currentColor"/>
</g>
<defs>
<clipPath id="clip0">
<rect width="6.66667" height="5.33333" fill="currentColor" transform="translate(4.66602 5.33325)"/>
</clipPath>
</defs>
</svg>
