<?xml version="1.0" encoding="utf-8"?>
<svg id="master-artboard" viewBox="0 0 24 23" xmlns="http://www.w3.org/2000/svg" x="0px" y="0px" style="enable-background:new 0 0 1400 980;" width="24px" height="23px">
<rect id="ee-background" x="0" y="0" width="24" height="23" style="fill: white; fill-opacity: 0; pointer-events: none;"/>
<g transform="matrix(0.9166735879397188, 0, 0, 0.9665647745132446, -2.494860864659312, -3.579944133758545)">
<path d="M26.6667 26.6668H5.33341C4.85541 26.6668 4.41541 26.4115 4.17741 25.9975C3.94008 25.5835 3.94141 25.0742 4.18208 24.6615L14.8487 5.99483C15.0874 5.5855 15.5261 5.3335 16.0001 5.3335C16.4741 5.3335 16.9127 5.5855 17.1521 5.99483L27.8187 24.6615C28.0594 25.0742 28.0607 25.5835 27.8234 25.9975C27.5861 26.4115 27.1441 26.6668 26.6667 26.6668Z" fill="#FFC107"/>
<path d="M14.6667 22.7613C14.6667 22.582 14.6981 22.418 14.7621 22.264C14.8247 22.112 14.9147 21.98 15.0307 21.8693C15.1447 21.7573 15.2854 21.67 15.4467 21.6073C15.6094 21.546 15.7921 21.5133 15.9961 21.5133C16.2001 21.5133 16.3841 21.546 16.5481 21.6073C16.7147 21.67 16.8554 21.7573 16.9694 21.8693C17.0861 21.98 17.1761 22.112 17.2381 22.264C17.3021 22.418 17.3334 22.582 17.3334 22.7613C17.3334 22.9413 17.3021 23.1053 17.2381 23.2547C17.1754 23.4047 17.0854 23.534 16.9694 23.6467C16.8554 23.7573 16.7147 23.844 16.5481 23.908C16.3841 23.9693 16.2001 24 15.9961 24C15.7914 24 15.6094 23.9693 15.4467 23.9073C15.2854 23.8433 15.1447 23.7567 15.0307 23.646C14.9141 23.5333 14.8241 23.404 14.7621 23.254C14.6981 23.1047 14.6667 22.9407 14.6667 22.7613ZM16.9867 20H15.0047L14.7241 12H17.2667L16.9867 20Z" fill="#5D4037"/>
</g>
</svg>
