<svg width="24" height="24" viewBox="0 0 24 24" fill="none" xmlns="http://www.w3.org/2000/svg">
<path d="M3 16.7727C3 17.3634 3.23705 17.93 3.65901 18.3476C4.08097 18.7653 4.65326 19 5.25 19H18.75C19.3467 19 19.919 18.7653 20.341 18.3476C20.7629 17.93 21 17.3634 21 16.7727V10.6477H3V16.7727ZM5.65179 13.75C5.65179 13.4335 5.77878 13.1301 6.00483 12.9063C6.23088 12.6825 6.53746 12.5568 6.85714 12.5568H8.78571C9.10539 12.5568 9.41198 12.6825 9.63803 12.9063C9.86408 13.1301 9.99107 13.4335 9.99107 13.75V14.5455C9.99107 14.8619 9.86408 15.1654 9.63803 15.3892C9.41198 15.6129 9.10539 15.7386 8.78571 15.7386H6.85714C6.53746 15.7386 6.23088 15.6129 6.00483 15.3892C5.77878 15.1654 5.65179 14.8619 5.65179 14.5455V13.75ZM18.75 5H5.25C4.65326 5 4.08097 5.23466 3.65901 5.65235C3.23705 6.07005 3 6.63656 3 7.22727V8.26136H21V7.22727C21 6.63656 20.7629 6.07005 20.341 5.65235C19.919 5.23466 19.3467 5 18.75 5Z" fill="currentColor"/>
</svg>
