<svg width="20" height="20" viewBox="0 0 20 20" fill="none" xmlns="http://www.w3.org/2000/svg">
<path d="M9.02249 14.1666C9.2733 14.1666 9.46769 14.061 9.60563 13.8499L14.0262 6.83114C14.0733 6.75438 14.1085 6.68161 14.1321 6.61285C14.1556 6.54409 14.1673 6.47452 14.1673 6.40416C14.1673 6.23784 14.114 6.10111 14.0074 5.99397C13.9008 5.88682 13.7645 5.83325 13.5983 5.83325C13.4792 5.83325 13.3804 5.85724 13.302 5.90522C13.2236 5.95319 13.15 6.03315 13.081 6.14509L9.00366 12.7417L6.91092 10.0023C6.77611 9.82639 6.61151 9.73844 6.41713 9.73844C6.24783 9.73844 6.10831 9.79361 5.99858 9.90395C5.88885 10.0143 5.83398 10.1526 5.83398 10.3189C5.83398 10.3957 5.84731 10.4701 5.87396 10.542C5.90061 10.614 5.94528 10.6868 6.00799 10.7603L8.44403 13.8595C8.60392 14.0642 8.79674 14.1666 9.02247 14.1666L9.02249 14.1666Z" fill="currentColor" stroke="currentColor"/>
</svg>
