<svg width="17" height="15" viewBox="0 0 17 15" fill="none" xmlns="http://www.w3.org/2000/svg">
<path d="M10.3709 1.13482C10.4499 1.21175 10.7875 1.50221 11.0652 1.77279C12.812 3.3591 15.6712 7.4973 16.5439 9.66322C16.6841 9.99215 16.9809 10.8238 17 11.2681C17 11.6939 16.902 12.0997 16.7032 12.487C16.4254 12.9698 15.9884 13.3571 15.4724 13.5693C15.1143 13.7059 14.0428 13.9181 14.0238 13.9181C12.8515 14.1304 10.9468 14.2471 8.84193 14.2471C6.83645 14.2471 5.00932 14.1304 3.81938 13.9566C3.80032 13.9367 2.46877 13.7245 2.01267 13.4924C1.17944 13.0666 0.662073 12.235 0.662073 11.345L0.662073 11.2681C0.682495 10.6885 1.19986 9.46957 1.21892 9.46957C2.093 7.42037 4.81191 3.37767 6.61861 1.75289C6.61861 1.75289 7.08288 1.2953 7.37288 1.09635C7.78949 0.785988 8.3055 0.632132 8.82151 0.632132C9.39742 0.632132 9.93385 0.805884 10.3709 1.13482Z" fill="currentColor"/>
</svg>
