<svg width="18" height="18" viewBox="0 0 18 18" fill="none" xmlns="http://www.w3.org/2000/svg">
<path fill-rule="evenodd" clip-rule="evenodd" d="M5.10307 0H12.9062C15.9572 0 18.0002 2.14113 18.0002 5.32717V12.6803C18.0002 15.8582 15.9572 18.0002 12.9062 18.0002H5.10307C2.05203 18.0002 0 15.8582 0 12.6803V5.32717C0 2.14113 2.05203 0 5.10307 0ZM12.2219 12.4292C12.4469 12.4292 12.6719 12.3122 12.7979 12.0962C12.9959 11.7803 12.8879 11.3663 12.5639 11.1692L9.35989 9.26113V5.10218C9.35989 4.73407 9.06289 4.42717 8.68488 4.42717C8.31588 4.42717 8.00987 4.73407 8.00987 5.10218V9.64814C8.00987 9.88214 8.13588 10.1071 8.34288 10.2241L11.8709 12.3302C11.9789 12.4022 12.1049 12.4292 12.2219 12.4292Z" fill="currentColor"/>
</svg>
