<svg width="17" height="17" viewBox="0 0 17 17" fill="none" xmlns="http://www.w3.org/2000/svg">
<path fill-rule="evenodd" clip-rule="evenodd" d="M15.7574 0.462341C16.2267 0.931661 16.2267 1.69258 15.7574 2.1619L2.16093 15.7584C1.69161 16.2277 0.930695 16.2277 0.461375 15.7584C-0.00794454 15.289 -0.00794414 14.5281 0.461375 14.0588L14.0578 0.462341C14.5271 -0.00697837 15.2881 -0.00697833 15.7574 0.462341Z" fill="currentColor"/>
<path fill-rule="evenodd" clip-rule="evenodd" d="M0.461365 0.462372C0.930685 -0.00694735 1.6916 -0.00694739 2.16092 0.462372L15.7574 14.0588C16.2267 14.5281 16.2267 15.2891 15.7574 15.7584C15.2881 16.2277 14.5271 16.2277 14.0578 15.7584L0.461365 2.16193C-0.00795494 1.69261 -0.00795489 0.931692 0.461365 0.462372Z" fill="currentColor"/>
</svg>
