<svg width="22" height="22" viewBox="0 0 22 22" fill="none" xmlns="http://www.w3.org/2000/svg">
<path d="M16.3342 7.44434H9.22309C8.24125 7.44434 7.44531 8.24027 7.44531 9.22211V16.3332C7.44531 17.3151 8.24125 18.111 9.22309 18.111H16.3342C17.316 18.111 18.112 17.3151 18.112 16.3332V9.22211C18.112 8.24027 17.316 7.44434 16.3342 7.44434Z" stroke="currentColor" stroke-width="1.5" stroke-linecap="round" stroke-linejoin="round"/>
<path d="M14.5553 7.44472V5.66694C14.5553 5.19544 14.368 4.74326 14.0346 4.40986C13.7012 4.07646 13.2491 3.88916 12.7776 3.88916H5.66645C5.19495 3.88916 4.74277 4.07646 4.40937 4.40986C4.07597 4.74326 3.88867 5.19544 3.88867 5.66694V12.778C3.88867 13.2495 4.07597 13.7017 4.40937 14.0351C4.74277 14.3685 5.19495 14.5558 5.66645 14.5558H7.44423" stroke="currentColor" stroke-width="1.5" stroke-linecap="round" stroke-linejoin="round"/>
</svg>
