<svg width="24" height="24" viewBox="0 0 24 24" fill="none" xmlns="http://www.w3.org/2000/svg">
<path fill-rule="evenodd" clip-rule="evenodd" d="M21 8C21.5523 8 22 8.44772 22 9V17C22 18.6569 20.6569 20 19 20H7C6.44772 20 6 19.5523 6 19C6 18.4477 6.44772 18 7 18H19C19.5523 18 20 17.5523 20 17V9C20 8.44772 20.4477 8 21 8Z" fill="currentColor"/>
<path fill-rule="evenodd" clip-rule="evenodd" d="M5.28571 5H16.7143C17.9767 5 19 6.07452 19 7.4V14.6C19 15.9255 17.9767 17 16.7143 17H5.28571C4.02335 17 3 15.9255 3 14.6V7.4C3 6.07452 4.02335 5 5.28571 5ZM14 11C14 12.6569 12.6569 14 11 14C9.34315 14 8 12.6569 8 11C8 9.34315 9.34315 8 11 8C12.6569 8 14 9.34315 14 11Z" fill="currentColor"/>
</svg>
