<svg width="16" height="16" viewBox="0 0 16 16" fill="none" xmlns="http://www.w3.org/2000/svg">
<path fill-rule="evenodd" clip-rule="evenodd" d="M4.53607 0H11.4722C14.1842 0 16.0002 1.90323 16.0002 4.73527V11.2714C16.0002 14.0962 14.1842 16.0002 11.4722 16.0002H4.53607C1.82403 16.0002 0 14.0962 0 11.2714V4.73527C0 1.90323 1.82403 0 4.53607 0ZM4.22878 5.48586C3.88165 5.13873 3.88165 4.57591 4.22878 4.22878C4.57591 3.88165 5.13873 3.88165 5.48586 4.22878L8.00004 6.74296L10.5142 4.22881C10.8613 3.88167 11.4241 3.88167 11.7713 4.22881C12.1184 4.57594 12.1184 5.13875 11.7713 5.48589L9.25712 8.00004L11.7713 10.5142C12.1184 10.8613 12.1184 11.4241 11.7713 11.7713C11.4241 12.1184 10.8613 12.1184 10.5142 11.7713L8.00004 9.25712L5.48587 11.7713C5.13874 12.1184 4.57592 12.1184 4.22879 11.7713C3.88166 11.4242 3.88166 10.8613 4.22879 10.5142L6.74296 8.00004L4.22878 5.48586Z" fill="currentColor"/>
</svg>
