<svg width="23" height="16" viewBox="0 0 23 16" fill="none" xmlns="http://www.w3.org/2000/svg">
<path d="M11.5042 15.5661C12.2762 15.5661 13.0187 15.4986 13.7315 15.3635C14.4444 15.2284 15.1164 15.043 15.7475 14.8073L13.4061 12.4274C13.1243 12.5769 12.8214 12.689 12.4974 12.7637C12.1734 12.8384 11.8423 12.8758 11.5042 12.8758C10.8618 12.8758 10.2603 12.7522 9.69956 12.505C9.13885 12.2578 8.64578 11.9172 8.22032 11.4832C7.79486 11.0492 7.46239 10.5491 7.22289 9.98287C6.9834 9.41664 6.86365 8.81448 6.86365 8.17639C6.86365 7.81998 6.90028 7.47508 6.97353 7.14166C7.04679 6.80825 7.15386 6.49208 7.29474 6.19315L4.24329 3.06308C3.58961 3.49422 3.00073 3.95267 2.47666 4.43842C1.95259 4.92417 1.506 5.40417 1.1369 5.87842C0.767793 6.35268 0.486034 6.78956 0.291621 7.18909C0.0972069 7.58861 0 7.91484 0 8.16777C0 8.46095 0.126792 8.84322 0.380375 9.3146C0.633958 9.78598 1.00024 10.3005 1.47924 10.8581C1.95823 11.4157 2.53724 11.9704 3.21628 12.5223C3.89532 13.0741 4.66171 13.5786 5.51543 14.0356C6.36916 14.4926 7.29756 14.8619 8.30062 15.1436C9.30368 15.4253 10.3715 15.5661 11.5042 15.5661V15.5661ZM8.78243 8.02983C8.78243 8.52995 8.90499 8.98696 9.15012 9.40085C9.39525 9.81475 9.72069 10.1438 10.1264 10.3882C10.5322 10.6325 10.9802 10.7546 11.4704 10.7546C11.5211 10.7546 11.569 10.7532 11.6141 10.7503C11.6592 10.7474 11.7071 10.746 11.7578 10.746L8.79934 7.71941C8.7937 7.77114 8.78948 7.82432 8.78666 7.87893C8.78384 7.93354 8.78243 7.98384 8.78243 8.02983H8.78243ZM14.2007 7.99533C14.2007 7.49521 14.0823 7.03821 13.8456 6.62431C13.609 6.21041 13.2878 5.88131 12.882 5.637C12.4763 5.39269 12.0255 5.27053 11.5296 5.27053C11.4845 5.27053 11.4394 5.27197 11.3943 5.27484C11.3493 5.27772 11.3042 5.28203 11.2591 5.28778L14.1922 8.27126C14.1922 8.22527 14.1936 8.17928 14.1964 8.1333C14.1993 8.08731 14.2007 8.04132 14.2007 7.99533L14.2007 7.99533ZM18.9596 13.1604C19.7823 12.597 20.4952 11.9934 21.0981 11.3496C21.7011 10.7057 22.1688 10.1007 22.5013 9.53449C22.8338 8.96826 23 8.51269 23 8.16778C23 7.8746 22.8746 7.49233 22.6238 7.02095C22.3731 6.54957 22.011 6.03651 21.5377 5.48178C21.0643 4.92705 20.4895 4.37375 19.8133 3.82189C19.1371 3.27003 18.3721 2.76416 17.5184 2.30428C16.6646 1.8444 15.7334 1.47506 14.7247 1.19625C13.716 0.917449 12.6425 0.77805 11.5042 0.77805C10.7829 0.77805 10.087 0.836972 9.41639 0.954817C8.74581 1.07266 8.1034 1.23506 7.48916 1.442L9.81367 3.80465C10.0729 3.69543 10.3434 3.61207 10.6251 3.55459C10.9069 3.4971 11.1999 3.46836 11.5042 3.46836C12.1466 3.46836 12.7468 3.58764 13.3047 3.82621C13.8625 4.06477 14.3542 4.39962 14.7797 4.83076C15.2051 5.2619 15.5376 5.76202 15.7771 6.33113C16.0166 6.90023 16.1363 7.51532 16.1363 8.1764C16.1363 8.48108 16.1068 8.77712 16.0476 9.06455C15.9884 9.35198 15.8997 9.62503 15.7813 9.88372L18.9596 13.1604ZM18.165 15.7989C18.3003 15.9312 18.4594 16.0001 18.6426 16.0059C18.8257 16.0116 18.9849 15.9427 19.1202 15.7989C19.2554 15.6495 19.3216 15.4842 19.3188 15.3031C19.316 15.1221 19.2498 14.9625 19.1202 14.8246L4.77582 0.208949C4.64621 0.0767329 4.48842 0.00918779 4.30246 0.00631357C4.1165 0.00343931 3.9559 0.0709844 3.82066 0.208949C3.69105 0.335417 3.62624 0.496374 3.62624 0.691822C3.62624 0.887272 3.69105 1.04823 3.82066 1.1747L18.165 15.7989Z" fill="black"/>
</svg>
