<svg width="24" height="24" viewBox="0 0 24 24" fill="none" xmlns="http://www.w3.org/2000/svg">
<path d="M19.3992 13C19.3992 12.7 19.4992 12.3 19.4992 12C19.4992 11.7 19.4992 11.3 19.3992 11L21.4992 9.5C21.6992 9.4 21.7992 9.1 21.5992 8.8L19.5992 5.3C19.4992 5 19.1992 4.9 18.9992 5L16.5992 6.1C16.0992 5.7 15.3992 5.3 14.7992 5.1L14.4992 2.5C14.4992 2.2 14.2992 2 13.9992 2H9.99915C9.69915 2 9.49915 2.2 9.49915 2.5L9.19915 5C8.49915 5.3 7.89915 5.6 7.39915 6L4.99915 5C4.79915 4.9 4.49915 5 4.39915 5.2L2.39915 8.7C2.19915 9 2.19915 9.3 2.49915 9.4L4.59915 11C4.59915 11.3 4.49915 11.7 4.49915 12C4.49915 12.3 4.49915 12.7 4.59915 13L2.49915 14.5C2.29915 14.6 2.19915 14.9 2.39915 15.2L4.39915 18.7C4.49915 19 4.79915 19.1 4.99915 19L7.39915 17.9C7.89915 18.3 8.59915 18.7 9.19915 18.9L9.49915 21.5C9.49915 21.8 9.69915 22 9.99915 22H13.9992C14.2992 22 14.4992 21.8 14.4992 21.5L14.7992 18.9C15.4992 18.6 16.0992 18.3 16.5992 17.9L18.9992 19C19.1992 19.1 19.4992 19 19.5992 18.8L21.5992 15.3C21.6992 15.1 21.6992 14.8 21.4992 14.6L19.3992 13ZM11.9992 16C9.79915 16 7.99915 14.2 7.99915 12C7.99915 9.8 9.79915 8 11.9992 8C14.1992 8 15.9992 9.8 15.9992 12C15.9992 14.2 14.1992 16 11.9992 16Z" fill="currentColor"/>
</svg>
