<svg width="25" height="24" viewBox="0 0 25 24" fill="none" xmlns="http://www.w3.org/2000/svg">
<path d="M17.455 10.0563L11.43 17.8477C11.1535 18.2015 10.746 18.4005 10.3094 18.4079L7.90817 18.4374C7.7772 18.4374 7.66805 18.3489 7.63894 18.2236L7.0932 15.8574C6.99861 15.4225 7.0932 14.9729 7.36971 14.6264L11.641 9.098C11.7138 9.00954 11.8448 8.99554 11.9321 9.06114L13.7294 10.4912C13.8458 10.587 14.0059 10.6386 14.1732 10.6165C14.5298 10.5722 14.7699 10.2479 14.7335 9.90146C14.7117 9.72455 14.6244 9.57713 14.508 9.46656C14.4716 9.43707 12.7616 8.06602 12.7616 8.06602C12.6525 7.97757 12.6306 7.8154 12.7179 7.70557L13.3947 6.82765C14.0204 6.02419 15.1119 5.95048 15.9924 6.65074L17.0038 7.45421C17.4186 7.77855 17.6951 8.20608 17.7897 8.65572C17.8988 9.15033 17.7824 9.6361 17.455 10.0563" fill="currentColor"/>
</svg>
