<svg width="32" height="32" viewBox="0 0 32 32" fill="none" xmlns="http://www.w3.org/2000/svg">
<path d="M11.9997 5.33325H6.66634C5.92996 5.33325 5.33301 5.93021 5.33301 6.66659V11.9999C5.33301 12.7363 5.92996 13.3333 6.66634 13.3333H11.9997C12.7361 13.3333 13.333 12.7363 13.333 11.9999V6.66659C13.333 5.93021 12.7361 5.33325 11.9997 5.33325Z" stroke="currentColor" stroke-width="2" stroke-linecap="round" stroke-linejoin="round"/>
<path d="M9.33301 22.6667V22.6809" stroke="currentColor" stroke-width="2" stroke-linecap="round" stroke-linejoin="round"/>
<path d="M25.3337 5.33325H20.0003C19.2639 5.33325 18.667 5.93021 18.667 6.66659V11.9999C18.667 12.7363 19.2639 13.3333 20.0003 13.3333H25.3337C26.07 13.3333 26.667 12.7363 26.667 11.9999V6.66659C26.667 5.93021 26.07 5.33325 25.3337 5.33325Z" stroke="currentColor" stroke-width="2" stroke-linecap="round" stroke-linejoin="round"/>
<path d="M9.33301 9.33325V9.34742" stroke="currentColor" stroke-width="2" stroke-linecap="round" stroke-linejoin="round"/>
<path d="M11.9997 18.6667H6.66634C5.92996 18.6667 5.33301 19.2637 5.33301 20.0001V25.3334C5.33301 26.0698 5.92996 26.6667 6.66634 26.6667H11.9997C12.7361 26.6667 13.333 26.0698 13.333 25.3334V20.0001C13.333 19.2637 12.7361 18.6667 11.9997 18.6667Z" stroke="currentColor" stroke-width="2" stroke-linecap="round" stroke-linejoin="round"/>
<path d="M22.667 9.33325V9.34742" stroke="currentColor" stroke-width="2" stroke-linecap="round" stroke-linejoin="round"/>
<path d="M18.667 18.6667H22.667" stroke="currentColor" stroke-width="2" stroke-linecap="round" stroke-linejoin="round"/>
<path d="M26.667 18.6667V18.6809" stroke="currentColor" stroke-width="2" stroke-linecap="round" stroke-linejoin="round"/>
<path d="M18.667 18.6667V22.6667" stroke="currentColor" stroke-width="2" stroke-linecap="round" stroke-linejoin="round"/>
<path d="M18.667 26.6667H22.667" stroke="currentColor" stroke-width="2" stroke-linecap="round" stroke-linejoin="round"/>
<path d="M22.667 22.6667H26.667" stroke="currentColor" stroke-width="2" stroke-linecap="round" stroke-linejoin="round"/>
<path d="M26.667 22.6667V26.6667" stroke="currentColor" stroke-width="2" stroke-linecap="round" stroke-linejoin="round"/>
</svg>
