<svg width="32" height="32" viewBox="0 0 32 32" fill="none" xmlns="http://www.w3.org/2000/svg">
<path fill-rule="evenodd" clip-rule="evenodd" d="M8.39844 14.3269C8.39844 11.0334 11.0343 8.40015 14.2409 8.40015C15.7834 8.40015 17.2672 9.01932 18.3645 10.1285C19.4626 11.2384 20.0833 12.7482 20.0833 14.3269C20.0833 17.6204 17.4474 20.2537 14.2409 20.2537C11.0343 20.2537 8.39844 17.6204 8.39844 14.3269ZM14.2409 6.40015C9.90961 6.40015 6.39844 9.94909 6.39844 14.3269C6.39844 18.7048 9.90961 22.2537 14.2409 22.2537C18.5721 22.2537 22.0833 18.7048 22.0833 14.3269C22.0833 12.2246 21.257 10.2084 19.7863 8.72185C18.3155 7.23529 16.3208 6.40015 14.2409 6.40015ZM21.9535 20.7126L24.2892 22.598H24.3297C24.8023 23.0756 24.8023 23.85 24.3297 24.3276C23.8572 24.8053 23.0911 24.8053 22.6185 24.3276L20.6802 22.1062C20.497 21.9216 20.394 21.6709 20.394 21.4094C20.394 21.1479 20.497 20.8972 20.6802 20.7126C21.0336 20.3616 21.6001 20.3616 21.9535 20.7126Z" fill="currentColor"/>
</svg>
