<svg width="16" height="16" viewBox="0 0 16 16" fill="none" xmlns="http://www.w3.org/2000/svg">
<path fill-rule="evenodd" clip-rule="evenodd" d="M4.53607 0H11.4722C14.1842 0 16.0002 1.90323 16.0002 4.73527V11.2714C16.0002 14.0962 14.1842 16.0002 11.4722 16.0002H4.53607C1.82403 16.0002 0 14.0962 0 11.2714V4.73527C0 1.90323 1.82403 0 4.53607 0ZM7.52587 12.6201C7.36034 12.8734 7.12708 13.0001 6.8261 13.0001L6.82608 13.0001C6.5552 13.0001 6.32382 12.8773 6.13195 12.6316L3.2087 8.9126C3.13345 8.82432 3.07984 8.73701 3.04786 8.65065C3.01588 8.5643 2.99989 8.47506 2.99989 8.38295C2.99989 8.18337 3.06573 8.01738 3.19741 7.88496C3.32909 7.75255 3.49651 7.68635 3.69967 7.68635C3.93293 7.68635 4.13044 7.79189 4.29222 8.00298L6.80351 11.2903L11.6963 3.37433C11.7791 3.24 11.8675 3.14405 11.9615 3.08648C12.0556 3.02891 12.1741 3.00012 12.3171 3.00012C12.5165 3.00012 12.6801 3.06441 12.808 3.19298C12.936 3.32156 12.9999 3.48563 12.9999 3.68521C12.9999 3.76964 12.9858 3.85312 12.9576 3.93564C12.9294 4.01816 12.887 4.10547 12.8306 4.19759L7.52587 12.6201Z" fill="currentColor"/>
</svg>
