<svg width="24" height="24" viewBox="0 0 24 24" fill="none" xmlns="http://www.w3.org/2000/svg">
<path fill-rule="evenodd" clip-rule="evenodd" d="M16.7083 6.29234L12.7083 2.29234C12.6132 2.2013 12.5011 2.12993 12.3783 2.08234C12.1349 1.98232 11.8618 1.98232 11.6183 2.08234C11.4956 2.12993 11.3835 2.2013 11.2883 2.29234L7.28835 6.29234C7.09904 6.4801 6.99255 6.7357 6.99255 7.00234C6.99255 7.26898 7.09904 7.52457 7.28835 7.71234C7.47612 7.90165 7.73171 8.00814 7.99835 8.00814C8.26499 8.00814 8.52058 7.90165 8.70835 7.71234L10.9983 5.41234V17.0023C10.9983 17.5546 11.4461 18.0023 11.9983 18.0023C12.5506 18.0023 12.9983 17.5546 12.9983 17.0023V5.41234L15.2883 7.71234C15.542 7.966 15.9117 8.06506 16.2582 7.97222C16.6047 7.87937 16.8754 7.60872 16.9682 7.26222C17.0611 6.91571 16.962 6.546 16.7083 6.29234ZM19 19.9999C19.5523 19.9999 20 20.4476 20 20.9999C20 21.5522 19.5523 21.9999 19 21.9999H5C4.44772 21.9999 4 21.5522 4 20.9999C4 20.4476 4.44772 19.9999 5 19.9999H19Z" fill="currentColor"/>
</svg>
