<svg width="33" height="25" fill="none" xmlns="http://www.w3.org/2000/svg"><mask id="a" mask-type="alpha" maskUnits="userSpaceOnUse" x="0" y="0" width="33" height="25"><path fill-rule="evenodd" clip-rule="evenodd" d="M2.051 0h28.252c1.143 0 2.055.938 2.055 2.077v10.664a2.09 2.09 0 0 1-.595 1.469c-.385.393-.91.615-1.46.615h-28.6A1.734 1.734 0 0 1 0 13.083V2.069C.006.937.91.006 2.047 0h.004Zm3.725 5.845V8.98h20.806V5.845H5.776ZM4.231 18.727h-2.68c-.86 0-1.551.698-1.551 1.552v2.678c0 .854.691 1.553 1.552 1.553h2.68c.86 0 1.551-.699 1.551-1.553V20.28c0-.854-.691-1.552-1.552-1.552Z" fill="#136BFF"/></mask><g mask="url(#a)"><path fill-rule="evenodd" clip-rule="evenodd" d="M2.051 0h28.252c1.143 0 2.055.938 2.055 2.077v10.664a2.09 2.09 0 0 1-.595 1.469c-.385.393-.91.615-1.46.615h-28.6A1.734 1.734 0 0 1 0 13.083V2.069C.006.937.91.006 2.047 0h.004Zm3.725 5.845V8.98h20.806V5.845H5.776ZM4.231 18.727h-2.68c-.86 0-1.551.698-1.551 1.552v2.678c0 .854.691 1.553 1.552 1.553h2.68c.86 0 1.551-.699 1.551-1.553V20.28c0-.854-.691-1.552-1.552-1.552Z" fill="#161616"/></g></svg>